<svg xmlns="http://www.w3.org/2000/svg" viewBox="0 0 640 640">
  <defs><style>
    .a{fill:#a71f63;}
    .b{fill:#f4f0f2;}
    @media (prefers-color-scheme: dark) {
      .a{fill:#f4f0f2;}
      .b{fill:#a71f63;}
    }
  </style></defs>
  <rect class="a" width="641.01" height="640" rx="36.16"/>
  <path class="b" d="M155.4,265.79c-7.43-16.1-10.53-30.35-10.53-47.08,0-63.81,56.38-117.71,123.9-117.71,41.51,0,74.35,26,74.35,60.09,0,22.31-14.25,44-39.65,60.1l-10.53-8.06c9.91-13.63,13-22.92,13-34.69C306,154.9,288.6,140,261.34,140c-46.46,0-88.59,43.37-88.59,91.69a111.85,111.85,0,0,0,5.58,34.07c36.55,1.24,55.75,11.15,55.75,29.74,0,11.15-10.53,21.06-21.68,21.06-8.67,0-18-4.33-28.5-14.87C174.61,292.43,169,290,161,290c-29.12,0-51.42,29.12-51.42,66.91,0,75.58,76.82,133.82,175.94,133.82,91.07,0,161.07-51.42,161.07-117.71,0-46.47-35.93-76.82-91.06-76.82-48.33,0-81.16,24.16-81.16,59.47,0,18,11.77,32.22,26.64,32.22a12.43,12.43,0,0,0,12.39-12.39,15.41,15.41,0,0,0-.62-5c-.62-4.34-1.24-8.05-1.24-9.91,0-8.67,11.77-16.73,24.78-16.73,16.11,0,29.74,13,29.74,28.5,0,24.78-24.16,44-54.52,44-35.93,0-61.33-25.4-61.33-61.95,0-22.3,9.91-45.22,26.64-61.33,24.78-23.54,56.37-33.45,119-36.55l70.62-3.72c57-3.09,82.4-21.68,82.4-60.71s-26-67.53-61.34-67.53c-13,0-22.3,5-22.3,11.15,0,1.24,1.24,3.1,4.34,7.44a28.62,28.62,0,0,1,6.81,18.58c0,16.11-12.39,28.5-29.12,28.5-19.2,0-34.07-16.11-34.07-35.93,0-30.36,31-53.28,71.25-53.28,52.65,0,92.3,40.27,92.3,94.79,0,42.12-20.44,75-55.13,88-24.16,8.67-40.27,11.15-86.74,11.15,25.4,18.58,38.41,46.46,38.41,81.78,0,88.59-95.4,162.31-210.63,162.31C149.83,539,64.33,469,64.33,377.31,64.33,317.21,96.55,278.18,155.4,265.79Z"/>
</svg>
