  0
SECTION
  2
HEADER
  9
$ACADVER
  1
AC1009
  0
ENDSEC
  0
SECTION
  2
ENTITIES
  0
POLYLINE
  5
90
  8
Layer_0
  62
0
  66
1
  10
0
  20
0
  30
0
  0
VERTEX
  5
90
  8
Layer_0
  10
30.933071
  20
20.372047
  0
VERTEX
  5
91
  8
Layer_0
  10
30.933071
  20
20.872048
  0
VERTEX
  5
92
  8
Layer_0
  10
31.933071
  20
20.872048
  0
VERTEX
  5
93
  8
Layer_0
  10
31.933071
  20
20.372047
  0
VERTEX
  5
94
  8
Layer_0
  10
30.933071
  20
20.372047
  0
SEQEND
  0
POLYLINE
  5
96
  8
Layer_0
  62
0
  66
1
  10
0
  20
0
  30
0
  0
VERTEX
  5
96
  8
Layer_0
  10
34.433072
  20
22.622048
  0
VERTEX
  5
97
  8
Layer_0
  10
28.433071
  20
22.622048
  0
VERTEX
  5
98
  8
Layer_0
  10
28.433071
  20
18.622048
  0
VERTEX
  5
99
  8
Layer_0
  10
34.433072
  20
18.622048
  0
VERTEX
  5
9a
  8
Layer_0
  10
34.433072
  20
22.622048
  0
SEQEND
  0
POLYLINE
  5
9c
  8
Layer_0
  62
0
  66
1
  10
0
  20
0
  30
0
  0
VERTEX
  5
9c
  8
Layer_0
  10
24.558073
  20
20.372047
  0
VERTEX
  5
9d
  8
Layer_0
  10
24.558073
  20
20.872048
  0
VERTEX
  5
9e
  8
Layer_0
  10
26.058072
  20
20.872048
  0
VERTEX
  5
9f
  8
Layer_0
  10
26.058072
  20
20.372047
  0
VERTEX
  5
a0
  8
Layer_0
  10
24.558073
  20
20.372047
  0
SEQEND
  0
POLYLINE
  5
a2
  8
Layer_0
  62
0
  66
1
  10
0
  20
0
  30
0
  0
VERTEX
  5
a2
  8
Layer_0
  10
28.308072
  20
22.622048
  0
VERTEX
  5
a3
  8
Layer_0
  10
22.308074
  20
22.622048
  0
VERTEX
  5
a4
  8
Layer_0
  10
22.308074
  20
18.622048
  0
VERTEX
  5
a5
  8
Layer_0
  10
28.308072
  20
18.622048
  0
VERTEX
  5
a6
  8
Layer_0
  10
28.308072
  20
22.622048
  0
SEQEND
  0
POLYLINE
  5
a8
  8
Layer_0
  62
0
  66
1
  10
0
  20
0
  30
0
  0
VERTEX
  5
a8
  8
Layer_0
  10
17.933071
  20
20.372047
  0
VERTEX
  5
a9
  8
Layer_0
  10
17.933071
  20
20.872048
  0
VERTEX
  5
aa
  8
Layer_0
  10
19.933073
  20
20.872048
  0
VERTEX
  5
ab
  8
Layer_0
  10
19.933073
  20
20.372047
  0
VERTEX
  5
ac
  8
Layer_0
  10
17.933071
  20
20.372047
  0
SEQEND
  0
POLYLINE
  5
ae
  8
Layer_0
  62
0
  66
1
  10
0
  20
0
  30
0
  0
VERTEX
  5
ae
  8
Layer_0
  10
22.183072
  20
22.622048
  0
VERTEX
  5
af
  8
Layer_0
  10
16.183073
  20
22.622048
  0
VERTEX
  5
b0
  8
Layer_0
  10
16.183073
  20
18.622048
  0
VERTEX
  5
b1
  8
Layer_0
  10
22.183072
  20
18.622048
  0
VERTEX
  5
b2
  8
Layer_0
  10
22.183072
  20
22.622048
  0
SEQEND
  0
POLYLINE
  5
b4
  8
Layer_0
  62
0
  66
1
  10
0
  20
0
  30
0
  0
VERTEX
  5
b4
  8
Layer_0
  10
18.058074
  20
16.372046
  0
VERTEX
  5
b5
  8
Layer_0
  10
18.058074
  20
16.62205
  0
VERTEX
  5
b6
  8
Layer_0
  10
18.308068
  20
16.62205
  0
VERTEX
  5
b7
  8
Layer_0
  10
18.308068
  20
16.872044
  0
VERTEX
  5
b8
  8
Layer_0
  10
33.558072
  20
16.872054
  42
0.19903576
  0
VERTEX
  5
b9
  8
Layer_0
  10
33.734871
  20
16.945251
  42
0.19902619
  0
VERTEX
  5
ba
  8
Layer_0
  10
33.808076
  20
17.122048
  0
VERTEX
  5
bb
  8
Layer_0
  10
33.808076
  20
17.622046
  42
0.19903004
  0
VERTEX
  5
bc
  8
Layer_0
  10
33.734873
  20
17.798847
  42
0.19903348
  0
VERTEX
  5
bd
  8
Layer_0
  10
33.558072
  20
17.87205
  0
VERTEX
  5
be
  8
Layer_0
  10
18.308068
  20
17.87205
  0
VERTEX
  5
bf
  8
Layer_0
  10
18.308068
  20
18.122054
  0
VERTEX
  5
c0
  8
Layer_0
  10
18.058074
  20
18.122054
  0
VERTEX
  5
c1
  8
Layer_0
  10
18.058074
  20
18.372048
  0
VERTEX
  5
c2
  8
Layer_0
  10
17.80807
  20
18.372048
  0
VERTEX
  5
c3
  8
Layer_0
  10
17.80807
  20
16.372046
  0
VERTEX
  5
c4
  8
Layer_0
  10
18.058074
  20
16.372046
  0
SEQEND
  0
POLYLINE
  5
c6
  8
Layer_0
  62
0
  66
1
  10
0
  20
0
  30
0
  0
VERTEX
  5
c6
  8
Layer_0
  10
32.18307
  20
17.502052
  0
VERTEX
  5
c7
  8
Layer_0
  10
32.195854
  20
17.501408
  42
-0.40486431
  0
VERTEX
  5
c8
  8
Layer_0
  10
32.308072
  20
17.367054
  42
-0.19904809
  0
VERTEX
  5
c9
  8
Layer_0
  10
32.271472
  20
17.278652
  42
-0.19904088
  0
VERTEX
  5
ca
  8
Layer_0
  10
32.18307
  20
17.242052
  0
VERTEX
  5
cb
  8
Layer_0
  10
20.433072
  20
17.242052
  42
-0.19912956
  0
VERTEX
  5
cc
  8
Layer_0
  10
20.344671
  20
17.278639
  42
-0.1989683
  0
VERTEX
  5
cd
  8
Layer_0
  10
20.30807
  20
17.367044
  42
-0.20798203
  0
VERTEX
  5
ce
  8
Layer_0
  10
20.341192
  20
17.461755
  42
-0.2081086
  0
VERTEX
  5
cf
  8
Layer_0
  10
20.433072
  20
17.502052
  0
VERTEX
  5
d0
  8
Layer_0
  10
32.18307
  20
17.502052
  0
SEQEND
  0
POLYLINE
  5
d2
  8
Layer_0
  62
0
  66
1
  10
0
  20
0
  30
0
  0
VERTEX
  5
d2
  8
Layer_0
  10
34.183068
  20
17.247052
  0
VERTEX
  5
d3
  8
Layer_0
  10
34.183068
  20
16.997048
  0
VERTEX
  5
d4
  8
Layer_0
  10
33.933074
  20
16.997048
  0
VERTEX
  5
d5
  8
Layer_0
  10
33.933074
  20
16.747054
  0
VERTEX
  5
d6
  8
Layer_0
  10
18.683069
  20
16.747049
  42
0.19903576
  0
VERTEX
  5
d7
  8
Layer_0
  10
18.506271
  20
16.673852
  42
0.19902619
  0
VERTEX
  5
d8
  8
Layer_0
  10
18.433066
  20
16.497055
  0
VERTEX
  5
d9
  8
Layer_0
  10
18.433066
  20
15.997057
  42
0.19903004
  0
VERTEX
  5
da
  8
Layer_0
  10
18.506268
  20
15.820256
  42
0.19903348
  0
VERTEX
  5
db
  8
Layer_0
  10
18.683068
  20
15.747053
  0
VERTEX
  5
dc
  8
Layer_0
  10
33.933074
  20
15.747048
  0
VERTEX
  5
dd
  8
Layer_0
  10
33.933072
  20
15.497044
  0
VERTEX
  5
de
  8
Layer_0
  10
34.183067
  20
15.497044
  0
VERTEX
  5
df
  8
Layer_0
  10
34.183067
  20
15.24705
  0
VERTEX
  5
e0
  8
Layer_0
  10
34.43307
  20
15.24705
  0
VERTEX
  5
e1
  8
Layer_0
  10
34.433072
  20
17.247052
  0
VERTEX
  5
e2
  8
Layer_0
  10
34.183068
  20
17.247052
  0
SEQEND
  0
POLYLINE
  5
e4
  8
Layer_0
  62
0
  66
1
  10
0
  20
0
  30
0
  0
VERTEX
  5
e4
  8
Layer_0
  10
20.058071
  20
16.117051
  0
VERTEX
  5
e5
  8
Layer_0
  10
20.045288
  20
16.117695
  42
-0.40486431
  0
VERTEX
  5
e6
  8
Layer_0
  10
19.933069
  20
16.252049
  42
-0.19904809
  0
VERTEX
  5
e7
  8
Layer_0
  10
19.969669
  20
16.340451
  42
-0.19904088
  0
VERTEX
  5
e8
  8
Layer_0
  10
20.058071
  20
16.377051
  0
VERTEX
  5
e9
  8
Layer_0
  10
31.80807
  20
16.377047
  42
-0.19912956
  0
VERTEX
  5
ea
  8
Layer_0
  10
31.896471
  20
16.34046
  42
-0.1989683
  0
VERTEX
  5
eb
  8
Layer_0
  10
31.933072
  20
16.252055
  42
-0.20798203
  0
VERTEX
  5
ec
  8
Layer_0
  10
31.89995
  20
16.157343
  42
-0.2081086
  0
VERTEX
  5
ed
  8
Layer_0
  10
31.80807
  20
16.117047
  0
VERTEX
  5
ee
  8
Layer_0
  10
20.058071
  20
16.117051
  0
SEQEND
  0
POLYLINE
  5
f0
  8
Layer_4
  62
138
  66
1
  10
0
  20
0
  30
0
  0
VERTEX
  5
f0
  8
Layer_4
  10
13.182407
  20
22.617438
  0
VERTEX
  5
f1
  8
Layer_4
  10
13.081156
  20
22.617438
  0
VERTEX
  5
f2
  8
Layer_4
  10
13.041411
  20
22.618938
  0
VERTEX
  5
f3
  8
Layer_4
  10
13.031664
  20
22.610691
  0
VERTEX
  5
f4
  8
Layer_4
  10
13.027906
  20
22.414936
  0
VERTEX
  5
f5
  8
Layer_4
  10
13.033164
  20
22.409688
  0
VERTEX
  5
f6
  8
Layer_4
  10
13.09691
  20
22.397692
  42
-0.10764506
  0
VERTEX
  5
f7
  8
Layer_4
  10
13.165529
  20
22.372211
  42
-0.25789019
  0
VERTEX
  5
f8
  8
Layer_4
  10
13.194412
  20
22.313685
  42
-0.3395239
  0
VERTEX
  5
f9
  8
Layer_4
  10
13.129551
  20
22.22467
  42
-0.13276719
  0
VERTEX
  5
fa
  8
Layer_4
  10
13.044227
  20
22.221911
  42
-0.047691273
  0
VERTEX
  5
fb
  8
Layer_4
  10
13.001656
  20
22.235685
  0
VERTEX
  5
fc
  8
Layer_4
  10
12.996408
  20
22.230437
  0
VERTEX
  5
fd
  8
Layer_4
  10
13.000907
  20
22.177937
  42
0.086234481
  0
VERTEX
  5
fe
  8
Layer_4
  10
13.109261
  20
22.173294
  42
0.13835493
  0
VERTEX
  5
ff
  8
Layer_4
  10
13.20041
  20
22.212905
  42
0.30188234
  0
VERTEX
  5
100
  8
Layer_4
  10
13.244124
  20
22.364099
  42
0.1872228
  0
VERTEX
  5
101
  8
Layer_4
  10
13.194691
  20
22.417416
  42
0.06992253
  0
VERTEX
  5
102
  8
Layer_4
  10
13.12241
  20
22.441936
  0
VERTEX
  5
103
  8
Layer_4
  10
13.075158
  20
22.451692
  0
VERTEX
  5
104
  8
Layer_4
  10
13.078157
  20
22.568687
  0
VERTEX
  5
105
  8
Layer_4
  10
13.189164
  20
22.568687
  0
VERTEX
  5
106
  8
Layer_4
  10
13.243913
  20
22.564189
  0
VERTEX
  5
107
  8
Layer_4
  10
13.248411
  20
22.568687
  0
VERTEX
  5
108
  8
Layer_4
  10
13.254409
  20
22.615939
  0
VERTEX
  5
109
  8
Layer_4
  10
13.25141
  20
22.620437
  0
VERTEX
  5
10a
  8
Layer_4
  10
13.182407
  20
22.617438
  0
SEQEND
  0
POLYLINE
  5
10c
  8
Layer_4
  62
138
  66
1
  10
0
  20
0
  30
0
  0
VERTEX
  5
10c
  8
Layer_4
  10
12.247204
  20
22.62112
  42
0.13862727
  0
VERTEX
  5
10d
  8
Layer_4
  10
12.166705
  20
22.592986
  42
0.14170378
  0
VERTEX
  5
10e
  8
Layer_4
  10
12.116695
  20
22.526847
  42
0.094158578
  0
VERTEX
  5
10f
  8
Layer_4
  10
12.099509
  20
22.425442
  42
0.097942907
  0
VERTEX
  5
110
  8
Layer_4
  10
12.116012
  20
22.329285
  42
0.2691414
  0
VERTEX
  5
111
  8
Layer_4
  10
12.223107
  20
22.241827
  42
0.13783306
  0
VERTEX
  5
112
  8
Layer_4
  10
12.330202
  20
22.251641
  42
0.20545763
  0
VERTEX
  5
113
  8
Layer_4
  10
12.408587
  20
22.333053
  42
0.09509318
  0
VERTEX
  5
114
  8
Layer_4
  10
12.425754
  20
22.432939
  42
0.096595671
  0
VERTEX
  5
115
  8
Layer_4
  10
12.409269
  20
22.530614
  42
0.27046747
  0
VERTEX
  5
116
  8
Layer_4
  10
12.302655
  20
22.618803
  42
0.064967265
  0
VERTEX
  5
117
  8
Layer_4
  10
12.247204
  20
22.62112
  0
SEQEND
  0
POLYLINE
  5
119
  8
Layer_4
  62
138
  66
1
  10
0
  20
0
  30
0
  0
VERTEX
  5
119
  8
Layer_4
  10
14.401053
  20
22.62112
  0
VERTEX
  5
11a
  8
Layer_4
  10
14.381185
  20
22.618669
  42
0.16786554
  0
VERTEX
  5
11b
  8
Layer_4
  10
14.288422
  20
22.571224
  42
0.13059978
  0
VERTEX
  5
11c
  8
Layer_4
  10
14.248148
  20
22.491571
  42
0.12578173
  0
VERTEX
  5
11d
  8
Layer_4
  10
14.252656
  20
22.347221
  42
0.16892357
  0
VERTEX
  5
11e
  8
Layer_4
  10
14.309769
  20
22.266654
  42
0.13054976
  0
VERTEX
  5
11f
  8
Layer_4
  10
14.391163
  20
22.239482
  42
0.11270843
  0
VERTEX
  5
120
  8
Layer_4
  10
14.487829
  20
22.251929
  42
0.20610841
  0
VERTEX
  5
121
  8
Layer_4
  10
14.572951
  20
22.335417
  42
0.10014982
  0
VERTEX
  5
122
  8
Layer_4
  10
14.591617
  20
22.438187
  42
0.10458047
  0
VERTEX
  5
123
  8
Layer_4
  10
14.574201
  20
22.532652
  42
0.2364259
  0
VERTEX
  5
124
  8
Layer_4
  10
14.47814
  20
22.615006
  42
0.084823252
  0
VERTEX
  5
125
  8
Layer_4
  10
14.401053
  20
22.62112
  0
SEQEND
  0
POLYLINE
  5
127
  8
Layer_4
  62
138
  66
1
  10
0
  20
0
  30
0
  0
VERTEX
  5
127
  8
Layer_4
  10
14.818707
  20
22.62112
  0
VERTEX
  5
128
  8
Layer_4
  10
14.798839
  20
22.618669
  42
0.16791261
  0
VERTEX
  5
129
  8
Layer_4
  10
14.706085
  20
22.571224
  42
0.13054789
  0
VERTEX
  5
12a
  8
Layer_4
  10
14.665802
  20
22.491571
  42
0.12584133
  0
VERTEX
  5
12b
  8
Layer_4
  10
14.670319
  20
22.347221
  42
0.16909889
  0
VERTEX
  5
12c
  8
Layer_4
  10
14.727433
  20
22.266654
  42
0.13060143
  0
VERTEX
  5
12d
  8
Layer_4
  10
14.808816
  20
22.239482
  42
0.11268142
  0
VERTEX
  5
12e
  8
Layer_4
  10
14.905492
  20
22.251929
  42
0.20606496
  0
VERTEX
  5
12f
  8
Layer_4
  10
14.990614
  20
22.335417
  42
0.10021408
  0
VERTEX
  5
130
  8
Layer_4
  10
15.009271
  20
22.438187
  42
0.10447711
  0
VERTEX
  5
131
  8
Layer_4
  10
14.991864
  20
22.532652
  42
0.23642551
  0
VERTEX
  5
132
  8
Layer_4
  10
14.895794
  20
22.615006
  42
0.084829758
  0
VERTEX
  5
133
  8
Layer_4
  10
14.818707
  20
22.62112
  0
SEQEND
  0
POLYLINE
  5
135
  8
Layer_4
  62
138
  66
1
  10
0
  20
0
  30
0
  0
VERTEX
  5
135
  8
Layer_4
  10
12.539471
  20
22.309283
  42
0.38622252
  0
VERTEX
  5
136
  8
Layer_4
  10
12.511981
  20
22.27469
  42
0.2653962
  0
VERTEX
  5
137
  8
Layer_4
  10
12.525313
  20
22.245374
  42
0.39152332
  0
VERTEX
  5
138
  8
Layer_4
  10
12.574814
  20
22.255235
  42
0.31907255
  0
VERTEX
  5
139
  8
Layer_4
  10
12.571325
  20
22.30094
  42
0.24031479
  0
VERTEX
  5
13a
  8
Layer_4
  10
12.539471
  20
22.309283
  0
SEQEND
  0
POLYLINE
  5
13c
  8
Layer_4
  62
138
  66
1
  10
0
  20
0
  30
0
  0
VERTEX
  5
13c
  8
Layer_4
  10
15.110426
  20
22.617438
  0
VERTEX
  5
13d
  8
Layer_4
  10
15.112675
  20
22.356438
  0
VERTEX
  5
13e
  8
Layer_4
  10
15.110426
  20
22.243941
  42
0.019469828
  0
VERTEX
  5
13f
  8
Layer_4
  10
15.26409
  20
22.241039
  42
0.12845156
  0
VERTEX
  5
140
  8
Layer_4
  10
15.356239
  20
22.270086
  42
0.17298525
  0
VERTEX
  5
141
  8
Layer_4
  10
15.42034
  20
22.356631
  42
0.15027211
  0
VERTEX
  5
142
  8
Layer_4
  10
15.421417
  20
22.518869
  42
0.23725153
  0
VERTEX
  5
143
  8
Layer_4
  10
15.332305
  20
22.608711
  42
0.085124487
  0
VERTEX
  5
144
  8
Layer_4
  10
15.256679
  20
22.620437
  0
VERTEX
  5
145
  8
Layer_4
  10
15.110426
  20
22.617438
  0
SEQEND
  0
POLYLINE
  5
147
  8
Layer_4
  62
138
  66
1
  10
0
  20
0
  30
0
  0
VERTEX
  5
147
  8
Layer_4
  10
12.786774
  20
22.619437
  42
0.13785735
  0
VERTEX
  5
148
  8
Layer_4
  10
12.687839
  20
22.576511
  0
VERTEX
  5
149
  8
Layer_4
  10
12.673162
  20
22.564189
  0
VERTEX
  5
14a
  8
Layer_4
  10
12.682909
  20
22.518436
  0
VERTEX
  5
14b
  8
Layer_4
  10
12.690406
  20
22.518436
  0
VERTEX
  5
14c
  8
Layer_4
  10
12.701498
  20
22.529673
  42
-0.15374466
  0
VERTEX
  5
14d
  8
Layer_4
  10
12.778864
  20
22.568543
  42
-0.1572546
  0
VERTEX
  5
14e
  8
Layer_4
  10
12.826596
  20
22.561651
  42
-0.34213915
  0
VERTEX
  5
14f
  8
Layer_4
  10
12.848146
  20
22.510785
  42
-0.10478085
  0
VERTEX
  5
150
  8
Layer_4
  10
12.818503
  20
22.453037
  42
-0.024124532
  0
VERTEX
  5
151
  8
Layer_4
  10
12.771414
  20
22.396193
  0
VERTEX
  5
152
  8
Layer_4
  10
12.667164
  20
22.282937
  0
VERTEX
  5
153
  8
Layer_4
  10
12.667164
  20
22.245441
  0
VERTEX
  5
154
  8
Layer_4
  10
12.670913
  20
22.242442
  0
VERTEX
  5
155
  8
Layer_4
  10
12.698662
  20
22.243941
  0
VERTEX
  5
156
  8
Layer_4
  10
12.866658
  20
22.243941
  0
VERTEX
  5
157
  8
Layer_4
  10
12.943159
  20
22.240943
  0
VERTEX
  5
158
  8
Layer_4
  10
12.951406
  20
22.291193
  0
VERTEX
  5
159
  8
Layer_4
  10
12.946907
  20
22.294942
  0
VERTEX
  5
15a
  8
Layer_4
  10
12.883911
  20
22.290444
  0
VERTEX
  5
15b
  8
Layer_4
  10
12.745164
  20
22.290444
  0
VERTEX
  5
15c
  8
Layer_4
  10
12.743665
  20
22.293442
  0
VERTEX
  5
15d
  8
Layer_4
  10
12.819406
  20
22.379689
  42
0.058143341
  0
VERTEX
  5
15e
  8
Layer_4
  10
12.890851
  20
22.478528
  42
0.14705805
  0
VERTEX
  5
15f
  8
Layer_4
  10
12.906653
  20
22.546407
  42
0.28307348
  0
VERTEX
  5
160
  8
Layer_4
  10
12.854499
  20
22.611248
  42
0.12464443
  0
VERTEX
  5
161
  8
Layer_4
  10
12.786774
  20
22.619437
  0
SEQEND
  0
POLYLINE
  5
163
  8
Layer_4
  62
138
  66
1
  10
0
  20
0
  30
0
  0
VERTEX
  5
163
  8
Layer_4
  10
14.129634
  20
22.574685
  0
VERTEX
  5
164
  8
Layer_4
  10
14.028383
  20
22.306188
  0
VERTEX
  5
165
  8
Layer_4
  10
14.023885
  20
22.306188
  0
VERTEX
  5
166
  8
Layer_4
  10
13.93239
  20
22.573185
  0
VERTEX
  5
167
  8
Layer_4
  10
13.924133
  20
22.617438
  0
VERTEX
  5
168
  8
Layer_4
  10
13.865635
  20
22.617438
  0
VERTEX
  5
169
  8
Layer_4
  10
13.896384
  20
22.524434
  0
VERTEX
  5
16a
  8
Layer_4
  10
13.814635
  20
22.306188
  0
VERTEX
  5
16b
  8
Layer_4
  10
13.810886
  20
22.306188
  0
VERTEX
  5
16c
  8
Layer_4
  10
13.719391
  20
22.577693
  0
VERTEX
  5
16d
  8
Layer_4
  10
13.712634
  20
22.617438
  0
VERTEX
  5
16e
  8
Layer_4
  10
13.656386
  20
22.617438
  0
VERTEX
  5
16f
  8
Layer_4
  10
13.778639
  20
22.243941
  0
VERTEX
  5
170
  8
Layer_4
  10
13.838636
  20
22.243941
  0
VERTEX
  5
171
  8
Layer_4
  10
13.915886
  20
22.447943
  0
VERTEX
  5
172
  8
Layer_4
  10
13.920384
  20
22.447943
  0
VERTEX
  5
173
  8
Layer_4
  10
13.993886
  20
22.243941
  0
VERTEX
  5
174
  8
Layer_4
  10
14.053883
  20
22.243941
  0
VERTEX
  5
175
  8
Layer_4
  10
14.193389
  20
22.617438
  0
VERTEX
  5
176
  8
Layer_4
  10
14.13864
  20
22.617438
  0
VERTEX
  5
177
  8
Layer_4
  10
14.129634
  20
22.574685
  0
SEQEND
  0
POLYLINE
  5
179
  8
Layer_4
  62
138
  66
1
  10
0
  20
0
  30
0
  0
VERTEX
  5
179
  8
Layer_4
  10
14.431157
  20
22.574166
  42
-0.17543894
  0
VERTEX
  5
17a
  8
Layer_4
  10
14.497152
  20
22.548146
  42
-0.14012032
  0
VERTEX
  5
17b
  8
Layer_4
  10
14.526661
  20
22.49432
  42
-0.11453575
  0
VERTEX
  5
17c
  8
Layer_4
  10
14.52642
  20
22.364407
  42
-0.17959746
  0
VERTEX
  5
17d
  8
Layer_4
  10
14.487464
  20
22.304919
  42
-0.13311284
  0
VERTEX
  5
17e
  8
Layer_4
  10
14.429668
  20
22.286455
  42
-0.11254758
  0
VERTEX
  5
17f
  8
Layer_4
  10
14.36473
  20
22.294375
  42
-0.22644392
  0
VERTEX
  5
180
  8
Layer_4
  10
14.311096
  20
22.353468
  42
-0.12984311
  0
VERTEX
  5
181
  8
Layer_4
  10
14.307174
  20
22.497482
  42
-0.1801844
  0
VERTEX
  5
182
  8
Layer_4
  10
14.345564
  20
22.556019
  42
-0.13272478
  0
VERTEX
  5
183
  8
Layer_4
  10
14.402697
  20
22.574185
  42
-0.03579517
  0
VERTEX
  5
184
  8
Layer_4
  10
14.431157
  20
22.574166
  0
SEQEND
  0
POLYLINE
  5
186
  8
Layer_4
  62
138
  66
1
  10
0
  20
0
  30
0
  0
VERTEX
  5
186
  8
Layer_4
  10
14.848811
  20
22.574166
  42
-0.17542959
  0
VERTEX
  5
187
  8
Layer_4
  10
14.914815
  20
22.548146
  42
-0.14002494
  0
VERTEX
  5
188
  8
Layer_4
  10
14.944314
  20
22.49432
  42
-0.11464646
  0
VERTEX
  5
189
  8
Layer_4
  10
14.944074
  20
22.364407
  42
-0.17962075
  0
VERTEX
  5
18a
  8
Layer_4
  10
14.905117
  20
22.304919
  42
-0.13308067
  0
VERTEX
  5
18b
  8
Layer_4
  10
14.847331
  20
22.286455
  42
-0.11253926
  0
VERTEX
  5
18c
  8
Layer_4
  10
14.782383
  20
22.294375
  42
-0.22642316
  0
VERTEX
  5
18d
  8
Layer_4
  10
14.728749
  20
22.353468
  42
-0.14778675
  0
VERTEX
  5
18e
  8
Layer_4
  10
14.728942
  20
22.51017
  42
-0.28928332
  0
VERTEX
  5
18f
  8
Layer_4
  10
14.807095
  20
22.572657
  42
-0.055552588
  0
VERTEX
  5
190
  8
Layer_4
  10
14.848811
  20
22.574166
  0
SEQEND
  0
POLYLINE
  5
192
  8
Layer_4
  62
138
  66
1
  10
0
  20
0
  30
0
  0
VERTEX
  5
192
  8
Layer_4
  10
15.267041
  20
22.572666
  42
-0.16393055
  0
VERTEX
  5
193
  8
Layer_4
  10
15.336458
  20
22.547089
  42
-0.16847596
  0
VERTEX
  5
194
  8
Layer_4
  10
15.371512
  20
22.481123
  42
-0.11381916
  0
VERTEX
  5
195
  8
Layer_4
  10
15.367427
  20
22.367252
  42
-0.17450814
  0
VERTEX
  5
196
  8
Layer_4
  10
15.324914
  20
22.305909
  42
-0.15630531
  0
VERTEX
  5
197
  8
Layer_4
  10
15.244146
  20
22.286041
  42
-0.013511203
  0
VERTEX
  5
198
  8
Layer_4
  10
15.165175
  20
22.290444
  0
VERTEX
  5
199
  8
Layer_4
  10
15.164425
  20
22.360937
  0
VERTEX
  5
19a
  8
Layer_4
  10
15.165925
  20
22.570186
  42
-0.018979517
  0
VERTEX
  5
19b
  8
Layer_4
  10
15.267041
  20
22.572666
  0
SEQEND
  0
POLYLINE
  5
19d
  8
Layer_4
  62
138
  66
1
  10
0
  20
0
  30
0
  0
VERTEX
  5
19d
  8
Layer_4
  10
12.275424
  20
22.56663
  0
VERTEX
  5
19e
  8
Layer_4
  10
12.288497
  20
22.564948
  42
-0.27905979
  0
VERTEX
  5
19f
  8
Layer_4
  10
12.366775
  20
22.500097
  42
-0.16397593
  0
VERTEX
  5
1a0
  8
Layer_4
  10
12.366948
  20
22.35566
  42
-0.27717676
  0
VERTEX
  5
1a1
  8
Layer_4
  10
12.289217
  20
22.293356
  42
-0.13246974
  0
VERTEX
  5
1a2
  8
Layer_4
  10
12.211938
  20
22.299998
  42
-0.21497157
  0
VERTEX
  5
1a3
  8
Layer_4
  10
12.158131
  20
22.357217
  42
-0.15984658
  0
VERTEX
  5
1a4
  8
Layer_4
  10
12.158112
  20
22.501981
  42
-0.28085446
  0
VERTEX
  5
1a5
  8
Layer_4
  10
12.234824
  20
22.565015
  42
-0.061057491
  0
VERTEX
  5
1a6
  8
Layer_4
  10
12.275424
  20
22.56663
  0
SEQEND
  0
POLYLINE
  5
1a8
  8
Layer_4
  62
138
  66
1
  10
0
  20
0
  30
0
  0
VERTEX
  5
1a8
  8
Layer_4
  10
13.329391
  20
22.61369
  0
VERTEX
  5
1a9
  8
Layer_4
  10
13.325633
  20
22.475692
  0
VERTEX
  5
1aa
  8
Layer_4
  10
13.330891
  20
22.470435
  0
VERTEX
  5
1ab
  8
Layer_4
  10
13.361639
  20
22.474943
  0
VERTEX
  5
1ac
  8
Layer_4
  10
13.379632
  20
22.61219
  0
VERTEX
  5
1ad
  8
Layer_4
  10
13.375134
  20
22.617438
  0
VERTEX
  5
1ae
  8
Layer_4
  10
13.329391
  20
22.61369
  0
SEQEND
  0
POLYLINE
  5
1b0
  8
Layer_4
  62
138
  70
1
  66
1
  10
0
  20
0
  30
0
  0
VERTEX
  5
1b0
  8
Layer_4
  10
13.414888
  20
22.61369
  0
VERTEX
  5
1b1
  8
Layer_4
  10
13.411889
  20
22.475692
  0
VERTEX
  5
1b2
  8
Layer_4
  10
13.416388
  20
22.470435
  0
VERTEX
  5
1b3
  8
Layer_4
  10
13.447136
  20
22.474943
  0
VERTEX
  5
1b4
  8
Layer_4
  10
13.465139
  20
22.61219
  0
VERTEX
  5
1b5
  8
Layer_4
  10
13.460641
  20
22.617438
  0
SEQEND
  0
POLYLINE
  5
1b7
  8
Layer_4
  62
138
  66
1
  10
0
  20
0
  30
0
  0
VERTEX
  5
1b7
  8
Layer_4
  10
13.182407
  20
13.617439
  0
VERTEX
  5
1b8
  8
Layer_4
  10
13.081156
  20
13.617439
  0
VERTEX
  5
1b9
  8
Layer_4
  10
13.041401
  20
13.618938
  0
VERTEX
  5
1ba
  8
Layer_4
  10
13.031655
  20
13.610691
  0
VERTEX
  5
1bb
  8
Layer_4
  10
13.027906
  20
13.414936
  0
VERTEX
  5
1bc
  8
Layer_4
  10
13.033154
  20
13.409688
  0
VERTEX
  5
1bd
  8
Layer_4
  10
13.0969
  20
13.397693
  42
-0.10765015
  0
VERTEX
  5
1be
  8
Layer_4
  10
13.165529
  20
13.372212
  42
-0.2579371
  0
VERTEX
  5
1bf
  8
Layer_4
  10
13.194402
  20
13.313685
  42
-0.33954284
  0
VERTEX
  5
1c0
  8
Layer_4
  10
13.129542
  20
13.22467
  42
-0.13278165
  0
VERTEX
  5
1c1
  8
Layer_4
  10
13.044218
  20
13.221912
  42
-0.04777149
  0
VERTEX
  5
1c2
  8
Layer_4
  10
13.001656
  20
13.235685
  0
VERTEX
  5
1c3
  8
Layer_4
  10
12.996408
  20
13.230437
  0
VERTEX
  5
1c4
  8
Layer_4
  10
13.000907
  20
13.177937
  42
0.086247321
  0
VERTEX
  5
1c5
  8
Layer_4
  10
13.109251
  20
13.173295
  42
0.13836455
  0
VERTEX
  5
1c6
  8
Layer_4
  10
13.2004
  20
13.212905
  42
0.30190249
  0
VERTEX
  5
1c7
  8
Layer_4
  10
13.244115
  20
13.364099
  42
0.187134
  0
VERTEX
  5
1c8
  8
Layer_4
  10
13.194691
  20
13.417416
  42
0.069892762
  0
VERTEX
  5
1c9
  8
Layer_4
  10
13.1224
  20
13.441936
  0
VERTEX
  5
1ca
  8
Layer_4
  10
13.075158
  20
13.451692
  0
VERTEX
  5
1cb
  8
Layer_4
  10
13.078157
  20
13.568687
  0
VERTEX
  5
1cc
  8
Layer_4
  10
13.189154
  20
13.568687
  0
VERTEX
  5
1cd
  8
Layer_4
  10
13.243903
  20
13.564189
  0
VERTEX
  5
1ce
  8
Layer_4
  10
13.248402
  20
13.568687
  0
VERTEX
  5
1cf
  8
Layer_4
  10
13.2544
  20
13.615939
  0
VERTEX
  5
1d0
  8
Layer_4
  10
13.251401
  20
13.620437
  0
VERTEX
  5
1d1
  8
Layer_4
  10
13.182407
  20
13.617439
  0
SEQEND
  0
POLYLINE
  5
1d3
  8
Layer_4
  62
138
  66
1
  10
0
  20
0
  30
0
  0
VERTEX
  5
1d3
  8
Layer_4
  10
11.989261
  20
13.62112
  42
0.13868486
  0
VERTEX
  5
1d4
  8
Layer_4
  10
11.908771
  20
13.592986
  42
0.14172529
  0
VERTEX
  5
1d5
  8
Layer_4
  10
11.858761
  20
13.526847
  42
0.094185714
  0
VERTEX
  5
1d6
  8
Layer_4
  10
11.841565
  20
13.425442
  42
0.097875248
  0
VERTEX
  5
1d7
  8
Layer_4
  10
11.858079
  20
13.329285
  42
0.26917339
  0
VERTEX
  5
1d8
  8
Layer_4
  10
11.965164
  20
13.241827
  42
0.13784841
  0
VERTEX
  5
1d9
  8
Layer_4
  10
12.072259
  20
13.251641
  42
0.20547665
  0
VERTEX
  5
1da
  8
Layer_4
  10
12.150653
  20
13.333053
  42
0.095070716
  0
VERTEX
  5
1db
  8
Layer_4
  10
12.16782
  20
13.432939
  42
0.096572704
  0
VERTEX
  5
1dc
  8
Layer_4
  10
12.151336
  20
13.530615
  42
0.27044747
  0
VERTEX
  5
1dd
  8
Layer_4
  10
12.044721
  20
13.618803
  42
0.064953232
  0
VERTEX
  5
1de
  8
Layer_4
  10
11.989261
  20
13.62112
  0
SEQEND
  0
POLYLINE
  5
1e0
  8
Layer_4
  62
138
  66
1
  10
0
  20
0
  30
0
  0
VERTEX
  5
1e0
  8
Layer_4
  10
14.401043
  20
13.62112
  0
VERTEX
  5
1e1
  8
Layer_4
  10
14.381176
  20
13.618669
  42
0.16791261
  0
VERTEX
  5
1e2
  8
Layer_4
  10
14.288422
  20
13.571225
  42
0.13054696
  0
VERTEX
  5
1e3
  8
Layer_4
  10
14.248138
  20
13.491572
  42
0.12584142
  0
VERTEX
  5
1e4
  8
Layer_4
  10
14.252656
  20
13.347221
  42
0.16909866
  0
VERTEX
  5
1e5
  8
Layer_4
  10
14.309769
  20
13.266655
  42
0.1306017
  0
VERTEX
  5
1e6
  8
Layer_4
  10
14.391153
  20
13.239482
  42
0.11268269
  0
VERTEX
  5
1e7
  8
Layer_4
  10
14.487829
  20
13.251929
  42
0.2060651
  0
VERTEX
  5
1e8
  8
Layer_4
  10
14.572951
  20
13.335418
  42
0.10021285
  0
VERTEX
  5
1e9
  8
Layer_4
  10
14.591608
  20
13.438187
  42
0.10447739
  0
VERTEX
  5
1ea
  8
Layer_4
  10
14.574201
  20
13.532653
  42
0.23642567
  0
VERTEX
  5
1eb
  8
Layer_4
  10
14.47813
  20
13.615007
  42
0.084829693
  0
VERTEX
  5
1ec
  8
Layer_4
  10
14.401043
  20
13.62112
  0
SEQEND
  0
POLYLINE
  5
1ee
  8
Layer_4
  62
138
  66
1
  10
0
  20
0
  30
0
  0
VERTEX
  5
1ee
  8
Layer_4
  10
14.818697
  20
13.62112
  0
VERTEX
  5
1ef
  8
Layer_4
  10
14.798839
  20
13.618669
  42
0.16787034
  0
VERTEX
  5
1f0
  8
Layer_4
  10
14.706075
  20
13.571225
  42
0.13054754
  0
VERTEX
  5
1f1
  8
Layer_4
  10
14.665792
  20
13.491572
  42
0.12581669
  0
VERTEX
  5
1f2
  8
Layer_4
  10
14.670309
  20
13.347221
  42
0.16906063
  0
VERTEX
  5
1f3
  8
Layer_4
  10
14.727423
  20
13.266655
  42
0.13061387
  0
VERTEX
  5
1f4
  8
Layer_4
  10
14.808816
  20
13.239482
  42
0.11268357
  0
VERTEX
  5
1f5
  8
Layer_4
  10
14.905482
  20
13.251929
  42
0.20608995
  0
VERTEX
  5
1f6
  8
Layer_4
  10
14.990605
  20
13.335418
  42
0.10025783
  0
VERTEX
  5
1f7
  8
Layer_4
  10
15.009261
  20
13.438187
  42
0.10450331
  0
VERTEX
  5
1f8
  8
Layer_4
  10
14.991854
  20
13.532653
  42
0.23644657
  0
VERTEX
  5
1f9
  8
Layer_4
  10
14.895784
  20
13.615007
  42
0.084829937
  0
VERTEX
  5
1fa
  8
Layer_4
  10
14.818697
  20
13.62112
  0
SEQEND
  0
POLYLINE
  5
1fc
  8
Layer_4
  62
138
  66
1
  10
0
  20
0
  30
0
  0
VERTEX
  5
1fc
  8
Layer_4
  10
12.281538
  20
13.309283
  42
0.38657774
  0
VERTEX
  5
1fd
  8
Layer_4
  10
12.254048
  20
13.27469
  42
0.26512317
  0
VERTEX
  5
1fe
  8
Layer_4
  10
12.26737
  20
13.245374
  42
0.39146234
  0
VERTEX
  5
1ff
  8
Layer_4
  10
12.31688
  20
13.255236
  42
0.31891015
  0
VERTEX
  5
200
  8
Layer_4
  10
12.313391
  20
13.30094
  42
0.24019038
  0
VERTEX
  5
201
  8
Layer_4
  10
12.281538
  20
13.309283
  0
SEQEND
  0
POLYLINE
  5
203
  8
Layer_4
  62
138
  66
1
  10
0
  20
0
  30
0
  0
VERTEX
  5
203
  8
Layer_4
  10
15.110416
  20
13.617439
  0
VERTEX
  5
204
  8
Layer_4
  10
15.112665
  20
13.356439
  0
VERTEX
  5
205
  8
Layer_4
  10
15.110416
  20
13.243942
  42
0.01947328
  0
VERTEX
  5
206
  8
Layer_4
  10
15.26409
  20
13.241039
  42
0.12838721
  0
VERTEX
  5
207
  8
Layer_4
  10
15.356239
  20
13.270086
  42
0.17292646
  0
VERTEX
  5
208
  8
Layer_4
  10
15.420331
  20
13.356631
  42
0.15035952
  0
VERTEX
  5
209
  8
Layer_4
  10
15.421407
  20
13.518869
  42
0.23722675
  0
VERTEX
  5
20a
  8
Layer_4
  10
15.332305
  20
13.608711
  42
0.085089829
  0
VERTEX
  5
20b
  8
Layer_4
  10
15.25667
  20
13.620437
  0
VERTEX
  5
20c
  8
Layer_4
  10
15.110416
  20
13.617439
  0
SEQEND
  0
POLYLINE
  5
20e
  8
Layer_4
  62
138
  66
1
  10
0
  20
0
  30
0
  0
VERTEX
  5
20e
  8
Layer_4
  10
12.786765
  20
13.619438
  42
0.13790403
  0
VERTEX
  5
20f
  8
Layer_4
  10
12.687839
  20
13.576511
  0
VERTEX
  5
210
  8
Layer_4
  10
12.673153
  20
13.564189
  0
VERTEX
  5
211
  8
Layer_4
  10
12.682899
  20
13.518437
  0
VERTEX
  5
212
  8
Layer_4
  10
12.690406
  20
13.518437
  0
VERTEX
  5
213
  8
Layer_4
  10
12.701488
  20
13.529673
  42
-0.15374462
  0
VERTEX
  5
214
  8
Layer_4
  10
12.778854
  20
13.568543
  42
-0.15725452
  0
VERTEX
  5
215
  8
Layer_4
  10
12.826586
  20
13.561651
  42
-0.34193276
  0
VERTEX
  5
216
  8
Layer_4
  10
12.848146
  20
13.510786
  42
-0.10462572
  0
VERTEX
  5
217
  8
Layer_4
  10
12.818493
  20
13.453038
  42
-0.024125261
  0
VERTEX
  5
218
  8
Layer_4
  10
12.771405
  20
13.396193
  0
VERTEX
  5
219
  8
Layer_4
  10
12.667155
  20
13.282937
  0
VERTEX
  5
21a
  8
Layer_4
  10
12.667155
  20
13.245441
  0
VERTEX
  5
21b
  8
Layer_4
  10
12.670903
  20
13.242442
  0
VERTEX
  5
21c
  8
Layer_4
  10
12.698653
  20
13.243942
  0
VERTEX
  5
21d
  8
Layer_4
  10
12.866658
  20
13.243942
  0
VERTEX
  5
21e
  8
Layer_4
  10
12.943149
  20
13.240943
  0
VERTEX
  5
21f
  8
Layer_4
  10
12.951406
  20
13.291194
  0
VERTEX
  5
220
  8
Layer_4
  10
12.946907
  20
13.294942
  0
VERTEX
  5
221
  8
Layer_4
  10
12.883902
  20
13.290444
  0
VERTEX
  5
222
  8
Layer_4
  10
12.745155
  20
13.290444
  0
VERTEX
  5
223
  8
Layer_4
  10
12.743655
  20
13.293443
  0
VERTEX
  5
224
  8
Layer_4
  10
12.819406
  20
13.37969
  42
0.058091399
  0
VERTEX
  5
225
  8
Layer_4
  10
12.890841
  20
13.478528
  42
0.14689161
  0
VERTEX
  5
226
  8
Layer_4
  10
12.906653
  20
13.546407
  42
0.28299659
  0
VERTEX
  5
227
  8
Layer_4
  10
12.854489
  20
13.611249
  42
0.12465218
  0
VERTEX
  5
228
  8
Layer_4
  10
12.786765
  20
13.619438
  0
SEQEND
  0
POLYLINE
  5
22a
  8
Layer_4
  62
138
  66
1
  10
0
  20
0
  30
0
  0
VERTEX
  5
22a
  8
Layer_4
  10
12.382222
  20
13.575435
  0
VERTEX
  5
22b
  8
Layer_4
  10
12.382222
  20
13.528193
  0
VERTEX
  5
22c
  8
Layer_4
  10
12.388219
  20
13.525194
  0
VERTEX
  5
22d
  8
Layer_4
  10
12.484972
  20
13.552193
  0
VERTEX
  5
22e
  8
Layer_4
  10
12.485722
  20
13.391685
  0
VERTEX
  5
22f
  8
Layer_4
  10
12.481973
  20
13.243942
  0
VERTEX
  5
230
  8
Layer_4
  10
12.54197
  20
13.243942
  0
VERTEX
  5
231
  8
Layer_4
  10
12.538971
  20
13.399192
  0
VERTEX
  5
232
  8
Layer_4
  10
12.54272
  20
13.61444
  0
VERTEX
  5
233
  8
Layer_4
  10
12.533723
  20
13.620437
  0
VERTEX
  5
234
  8
Layer_4
  10
12.382222
  20
13.575435
  0
SEQEND
  0
POLYLINE
  5
236
  8
Layer_4
  62
138
  66
1
  10
0
  20
0
  30
0
  0
VERTEX
  5
236
  8
Layer_4
  10
14.129634
  20
13.574685
  0
VERTEX
  5
237
  8
Layer_4
  10
14.028383
  20
13.306188
  0
VERTEX
  5
238
  8
Layer_4
  10
14.023885
  20
13.306188
  0
VERTEX
  5
239
  8
Layer_4
  10
13.93238
  20
13.573186
  0
VERTEX
  5
23a
  8
Layer_4
  10
13.924133
  20
13.617439
  0
VERTEX
  5
23b
  8
Layer_4
  10
13.865626
  20
13.617439
  0
VERTEX
  5
23c
  8
Layer_4
  10
13.896384
  20
13.524434
  0
VERTEX
  5
23d
  8
Layer_4
  10
13.814625
  20
13.306188
  0
VERTEX
  5
23e
  8
Layer_4
  10
13.810877
  20
13.306188
  0
VERTEX
  5
23f
  8
Layer_4
  10
13.719382
  20
13.577694
  0
VERTEX
  5
240
  8
Layer_4
  10
13.712634
  20
13.617439
  0
VERTEX
  5
241
  8
Layer_4
  10
13.656376
  20
13.617439
  0
VERTEX
  5
242
  8
Layer_4
  10
13.778629
  20
13.243942
  0
VERTEX
  5
243
  8
Layer_4
  10
13.838626
  20
13.243942
  0
VERTEX
  5
244
  8
Layer_4
  10
13.915876
  20
13.447943
  0
VERTEX
  5
245
  8
Layer_4
  10
13.920384
  20
13.447943
  0
VERTEX
  5
246
  8
Layer_4
  10
13.993877
  20
13.243942
  0
VERTEX
  5
247
  8
Layer_4
  10
14.053883
  20
13.243942
  0
VERTEX
  5
248
  8
Layer_4
  10
14.19338
  20
13.617439
  0
VERTEX
  5
249
  8
Layer_4
  10
14.138631
  20
13.617439
  0
VERTEX
  5
24a
  8
Layer_4
  10
14.129634
  20
13.574685
  0
SEQEND
  0
POLYLINE
  5
24c
  8
Layer_4
  62
138
  66
1
  10
0
  20
0
  30
0
  0
VERTEX
  5
24c
  8
Layer_4
  10
14.431148
  20
13.574166
  42
-0.17542326
  0
VERTEX
  5
24d
  8
Layer_4
  10
14.497152
  20
13.548147
  42
-0.14002494
  0
VERTEX
  5
24e
  8
Layer_4
  10
14.526651
  20
13.494321
  42
-0.11464643
  0
VERTEX
  5
24f
  8
Layer_4
  10
14.526411
  20
13.364407
  42
-0.17977411
  0
VERTEX
  5
250
  8
Layer_4
  10
14.487454
  20
13.304919
  42
-0.13308192
  0
VERTEX
  5
251
  8
Layer_4
  10
14.429668
  20
13.286455
  42
-0.11253739
  0
VERTEX
  5
252
  8
Layer_4
  10
14.36472
  20
13.294375
  42
-0.22642259
  0
VERTEX
  5
253
  8
Layer_4
  10
14.311086
  20
13.353469
  42
-0.14778667
  0
VERTEX
  5
254
  8
Layer_4
  10
14.311279
  20
13.51017
  42
-0.28928384
  0
VERTEX
  5
255
  8
Layer_4
  10
14.389432
  20
13.572657
  42
-0.055553726
  0
VERTEX
  5
256
  8
Layer_4
  10
14.431148
  20
13.574166
  0
SEQEND
  0
POLYLINE
  5
258
  8
Layer_4
  62
138
  66
1
  10
0
  20
0
  30
0
  0
VERTEX
  5
258
  8
Layer_4
  10
14.848801
  20
13.574166
  42
-0.17542887
  0
VERTEX
  5
259
  8
Layer_4
  10
14.914806
  20
13.548147
  42
-0.14023391
  0
VERTEX
  5
25a
  8
Layer_4
  10
14.944304
  20
13.494321
  42
-0.11458397
  0
VERTEX
  5
25b
  8
Layer_4
  10
14.944074
  20
13.364407
  42
-0.17955155
  0
VERTEX
  5
25c
  8
Layer_4
  10
14.905117
  20
13.304919
  42
-0.13307273
  0
VERTEX
  5
25d
  8
Layer_4
  10
14.847321
  20
13.286455
  42
-0.11249533
  0
VERTEX
  5
25e
  8
Layer_4
  10
14.782374
  20
13.294375
  42
-0.22640562
  0
VERTEX
  5
25f
  8
Layer_4
  10
14.72874
  20
13.353469
  42
-0.12979951
  0
VERTEX
  5
260
  8
Layer_4
  10
14.724828
  20
13.497483
  42
-0.18022567
  0
VERTEX
  5
261
  8
Layer_4
  10
14.763217
  20
13.556019
  42
-0.13271465
  0
VERTEX
  5
262
  8
Layer_4
  10
14.820341
  20
13.574185
  42
-0.035796721
  0
VERTEX
  5
263
  8
Layer_4
  10
14.848801
  20
13.574166
  0
SEQEND
  0
POLYLINE
  5
265
  8
Layer_4
  62
138
  66
1
  10
0
  20
0
  30
0
  0
VERTEX
  5
265
  8
Layer_4
  10
15.267031
  20
13.572667
  42
-0.16400668
  0
VERTEX
  5
266
  8
Layer_4
  10
15.336448
  20
13.54709
  42
-0.16852592
  0
VERTEX
  5
267
  8
Layer_4
  10
15.371502
  20
13.481124
  42
-0.13466929
  0
VERTEX
  5
268
  8
Layer_4
  10
15.362727
  20
13.354065
  42
-0.27444105
  0
VERTEX
  5
269
  8
Layer_4
  10
15.278662
  20
13.288127
  42
-0.055018662
  0
VERTEX
  5
26a
  8
Layer_4
  10
15.224211
  20
13.286772
  42
-0.010534181
  0
VERTEX
  5
26b
  8
Layer_4
  10
15.165165
  20
13.290444
  0
VERTEX
  5
26c
  8
Layer_4
  10
15.164415
  20
13.360937
  0
VERTEX
  5
26d
  8
Layer_4
  10
15.165915
  20
13.570187
  42
-0.018974953
  0
VERTEX
  5
26e
  8
Layer_4
  10
15.267031
  20
13.572667
  0
SEQEND
  0
POLYLINE
  5
270
  8
Layer_4
  62
138
  66
1
  10
0
  20
0
  30
0
  0
VERTEX
  5
270
  8
Layer_4
  10
12.017491
  20
13.56663
  0
VERTEX
  5
271
  8
Layer_4
  10
12.030563
  20
13.564948
  42
-0.27902881
  0
VERTEX
  5
272
  8
Layer_4
  10
12.108842
  20
13.500097
  42
-0.1639577
  0
VERTEX
  5
273
  8
Layer_4
  10
12.109015
  20
13.35566
  42
-0.27718767
  0
VERTEX
  5
274
  8
Layer_4
  10
12.031274
  20
13.293356
  42
-0.13244604
  0
VERTEX
  5
275
  8
Layer_4
  10
11.953995
  20
13.299998
  42
-0.21489501
  0
VERTEX
  5
276
  8
Layer_4
  10
11.900198
  20
13.357217
  42
-0.15986502
  0
VERTEX
  5
277
  8
Layer_4
  10
11.900178
  20
13.501981
  42
-0.28089575
  0
VERTEX
  5
278
  8
Layer_4
  10
11.97689
  20
13.565016
  42
-0.061058162
  0
VERTEX
  5
279
  8
Layer_4
  10
12.017491
  20
13.56663
  0
SEQEND
  0
POLYLINE
  5
27b
  8
Layer_4
  62
138
  66
1
  10
0
  20
0
  30
0
  0
VERTEX
  5
27b
  8
Layer_4
  10
13.329381
  20
13.61369
  0
VERTEX
  5
27c
  8
Layer_4
  10
13.325633
  20
13.475693
  0
VERTEX
  5
27d
  8
Layer_4
  10
13.330881
  20
13.470435
  0
VERTEX
  5
27e
  8
Layer_4
  10
13.361629
  20
13.474943
  0
VERTEX
  5
27f
  8
Layer_4
  10
13.379632
  20
13.612191
  0
VERTEX
  5
280
  8
Layer_4
  10
13.375134
  20
13.617439
  0
VERTEX
  5
281
  8
Layer_4
  10
13.329381
  20
13.61369
  0
SEQEND
  0
POLYLINE
  5
283
  8
Layer_4
  62
138
  70
1
  66
1
  10
0
  20
0
  30
0
  0
VERTEX
  5
283
  8
Layer_4
  10
13.414879
  20
13.61369
  0
VERTEX
  5
284
  8
Layer_4
  10
13.41188
  20
13.475693
  0
VERTEX
  5
285
  8
Layer_4
  10
13.416378
  20
13.470435
  0
VERTEX
  5
286
  8
Layer_4
  10
13.447126
  20
13.474943
  0
VERTEX
  5
287
  8
Layer_4
  10
13.465129
  20
13.612191
  0
VERTEX
  5
288
  8
Layer_4
  10
13.460631
  20
13.617439
  0
SEQEND
  0
POLYLINE
  5
28a
  8
Layer_4
  62
138
  66
1
  10
0
  20
0
  30
0
  0
VERTEX
  5
28a
  8
Layer_4
  10
12.774841
  20
6.6173885
  0
VERTEX
  5
28b
  8
Layer_4
  10
12.67359
  20
6.6173885
  0
VERTEX
  5
28c
  8
Layer_4
  10
12.633835
  20
6.6188879
  0
VERTEX
  5
28d
  8
Layer_4
  10
12.624089
  20
6.610641
  0
VERTEX
  5
28e
  8
Layer_4
  10
12.62034
  20
6.4148863
  0
VERTEX
  5
28f
  8
Layer_4
  10
12.625588
  20
6.4096383
  0
VERTEX
  5
290
  8
Layer_4
  10
12.689334
  20
6.3976427
  42
-0.10765175
  0
VERTEX
  5
291
  8
Layer_4
  10
12.757963
  20
6.3721617
  42
-0.25793511
  0
VERTEX
  5
292
  8
Layer_4
  10
12.786837
  20
6.3136353
  42
-0.33954257
  0
VERTEX
  5
293
  8
Layer_4
  10
12.721976
  20
6.22462
  42
-0.13278173
  0
VERTEX
  5
294
  8
Layer_4
  10
12.636652
  20
6.2218614
  42
-0.047769955
  0
VERTEX
  5
295
  8
Layer_4
  10
12.59409
  20
6.2356352
  0
VERTEX
  5
296
  8
Layer_4
  10
12.588833
  20
6.2303871
  0
VERTEX
  5
297
  8
Layer_4
  10
12.593341
  20
6.1778873
  42
0.086247162
  0
VERTEX
  5
298
  8
Layer_4
  10
12.701685
  20
6.1732448
  42
0.13836551
  0
VERTEX
  5
299
  8
Layer_4
  10
12.792834
  20
6.2128552
  42
0.30190271
  0
VERTEX
  5
29a
  8
Layer_4
  10
12.836549
  20
6.3640493
  42
0.18713442
  0
VERTEX
  5
29b
  8
Layer_4
  10
12.787125
  20
6.4173662
  42
0.069881846
  0
VERTEX
  5
29c
  8
Layer_4
  10
12.714834
  20
6.441886
  0
VERTEX
  5
29d
  8
Layer_4
  10
12.667592
  20
6.451642
  0
VERTEX
  5
29e
  8
Layer_4
  10
12.670591
  20
6.5686373
  0
VERTEX
  5
29f
  8
Layer_4
  10
12.781589
  20
6.5686373
  0
VERTEX
  5
2a0
  8
Layer_4
  10
12.836338
  20
6.5641389
  0
VERTEX
  5
2a1
  8
Layer_4
  10
12.840836
  20
6.5686373
  0
VERTEX
  5
2a2
  8
Layer_4
  10
12.846834
  20
6.615889
  0
VERTEX
  5
2a3
  8
Layer_4
  10
12.843835
  20
6.6203874
  0
VERTEX
  5
2a4
  8
Layer_4
  10
12.774841
  20
6.6173885
  0
SEQEND
  0
POLYLINE
  5
2a6
  8
Layer_4
  62
138
  66
1
  10
0
  20
0
  30
0
  0
VERTEX
  5
2a6
  8
Layer_4
  10
11.581695
  20
6.6210698
  42
0.13868465
  0
VERTEX
  5
2a7
  8
Layer_4
  10
11.501205
  20
6.592936
  42
0.1417231
  0
VERTEX
  5
2a8
  8
Layer_4
  10
11.451195
  20
6.5267969
  42
0.094186934
  0
VERTEX
  5
2a9
  8
Layer_4
  10
11.434
  20
6.4253921
  42
0.097874108
  0
VERTEX
  5
2aa
  8
Layer_4
  10
11.450513
  20
6.3292353
  42
0.26917355
  0
VERTEX
  5
2ab
  8
Layer_4
  10
11.557598
  20
6.2417772
  42
0.13784857
  0
VERTEX
  5
2ac
  8
Layer_4
  10
11.664693
  20
6.2515909
  42
0.2054775
  0
VERTEX
  5
2ad
  8
Layer_4
  10
11.743087
  20
6.3330031
  42
0.095070917
  0
VERTEX
  5
2ae
  8
Layer_4
  10
11.760254
  20
6.4328893
  42
0.096572686
  0
VERTEX
  5
2af
  8
Layer_4
  10
11.74377
  20
6.5305648
  42
0.20744579
  0
VERTEX
  5
2b0
  8
Layer_4
  10
11.668807
  20
6.6094395
  42
0.11848167
  0
VERTEX
  5
2b1
  8
Layer_4
  10
11.581695
  20
6.6210698
  0
SEQEND
  0
POLYLINE
  5
2b3
  8
Layer_4
  62
138
  66
1
  10
0
  20
0
  30
0
  0
VERTEX
  5
2b3
  8
Layer_4
  10
14.010625
  20
6.6173885
  0
VERTEX
  5
2b4
  8
Layer_4
  10
14.012874
  20
6.3563887
  0
VERTEX
  5
2b5
  8
Layer_4
  10
14.010625
  20
6.2438918
  0
VERTEX
  5
2b6
  8
Layer_4
  10
14.066124
  20
6.2438918
  0
VERTEX
  5
2b7
  8
Layer_4
  10
14.064624
  20
6.360887
  0
VERTEX
  5
2b8
  8
Layer_4
  10
14.064624
  20
6.3796397
  0
VERTEX
  5
2b9
  8
Layer_4
  10
14.135127
  20
6.3803895
  0
VERTEX
  5
2ba
  8
Layer_4
  10
14.155879
  20
6.346104
  42
0.0070295747
  0
VERTEX
  5
2bb
  8
Layer_4
  10
14.221374
  20
6.2446415
  0
VERTEX
  5
2bc
  8
Layer_4
  10
14.23113
  20
6.2386437
  42
0.054303252
  0
VERTEX
  5
2bd
  8
Layer_4
  10
14.28288
  20
6.2498896
  0
VERTEX
  5
2be
  8
Layer_4
  10
14.28363
  20
6.2573868
  0
VERTEX
  5
2bf
  8
Layer_4
  10
14.25663
  20
6.2912781
  42
-0.01912543
  0
VERTEX
  5
2c0
  8
Layer_4
  10
14.182379
  20
6.3946438
  42
0.029944644
  0
VERTEX
  5
2c1
  8
Layer_4
  10
14.20019
  20
6.4041884
  42
0.34501158
  0
VERTEX
  5
2c2
  8
Layer_4
  10
14.256525
  20
6.546011
  42
0.26711024
  0
VERTEX
  5
2c3
  8
Layer_4
  10
14.190568
  20
6.6110735
  42
0.074342957
  0
VERTEX
  5
2c4
  8
Layer_4
  10
14.138126
  20
6.6181382
  0
VERTEX
  5
2c5
  8
Layer_4
  10
14.010625
  20
6.6173885
  0
SEQEND
  0
POLYLINE
  5
2c7
  8
Layer_4
  62
138
  66
1
  10
0
  20
0
  30
0
  0
VERTEX
  5
2c7
  8
Layer_4
  10
13.78962
  20
6.6203297
  0
VERTEX
  5
2c8
  8
Layer_4
  10
13.769993
  20
6.6179364
  42
0.16740315
  0
VERTEX
  5
2c9
  8
Layer_4
  10
13.678046
  20
6.5711748
  42
0.1311682
  0
VERTEX
  5
2ca
  8
Layer_4
  10
13.637945
  20
6.492127
  42
0.12570962
  0
VERTEX
  5
2cb
  8
Layer_4
  10
13.642492
  20
6.3476035
  42
0.17068102
  0
VERTEX
  5
2cc
  8
Layer_4
  10
13.699951
  20
6.2671524
  42
0.12945006
  0
VERTEX
  5
2cd
  8
Layer_4
  10
13.782209
  20
6.2401816
  42
0.15194714
  0
VERTEX
  5
2ce
  8
Layer_4
  10
13.909422
  20
6.2671428
  0
VERTEX
  5
2cf
  8
Layer_4
  10
13.91467
  20
6.3188929
  0
VERTEX
  5
2d0
  8
Layer_4
  10
13.907923
  20
6.3211421
  0
VERTEX
  5
2d1
  8
Layer_4
  10
13.896802
  20
6.3136256
  42
-0.18265521
  0
VERTEX
  5
2d2
  8
Layer_4
  10
13.778422
  20
6.2890193
  42
-0.2485692
  0
VERTEX
  5
2d3
  8
Layer_4
  10
13.707112
  20
6.3447584
  42
-0.11095187
  0
VERTEX
  5
2d4
  8
Layer_4
  10
13.690426
  20
6.4328893
  42
-0.11438331
  0
VERTEX
  5
2d5
  8
Layer_4
  10
13.707112
  20
6.5195977
  42
-0.24964271
  0
VERTEX
  5
2d6
  8
Layer_4
  10
13.778422
  20
6.5724532
  42
-0.21813345
  0
VERTEX
  5
2d7
  8
Layer_4
  10
13.901175
  20
6.5408879
  0
VERTEX
  5
2d8
  8
Layer_4
  10
13.907923
  20
6.5431371
  0
VERTEX
  5
2d9
  8
Layer_4
  10
13.918419
  20
6.5948872
  42
0.13130598
  0
VERTEX
  5
2da
  8
Layer_4
  10
13.81042
  20
6.6211371
  0
VERTEX
  5
2db
  8
Layer_4
  10
13.78962
  20
6.6203297
  0
SEQEND
  0
POLYLINE
  5
2dd
  8
Layer_4
  62
138
  66
1
  10
0
  20
0
  30
0
  0
VERTEX
  5
2dd
  8
Layer_4
  10
15.304272
  20
6.6203297
  0
VERTEX
  5
2de
  8
Layer_4
  10
15.284636
  20
6.6179364
  42
0.16746455
  0
VERTEX
  5
2df
  8
Layer_4
  10
15.192698
  20
6.5711748
  42
0.13135879
  0
VERTEX
  5
2e0
  8
Layer_4
  10
15.152598
  20
6.492127
  42
0.12573486
  0
VERTEX
  5
2e1
  8
Layer_4
  10
15.157144
  20
6.3476035
  42
0.17074549
  0
VERTEX
  5
2e2
  8
Layer_4
  10
15.214594
  20
6.2671524
  42
0.12944087
  0
VERTEX
  5
2e3
  8
Layer_4
  10
15.296852
  20
6.2401816
  42
0.15191449
  0
VERTEX
  5
2e4
  8
Layer_4
  10
15.424074
  20
6.2671428
  0
VERTEX
  5
2e5
  8
Layer_4
  10
15.429322
  20
6.3188929
  0
VERTEX
  5
2e6
  8
Layer_4
  10
15.422575
  20
6.3211421
  0
VERTEX
  5
2e7
  8
Layer_4
  10
15.411454
  20
6.3136256
  42
-0.18263583
  0
VERTEX
  5
2e8
  8
Layer_4
  10
15.293075
  20
6.2890193
  42
-0.24859511
  0
VERTEX
  5
2e9
  8
Layer_4
  10
15.221765
  20
6.3447584
  42
-0.11091035
  0
VERTEX
  5
2ea
  8
Layer_4
  10
15.205069
  20
6.4328893
  42
-0.11433978
  0
VERTEX
  5
2eb
  8
Layer_4
  10
15.221765
  20
6.5195977
  42
-0.24966679
  0
VERTEX
  5
2ec
  8
Layer_4
  10
15.293075
  20
6.5724532
  42
-0.21814293
  0
VERTEX
  5
2ed
  8
Layer_4
  10
15.415818
  20
6.5408879
  0
VERTEX
  5
2ee
  8
Layer_4
  10
15.422575
  20
6.5431371
  0
VERTEX
  5
2ef
  8
Layer_4
  10
15.433071
  20
6.5948872
  42
0.13128976
  0
VERTEX
  5
2f0
  8
Layer_4
  10
15.325073
  20
6.6211371
  0
VERTEX
  5
2f1
  8
Layer_4
  10
15.304272
  20
6.6203297
  0
SEQEND
  0
POLYLINE
  5
2f3
  8
Layer_4
  62
138
  66
1
  10
0
  20
0
  30
0
  0
VERTEX
  5
2f3
  8
Layer_4
  10
11.873972
  20
6.309233
  42
0.38658213
  0
VERTEX
  5
2f4
  8
Layer_4
  10
11.846482
  20
6.27464
  42
0.26517109
  0
VERTEX
  5
2f5
  8
Layer_4
  10
11.859804
  20
6.2453239
  42
0.39160464
  0
VERTEX
  5
2f6
  8
Layer_4
  10
11.909305
  20
6.2551857
  42
0.3191325
  0
VERTEX
  5
2f7
  8
Layer_4
  10
11.905825
  20
6.30089
  42
0.24019038
  0
VERTEX
  5
2f8
  8
Layer_4
  10
11.873972
  20
6.309233
  0
SEQEND
  0
POLYLINE
  5
2fa
  8
Layer_4
  62
138
  66
1
  10
0
  20
0
  30
0
  0
VERTEX
  5
2fa
  8
Layer_4
  10
12.379199
  20
6.6193877
  42
0.1379039
  0
VERTEX
  5
2fb
  8
Layer_4
  10
12.280274
  20
6.5764613
  0
VERTEX
  5
2fc
  8
Layer_4
  10
12.265587
  20
6.5641389
  0
VERTEX
  5
2fd
  8
Layer_4
  10
12.275333
  20
6.5183866
  0
VERTEX
  5
2fe
  8
Layer_4
  10
12.28284
  20
6.5183866
  0
VERTEX
  5
2ff
  8
Layer_4
  10
12.293922
  20
6.5296228
  42
-0.15374441
  0
VERTEX
  5
300
  8
Layer_4
  10
12.371288
  20
6.5684931
  42
-0.15725242
  0
VERTEX
  5
301
  8
Layer_4
  10
12.41902
  20
6.5616014
  42
-0.34193211
  0
VERTEX
  5
302
  8
Layer_4
  10
12.44058
  20
6.5107356
  42
-0.10462411
  0
VERTEX
  5
303
  8
Layer_4
  10
12.410927
  20
6.4529876
  42
-0.024126725
  0
VERTEX
  5
304
  8
Layer_4
  10
12.363839
  20
6.3961433
  0
VERTEX
  5
305
  8
Layer_4
  10
12.259589
  20
6.282887
  0
VERTEX
  5
306
  8
Layer_4
  10
12.259589
  20
6.2453912
  0
VERTEX
  5
307
  8
Layer_4
  10
12.263338
  20
6.2423923
  0
VERTEX
  5
308
  8
Layer_4
  10
12.291087
  20
6.2438918
  0
VERTEX
  5
309
  8
Layer_4
  10
12.459092
  20
6.2438918
  0
VERTEX
  5
30a
  8
Layer_4
  10
12.535583
  20
6.2408929
  0
VERTEX
  5
30b
  8
Layer_4
  10
12.54384
  20
6.2911436
  0
VERTEX
  5
30c
  8
Layer_4
  10
12.539341
  20
6.2948922
  0
VERTEX
  5
30d
  8
Layer_4
  10
12.476336
  20
6.2903938
  0
VERTEX
  5
30e
  8
Layer_4
  10
12.337589
  20
6.2903938
  0
VERTEX
  5
30f
  8
Layer_4
  10
12.33609
  20
6.2933927
  0
VERTEX
  5
310
  8
Layer_4
  10
12.41184
  20
6.3796397
  42
0.058091787
  0
VERTEX
  5
311
  8
Layer_4
  10
12.483276
  20
6.4784782
  42
0.14689171
  0
VERTEX
  5
312
  8
Layer_4
  10
12.499087
  20
6.546357
  42
0.28299667
  0
VERTEX
  5
313
  8
Layer_4
  10
12.446924
  20
6.6111985
  42
0.12465178
  0
VERTEX
  5
314
  8
Layer_4
  10
12.379199
  20
6.6193877
  0
SEQEND
  0
POLYLINE
  5
316
  8
Layer_4
  62
138
  66
1
  10
0
  20
0
  30
0
  0
VERTEX
  5
316
  8
Layer_4
  10
11.974656
  20
6.5753848
  0
VERTEX
  5
317
  8
Layer_4
  10
11.974656
  20
6.5281426
  0
VERTEX
  5
318
  8
Layer_4
  10
11.980653
  20
6.5251437
  0
VERTEX
  5
319
  8
Layer_4
  10
12.077406
  20
6.5521433
  0
VERTEX
  5
31a
  8
Layer_4
  10
12.078156
  20
6.3916353
  0
VERTEX
  5
31b
  8
Layer_4
  10
12.074407
  20
6.2438918
  0
VERTEX
  5
31c
  8
Layer_4
  10
12.134404
  20
6.2438918
  0
VERTEX
  5
31d
  8
Layer_4
  10
12.131406
  20
6.3991421
  0
VERTEX
  5
31e
  8
Layer_4
  10
12.135154
  20
6.6143896
  0
VERTEX
  5
31f
  8
Layer_4
  10
12.126157
  20
6.6203874
  0
VERTEX
  5
320
  8
Layer_4
  10
11.974656
  20
6.5753848
  0
SEQEND
  0
POLYLINE
  5
322
  8
Layer_4
  62
138
  66
1
  10
0
  20
0
  30
0
  0
VERTEX
  5
322
  8
Layer_4
  10
13.242812
  20
6.2438918
  0
VERTEX
  5
323
  8
Layer_4
  10
13.298311
  20
6.2438918
  0
VERTEX
  5
324
  8
Layer_4
  10
13.308817
  20
6.2873853
  0
VERTEX
  5
325
  8
Layer_4
  10
13.329059
  20
6.3398852
  42
-0.0089135312
  0
VERTEX
  5
326
  8
Layer_4
  10
13.497814
  20
6.3398852
  0
VERTEX
  5
327
  8
Layer_4
  10
13.517317
  20
6.2843864
  0
VERTEX
  5
328
  8
Layer_4
  10
13.526314
  20
6.2438918
  0
VERTEX
  5
329
  8
Layer_4
  10
13.582562
  20
6.2438918
  0
VERTEX
  5
32a
  8
Layer_4
  10
13.451312
  20
6.6173885
  0
VERTEX
  5
32b
  8
Layer_4
  10
13.386817
  20
6.6173885
  0
VERTEX
  5
32c
  8
Layer_4
  10
13.242812
  20
6.2438918
  0
SEQEND
  0
POLYLINE
  5
32e
  8
Layer_4
  62
138
  66
1
  10
0
  20
0
  30
0
  0
VERTEX
  5
32e
  8
Layer_4
  10
14.560288
  20
6.5933877
  0
VERTEX
  5
32f
  8
Layer_4
  10
14.468783
  20
6.4351385
  0
VERTEX
  5
330
  8
Layer_4
  10
14.465034
  20
6.4351385
  0
VERTEX
  5
331
  8
Layer_4
  10
14.381036
  20
6.5956369
  0
VERTEX
  5
332
  8
Layer_4
  10
14.37353
  20
6.6173885
  0
VERTEX
  5
333
  8
Layer_4
  10
14.312033
  20
6.6173885
  0
VERTEX
  5
334
  8
Layer_4
  10
14.438784
  20
6.3743917
  0
VERTEX
  5
335
  8
Layer_4
  10
14.439534
  20
6.3511406
  0
VERTEX
  5
336
  8
Layer_4
  10
14.436535
  20
6.2438918
  0
VERTEX
  5
337
  8
Layer_4
  10
14.492784
  20
6.2438918
  0
VERTEX
  5
338
  8
Layer_4
  10
14.490534
  20
6.3511406
  0
VERTEX
  5
339
  8
Layer_4
  10
14.491284
  20
6.3743917
  0
VERTEX
  5
33a
  8
Layer_4
  10
14.630031
  20
6.6173885
  0
VERTEX
  5
33b
  8
Layer_4
  10
14.570034
  20
6.6173885
  0
VERTEX
  5
33c
  8
Layer_4
  10
14.560288
  20
6.5933877
  0
SEQEND
  0
POLYLINE
  5
33e
  8
Layer_4
  62
138
  66
1
  10
0
  20
0
  30
0
  0
VERTEX
  5
33e
  8
Layer_4
  10
14.716259
  20
6.3563887
  0
VERTEX
  5
33f
  8
Layer_4
  10
14.71401
  20
6.2438918
  0
VERTEX
  5
340
  8
Layer_4
  10
14.912763
  20
6.2438918
  0
VERTEX
  5
341
  8
Layer_4
  10
14.916512
  20
6.2858859
  0
VERTEX
  5
342
  8
Layer_4
  10
14.913513
  20
6.2911436
  0
VERTEX
  5
343
  8
Layer_4
  10
14.769508
  20
6.2911436
  0
VERTEX
  5
344
  8
Layer_4
  10
14.768009
  20
6.360887
  0
VERTEX
  5
345
  8
Layer_4
  10
14.770258
  20
6.6173885
  0
VERTEX
  5
346
  8
Layer_4
  10
14.71401
  20
6.6173885
  0
VERTEX
  5
347
  8
Layer_4
  10
14.716259
  20
6.3563887
  0
SEQEND
  0
POLYLINE
  5
349
  8
Layer_4
  62
138
  66
1
  10
0
  20
0
  30
0
  0
VERTEX
  5
349
  8
Layer_4
  10
15.000414
  20
6.3563887
  0
VERTEX
  5
34a
  8
Layer_4
  10
14.998164
  20
6.2438918
  0
VERTEX
  5
34b
  8
Layer_4
  10
15.053663
  20
6.2438918
  0
VERTEX
  5
34c
  8
Layer_4
  10
15.052164
  20
6.360887
  0
VERTEX
  5
34d
  8
Layer_4
  10
15.054413
  20
6.6173885
  0
VERTEX
  5
34e
  8
Layer_4
  10
14.998164
  20
6.6173885
  0
VERTEX
  5
34f
  8
Layer_4
  10
15.000414
  20
6.3563887
  0
SEQEND
  0
POLYLINE
  5
351
  8
Layer_4
  62
138
  66
1
  10
0
  20
0
  30
0
  0
VERTEX
  5
351
  8
Layer_4
  10
11.609925
  20
6.5665803
  0
VERTEX
  5
352
  8
Layer_4
  10
11.622997
  20
6.5648983
  42
-0.27902854
  0
VERTEX
  5
353
  8
Layer_4
  10
11.701276
  20
6.5000472
  42
-0.16395764
  0
VERTEX
  5
354
  8
Layer_4
  10
11.701449
  20
6.3556101
  42
-0.27718646
  0
VERTEX
  5
355
  8
Layer_4
  10
11.623708
  20
6.2933062
  42
-0.132445
  0
VERTEX
  5
356
  8
Layer_4
  10
11.546429
  20
6.299948
  42
-0.21489808
  0
VERTEX
  5
357
  8
Layer_4
  10
11.492632
  20
6.3571673
  42
-0.15986499
  0
VERTEX
  5
358
  8
Layer_4
  10
11.492613
  20
6.5019311
  42
-0.28089704
  0
VERTEX
  5
359
  8
Layer_4
  10
11.569325
  20
6.5649655
  42
-0.061057478
  0
VERTEX
  5
35a
  8
Layer_4
  10
11.609925
  20
6.5665803
  0
SEQEND
  0
POLYLINE
  5
35c
  8
Layer_4
  62
138
  66
1
  10
0
  20
0
  30
0
  0
VERTEX
  5
35c
  8
Layer_4
  10
13.419814
  20
6.5626395
  0
VERTEX
  5
35d
  8
Layer_4
  10
13.482061
  20
6.3856375
  42
-0.011114329
  0
VERTEX
  5
35e
  8
Layer_4
  10
13.347062
  20
6.3856375
  0
VERTEX
  5
35f
  8
Layer_4
  10
13.415316
  20
6.5626395
  0
VERTEX
  5
360
  8
Layer_4
  10
13.419814
  20
6.5626395
  0
SEQEND
  0
POLYLINE
  5
362
  8
Layer_4
  62
138
  66
1
  10
0
  20
0
  30
0
  0
VERTEX
  5
362
  8
Layer_4
  10
14.133416
  20
6.5725012
  42
-0.15387637
  0
VERTEX
  5
363
  8
Layer_4
  10
14.182937
  20
6.555421
  42
-0.23048701
  0
VERTEX
  5
364
  8
Layer_4
  10
14.202631
  20
6.5056413
  42
-0.33434326
  0
VERTEX
  5
365
  8
Layer_4
  10
14.151237
  20
6.4290638
  0
VERTEX
  5
366
  8
Layer_4
  10
14.135877
  20
6.4238926
  0
VERTEX
  5
367
  8
Layer_4
  10
14.065374
  20
6.4261418
  0
VERTEX
  5
368
  8
Layer_4
  10
14.066124
  20
6.5723859
  0
VERTEX
  5
369
  8
Layer_4
  10
14.123872
  20
6.5731356
  0
VERTEX
  5
36a
  8
Layer_4
  10
14.133416
  20
6.5725012
  0
SEQEND
  0
POLYLINE
  5
36c
  8
Layer_4
  62
138
  66
1
  10
0
  20
0
  30
0
  0
VERTEX
  5
36c
  8
Layer_4
  10
12.921816
  20
6.6136399
  0
VERTEX
  5
36d
  8
Layer_4
  10
12.918067
  20
6.4756427
  0
VERTEX
  5
36e
  8
Layer_4
  10
12.923315
  20
6.4703851
  0
VERTEX
  5
36f
  8
Layer_4
  10
12.954063
  20
6.474893
  0
VERTEX
  5
370
  8
Layer_4
  10
12.972066
  20
6.6121404
  0
VERTEX
  5
371
  8
Layer_4
  10
12.967568
  20
6.6173885
  0
VERTEX
  5
372
  8
Layer_4
  10
12.921816
  20
6.6136399
  0
SEQEND
  0
POLYLINE
  5
374
  8
Layer_4
  62
138
  70
1
  66
1
  10
0
  20
0
  30
0
  0
VERTEX
  5
374
  8
Layer_4
  10
13.007313
  20
6.6136399
  0
VERTEX
  5
375
  8
Layer_4
  10
13.004314
  20
6.4756427
  0
VERTEX
  5
376
  8
Layer_4
  10
13.008812
  20
6.4703851
  0
VERTEX
  5
377
  8
Layer_4
  10
13.039561
  20
6.474893
  0
VERTEX
  5
378
  8
Layer_4
  10
13.057564
  20
6.6121404
  0
VERTEX
  5
379
  8
Layer_4
  10
13.053065
  20
6.6173885
  0
SEQEND
  0
POLYLINE
  5
37b
  8
Layer_4
  62
138
  66
1
  10
0
  20
0
  30
0
  0
VERTEX
  5
37b
  8
Layer_4
  10
13.077623
  20
2.034804
  0
VERTEX
  5
37c
  8
Layer_4
  10
13.082122
  20
2.0287966
  0
VERTEX
  5
37d
  8
Layer_4
  10
13.123376
  20
2.0287966
  0
VERTEX
  5
37e
  8
Layer_4
  10
13.277127
  20
2.6153012
  0
VERTEX
  5
37f
  8
Layer_4
  10
13.272619
  20
2.6220487
  0
VERTEX
  5
380
  8
Layer_4
  10
13.231374
  20
2.6220487
  0
VERTEX
  5
381
  8
Layer_4
  10
13.077623
  20
2.034804
  0
SEQEND
  0
POLYLINE
  5
383
  8
Layer_4
  62
138
  66
1
  10
0
  20
0
  30
0
  0
VERTEX
  5
383
  8
Layer_4
  10
10.434321
  20
2.4870505
  0
VERTEX
  5
384
  8
Layer_4
  10
10.333069
  20
2.4870505
  0
VERTEX
  5
385
  8
Layer_4
  10
10.293315
  20
2.4885499
  0
VERTEX
  5
386
  8
Layer_4
  10
10.283569
  20
2.480303
  0
VERTEX
  5
387
  8
Layer_4
  10
10.27982
  20
2.2845483
  0
VERTEX
  5
388
  8
Layer_4
  10
10.285068
  20
2.2793003
  0
VERTEX
  5
389
  8
Layer_4
  10
10.348814
  20
2.2673047
  42
-0.10764735
  0
VERTEX
  5
38a
  8
Layer_4
  10
10.417442
  20
2.2418237
  42
-0.25794111
  0
VERTEX
  5
38b
  8
Layer_4
  10
10.446316
  20
2.1832973
  42
-0.33953818
  0
VERTEX
  5
38c
  8
Layer_4
  10
10.381455
  20
2.094282
  42
-0.13278044
  0
VERTEX
  5
38d
  8
Layer_4
  10
10.296131
  20
2.0915234
  42
-0.047770869
  0
VERTEX
  5
38e
  8
Layer_4
  10
10.25357
  20
2.1052972
  0
VERTEX
  5
38f
  8
Layer_4
  10
10.248322
  20
2.1000491
  0
VERTEX
  5
390
  8
Layer_4
  10
10.25282
  20
2.0475493
  42
0.086249206
  0
VERTEX
  5
391
  8
Layer_4
  10
10.361165
  20
2.0429068
  42
0.13836496
  0
VERTEX
  5
392
  8
Layer_4
  10
10.452314
  20
2.0825172
  42
0.30190169
  0
VERTEX
  5
393
  8
Layer_4
  10
10.496029
  20
2.2337113
  42
0.18713632
  0
VERTEX
  5
394
  8
Layer_4
  10
10.446604
  20
2.2870282
  42
0.069882522
  0
VERTEX
  5
395
  8
Layer_4
  10
10.374314
  20
2.311548
  0
VERTEX
  5
396
  8
Layer_4
  10
10.327072
  20
2.321304
  0
VERTEX
  5
397
  8
Layer_4
  10
10.330071
  20
2.4382993
  0
VERTEX
  5
398
  8
Layer_4
  10
10.441068
  20
2.4382993
  0
VERTEX
  5
399
  8
Layer_4
  10
10.495817
  20
2.4338009
  0
VERTEX
  5
39a
  8
Layer_4
  10
10.500315
  20
2.4382993
  0
VERTEX
  5
39b
  8
Layer_4
  10
10.506313
  20
2.485551
  0
VERTEX
  5
39c
  8
Layer_4
  10
10.503314
  20
2.4900494
  0
VERTEX
  5
39d
  8
Layer_4
  10
10.434321
  20
2.4870505
  0
SEQEND
  0
POLYLINE
  5
39f
  8
Layer_4
  62
138
  66
1
  10
0
  20
0
  30
0
  0
VERTEX
  5
39f
  8
Layer_4
  10
9.2411746
  20
2.4907318
  42
0.13868446
  0
VERTEX
  5
3a0
  8
Layer_4
  10
9.160685
  20
2.462598
  42
0.14172399
  0
VERTEX
  5
3a1
  8
Layer_4
  10
9.1106747
  20
2.3964589
  42
0.094186982
  0
VERTEX
  5
3a2
  8
Layer_4
  10
9.0934791
  20
2.2950541
  42
0.097877506
  0
VERTEX
  5
3a3
  8
Layer_4
  10
9.1099922
  20
2.1988973
  42
0.26917456
  0
VERTEX
  5
3a4
  8
Layer_4
  10
9.2170777
  20
2.1114392
  42
0.13784616
  0
VERTEX
  5
3a5
  8
Layer_4
  10
9.3241728
  20
2.1212529
  42
0.205477
  0
VERTEX
  5
3a6
  8
Layer_4
  10
9.4025669
  20
2.2026651
  42
0.095070975
  0
VERTEX
  5
3a7
  8
Layer_4
  10
9.4197336
  20
2.3025513
  42
0.096572583
  0
VERTEX
  5
3a8
  8
Layer_4
  10
9.4032493
  20
2.4002268
  42
0.20744636
  0
VERTEX
  5
3a9
  8
Layer_4
  10
9.3282866
  20
2.4791015
  42
0.11848107
  0
VERTEX
  5
3aa
  8
Layer_4
  10
9.2411746
  20
2.4907318
  0
SEQEND
  0
POLYLINE
  5
3ac
  8
Layer_4
  62
138
  66
1
  10
0
  20
0
  30
0
  0
VERTEX
  5
3ac
  8
Layer_4
  10
15.160066
  20
2.4870505
  0
VERTEX
  5
3ad
  8
Layer_4
  10
15.162315
  20
2.2260507
  0
VERTEX
  5
3ae
  8
Layer_4
  10
15.160066
  20
2.1135538
  0
VERTEX
  5
3af
  8
Layer_4
  10
15.215565
  20
2.1135538
  0
VERTEX
  5
3b0
  8
Layer_4
  10
15.214065
  20
2.230549
  0
VERTEX
  5
3b1
  8
Layer_4
  10
15.214065
  20
2.2493017
  0
VERTEX
  5
3b2
  8
Layer_4
  10
15.284568
  20
2.2500515
  0
VERTEX
  5
3b3
  8
Layer_4
  10
15.30532
  20
2.215766
  42
0.0070307584
  0
VERTEX
  5
3b4
  8
Layer_4
  10
15.370815
  20
2.1143035
  0
VERTEX
  5
3b5
  8
Layer_4
  10
15.380571
  20
2.1083057
  42
0.054303441
  0
VERTEX
  5
3b6
  8
Layer_4
  10
15.432321
  20
2.1195516
  0
VERTEX
  5
3b7
  8
Layer_4
  10
15.433071
  20
2.1270488
  0
VERTEX
  5
3b8
  8
Layer_4
  10
15.406071
  20
2.1609401
  42
-0.019125727
  0
VERTEX
  5
3b9
  8
Layer_4
  10
15.33182
  20
2.2643058
  42
0.029950377
  0
VERTEX
  5
3ba
  8
Layer_4
  10
15.349631
  20
2.2738504
  42
0.34500832
  0
VERTEX
  5
3bb
  8
Layer_4
  10
15.405966
  20
2.415673
  42
0.26711164
  0
VERTEX
  5
3bc
  8
Layer_4
  10
15.340009
  20
2.4807355
  42
0.074342972
  0
VERTEX
  5
3bd
  8
Layer_4
  10
15.287567
  20
2.4878002
  0
VERTEX
  5
3be
  8
Layer_4
  10
15.160066
  20
2.4870505
  0
SEQEND
  0
POLYLINE
  5
3c0
  8
Layer_4
  62
138
  66
1
  10
0
  20
0
  30
0
  0
VERTEX
  5
3c0
  8
Layer_4
  10
13.343775
  20
2.4870505
  0
VERTEX
  5
3c1
  8
Layer_4
  10
13.346024
  20
2.2260507
  0
VERTEX
  5
3c2
  8
Layer_4
  10
13.343775
  20
2.1135538
  0
VERTEX
  5
3c3
  8
Layer_4
  10
13.399274
  20
2.1135538
  0
VERTEX
  5
3c4
  8
Layer_4
  10
13.397774
  20
2.230549
  0
VERTEX
  5
3c5
  8
Layer_4
  10
13.397774
  20
2.2493017
  0
VERTEX
  5
3c6
  8
Layer_4
  10
13.468277
  20
2.2500515
  0
VERTEX
  5
3c7
  8
Layer_4
  10
13.489029
  20
2.215766
  42
0.0069095864
  0
VERTEX
  5
3c8
  8
Layer_4
  10
13.554524
  20
2.1143035
  0
VERTEX
  5
3c9
  8
Layer_4
  10
13.56428
  20
2.1083057
  42
0.054298445
  0
VERTEX
  5
3ca
  8
Layer_4
  10
13.61603
  20
2.1195516
  0
VERTEX
  5
3cb
  8
Layer_4
  10
13.61678
  20
2.1270488
  0
VERTEX
  5
3cc
  8
Layer_4
  10
13.589781
  20
2.1609401
  42
-0.019124929
  0
VERTEX
  5
3cd
  8
Layer_4
  10
13.515529
  20
2.2643058
  42
0.029947292
  0
VERTEX
  5
3ce
  8
Layer_4
  10
13.53334
  20
2.2738504
  42
0.34501889
  0
VERTEX
  5
3cf
  8
Layer_4
  10
13.589675
  20
2.415673
  42
0.26714658
  0
VERTEX
  5
3d0
  8
Layer_4
  10
13.523718
  20
2.4807355
  42
0.074353926
  0
VERTEX
  5
3d1
  8
Layer_4
  10
13.471276
  20
2.4878002
  0
VERTEX
  5
3d2
  8
Layer_4
  10
13.343775
  20
2.4870505
  0
SEQEND
  0
POLYLINE
  5
3d4
  8
Layer_4
  62
138
  66
1
  10
0
  20
0
  30
0
  0
VERTEX
  5
3d4
  8
Layer_4
  10
13.93548
  20
2.2523006
  42
-0.14226283
  0
VERTEX
  5
3d5
  8
Layer_4
  10
13.922004
  20
2.1944758
  42
-0.20543109
  0
VERTEX
  5
3d6
  8
Layer_4
  10
13.871398
  20
2.1604403
  42
-0.14870363
  0
VERTEX
  5
3d7
  8
Layer_4
  10
13.787563
  20
2.1664573
  42
-0.24681997
  0
VERTEX
  5
3d8
  8
Layer_4
  10
13.745108
  20
2.2201202
  42
-0.058540003
  0
VERTEX
  5
3d9
  8
Layer_4
  10
13.741984
  20
2.2523006
  0
VERTEX
  5
3da
  8
Layer_4
  10
13.744983
  20
2.4870505
  0
VERTEX
  5
3db
  8
Layer_4
  10
13.688734
  20
2.4870505
  0
VERTEX
  5
3dc
  8
Layer_4
  10
13.689484
  20
2.3003021
  0
VERTEX
  5
3dd
  8
Layer_4
  10
13.688734
  20
2.2433039
  42
0.15415511
  0
VERTEX
  5
3de
  8
Layer_4
  10
13.709313
  20
2.1629202
  42
0.17355476
  0
VERTEX
  5
3df
  8
Layer_4
  10
13.772367
  20
2.1178983
  42
0.16084356
  0
VERTEX
  5
3e0
  8
Layer_4
  10
13.915122
  20
2.1229638
  42
0.27104989
  0
VERTEX
  5
3e1
  8
Layer_4
  10
13.985903
  20
2.2129882
  42
0.044946329
  0
VERTEX
  5
3e2
  8
Layer_4
  10
13.98798
  20
2.2433039
  0
VERTEX
  5
3e3
  8
Layer_4
  10
13.98798
  20
2.2973032
  0
VERTEX
  5
3e4
  8
Layer_4
  10
13.990229
  20
2.4870505
  0
VERTEX
  5
3e5
  8
Layer_4
  10
13.933231
  20
2.4870505
  0
VERTEX
  5
3e6
  8
Layer_4
  10
13.93548
  20
2.2523006
  0
SEQEND
  0
POLYLINE
  5
3e8
  8
Layer_4
  62
138
  66
1
  10
0
  20
0
  30
0
  0
VERTEX
  5
3e8
  8
Layer_4
  10
12.907619
  20
2.4899917
  0
VERTEX
  5
3e9
  8
Layer_4
  10
12.887982
  20
2.4875984
  42
0.16745731
  0
VERTEX
  5
3ea
  8
Layer_4
  10
12.796045
  20
2.4408368
  42
0.13121297
  0
VERTEX
  5
3eb
  8
Layer_4
  10
12.755944
  20
2.361789
  42
0.12573454
  0
VERTEX
  5
3ec
  8
Layer_4
  10
12.760491
  20
2.2172655
  42
0.17063674
  0
VERTEX
  5
3ed
  8
Layer_4
  10
12.81794
  20
2.1368144
  42
0.12943999
  0
VERTEX
  5
3ee
  8
Layer_4
  10
12.900199
  20
2.1098436
  42
0.15191745
  0
VERTEX
  5
3ef
  8
Layer_4
  10
13.027421
  20
2.1368048
  0
VERTEX
  5
3f0
  8
Layer_4
  10
13.032669
  20
2.1885549
  0
VERTEX
  5
3f1
  8
Layer_4
  10
13.025921
  20
2.1908041
  0
VERTEX
  5
3f2
  8
Layer_4
  10
13.0148
  20
2.1832876
  42
-0.18263716
  0
VERTEX
  5
3f3
  8
Layer_4
  10
12.896421
  20
2.1586813
  42
-0.24856993
  0
VERTEX
  5
3f4
  8
Layer_4
  10
12.825111
  20
2.2144204
  42
-0.1108851
  0
VERTEX
  5
3f5
  8
Layer_4
  10
12.808415
  20
2.3025513
  42
-0.11431588
  0
VERTEX
  5
3f6
  8
Layer_4
  10
12.825111
  20
2.3892597
  42
-0.24964206
  0
VERTEX
  5
3f7
  8
Layer_4
  10
12.896421
  20
2.4421152
  42
-0.21814372
  0
VERTEX
  5
3f8
  8
Layer_4
  10
13.019164
  20
2.4105499
  0
VERTEX
  5
3f9
  8
Layer_4
  10
13.025921
  20
2.4127991
  0
VERTEX
  5
3fa
  8
Layer_4
  10
13.036418
  20
2.4645492
  42
0.13129049
  0
VERTEX
  5
3fb
  8
Layer_4
  10
12.928419
  20
2.4907991
  0
VERTEX
  5
3fc
  8
Layer_4
  10
12.907619
  20
2.4899917
  0
SEQEND
  0
POLYLINE
  5
3fe
  8
Layer_4
  62
138
  66
1
  10
0
  20
0
  30
0
  0
VERTEX
  5
3fe
  8
Layer_4
  10
12.062489
  20
2.4902512
  0
VERTEX
  5
3ff
  8
Layer_4
  10
12.048417
  20
2.4886557
  42
0.16658154
  0
VERTEX
  5
400
  8
Layer_4
  10
11.973281
  20
2.4522268
  42
0.33037201
  0
VERTEX
  5
401
  8
Layer_4
  10
11.95772
  20
2.3402297
  42
0.10494
  0
VERTEX
  5
402
  8
Layer_4
  10
11.987286
  20
2.3095295
  42
0.049685812
  0
VERTEX
  5
403
  8
Layer_4
  10
12.051512
  20
2.2761284
  0
VERTEX
  5
404
  8
Layer_4
  10
12.067564
  20
2.2688522
  42
-0.079332047
  0
VERTEX
  5
405
  8
Layer_4
  10
12.107405
  20
2.2446304
  42
-0.38249636
  0
VERTEX
  5
406
  8
Layer_4
  10
12.115873
  20
2.183278
  42
-0.25591427
  0
VERTEX
  5
407
  8
Layer_4
  10
12.05181
  20
2.152549
  42
-0.18772418
  0
VERTEX
  5
408
  8
Layer_4
  10
11.950559
  20
2.1968019
  0
VERTEX
  5
409
  8
Layer_4
  10
11.943062
  20
2.193803
  0
VERTEX
  5
40a
  8
Layer_4
  10
11.936304
  20
2.1345556
  42
0.17040841
  0
VERTEX
  5
40b
  8
Layer_4
  10
12.089757
  20
2.1143419
  42
0.2045764
  0
VERTEX
  5
40c
  8
Layer_4
  10
12.165691
  20
2.1684758
  42
0.26704711
  0
VERTEX
  5
40d
  8
Layer_4
  10
12.167642
  20
2.2634119
  42
0.10481411
  0
VERTEX
  5
40e
  8
Layer_4
  10
12.138086
  20
2.2941794
  42
0.046214344
  0
VERTEX
  5
40f
  8
Layer_4
  10
12.09043
  20
2.3201794
  0
VERTEX
  5
410
  8
Layer_4
  10
12.057798
  20
2.3347125
  42
-0.077140119
  0
VERTEX
  5
411
  8
Layer_4
  10
12.017967
  20
2.3584441
  42
-0.35427033
  0
VERTEX
  5
412
  8
Layer_4
  10
12.006029
  20
2.4115495
  42
-0.26825185
  0
VERTEX
  5
413
  8
Layer_4
  10
12.062988
  20
2.4469691
  42
-0.18697114
  0
VERTEX
  5
414
  8
Layer_4
  10
12.139816
  20
2.4229011
  0
VERTEX
  5
415
  8
Layer_4
  10
12.150062
  20
2.4150482
  0
VERTEX
  5
416
  8
Layer_4
  10
12.159059
  20
2.4172974
  0
VERTEX
  5
417
  8
Layer_4
  10
12.168805
  20
2.4728058
  42
0.11057353
  0
VERTEX
  5
418
  8
Layer_4
  10
12.062489
  20
2.4902512
  0
SEQEND
  0
POLYLINE
  5
41a
  8
Layer_4
  62
138
  66
1
  10
0
  20
0
  30
0
  0
VERTEX
  5
41a
  8
Layer_4
  10
9.5334513
  20
2.178895
  42
0.38659194
  0
VERTEX
  5
41b
  8
Layer_4
  10
9.5059614
  20
2.144302
  42
0.26512177
  0
VERTEX
  5
41c
  8
Layer_4
  10
9.5192834
  20
2.1149859
  42
0.39143493
  0
VERTEX
  5
41d
  8
Layer_4
  10
9.568794
  20
2.1248477
  42
0.31889787
  0
VERTEX
  5
41e
  8
Layer_4
  10
9.5653049
  20
2.170552
  42
0.24019937
  0
VERTEX
  5
41f
  8
Layer_4
  10
9.5334513
  20
2.178895
  0
SEQEND
  0
POLYLINE
  5
421
  8
Layer_4
  62
138
  66
1
  10
0
  20
0
  30
0
  0
VERTEX
  5
421
  8
Layer_4
  10
10.038678
  20
2.4890498
  42
0.13790314
  0
VERTEX
  5
422
  8
Layer_4
  10
9.9397532
  20
2.4461233
  0
VERTEX
  5
423
  8
Layer_4
  10
9.9250663
  20
2.4338009
  0
VERTEX
  5
424
  8
Layer_4
  10
9.9348127
  20
2.3880486
  0
VERTEX
  5
425
  8
Layer_4
  10
9.9423195
  20
2.3880486
  0
VERTEX
  5
426
  8
Layer_4
  10
9.953402
  20
2.3992848
  42
-0.153745
  0
VERTEX
  5
427
  8
Layer_4
  10
10.030768
  20
2.4381551
  42
-0.15725003
  0
VERTEX
  5
428
  8
Layer_4
  10
10.0785
  20
2.4312634
  42
-0.34192725
  0
VERTEX
  5
429
  8
Layer_4
  10
10.100059
  20
2.3803976
  42
-0.10462313
  0
VERTEX
  5
42a
  8
Layer_4
  10
10.070407
  20
2.3226497
  42
-0.024123865
  0
VERTEX
  5
42b
  8
Layer_4
  10
10.023318
  20
2.2658053
  0
VERTEX
  5
42c
  8
Layer_4
  10
9.9190685
  20
2.152549
  0
VERTEX
  5
42d
  8
Layer_4
  10
9.9190685
  20
2.1150532
  0
VERTEX
  5
42e
  8
Layer_4
  10
9.9228171
  20
2.1120543
  0
VERTEX
  5
42f
  8
Layer_4
  10
9.9505665
  20
2.1135538
  0
VERTEX
  5
430
  8
Layer_4
  10
10.118572
  20
2.1135538
  0
VERTEX
  5
431
  8
Layer_4
  10
10.195063
  20
2.1105549
  0
VERTEX
  5
432
  8
Layer_4
  10
10.203319
  20
2.1608056
  0
VERTEX
  5
433
  8
Layer_4
  10
10.198821
  20
2.1645542
  0
VERTEX
  5
434
  8
Layer_4
  10
10.135815
  20
2.1600558
  0
VERTEX
  5
435
  8
Layer_4
  10
9.9970685
  20
2.1600558
  0
VERTEX
  5
436
  8
Layer_4
  10
9.9955691
  20
2.1630547
  0
VERTEX
  5
437
  8
Layer_4
  10
10.07132
  20
2.2493017
  42
0.058101419
  0
VERTEX
  5
438
  8
Layer_4
  10
10.142755
  20
2.3481402
  42
0.14706219
  0
VERTEX
  5
439
  8
Layer_4
  10
10.158567
  20
2.416019
  42
0.28299552
  0
VERTEX
  5
43a
  8
Layer_4
  10
10.106403
  20
2.4808605
  42
0.12465179
  0
VERTEX
  5
43b
  8
Layer_4
  10
10.038678
  20
2.4890498
  0
SEQEND
  0
POLYLINE
  5
43d
  8
Layer_4
  62
138
  66
1
  10
0
  20
0
  30
0
  0
VERTEX
  5
43d
  8
Layer_4
  10
14.473118
  20
2.4870505
  0
VERTEX
  5
43e
  8
Layer_4
  10
14.475367
  20
2.2260507
  0
VERTEX
  5
43f
  8
Layer_4
  10
14.473118
  20
2.1135538
  42
0.028069719
  0
VERTEX
  5
440
  8
Layer_4
  10
14.604742
  20
2.1129578
  42
0.093887087
  0
VERTEX
  5
441
  8
Layer_4
  10
14.678513
  20
2.1317298
  42
0.305266
  0
VERTEX
  5
442
  8
Layer_4
  10
14.731868
  20
2.2193032
  42
0.33649698
  0
VERTEX
  5
443
  8
Layer_4
  10
14.676072
  20
2.2999753
  42
0.043881581
  0
VERTEX
  5
444
  8
Layer_4
  10
14.648611
  20
2.3077994
  0
VERTEX
  5
445
  8
Layer_4
  10
14.661962
  20
2.3143739
  42
0.28283297
  0
VERTEX
  5
446
  8
Layer_4
  10
14.708617
  20
2.3970549
  42
0.34039591
  0
VERTEX
  5
447
  8
Layer_4
  10
14.650504
  20
2.4785344
  42
0.084992522
  0
VERTEX
  5
448
  8
Layer_4
  10
14.590113
  20
2.4878002
  0
VERTEX
  5
449
  8
Layer_4
  10
14.473118
  20
2.4870505
  0
SEQEND
  0
POLYLINE
  5
44b
  8
Layer_4
  62
138
  66
1
  10
0
  20
0
  30
0
  0
VERTEX
  5
44b
  8
Layer_4
  10
14.112414
  20
2.4870505
  0
VERTEX
  5
44c
  8
Layer_4
  10
14.114664
  20
2.2260507
  0
VERTEX
  5
44d
  8
Layer_4
  10
14.112414
  20
2.1135538
  42
0.028069379
  0
VERTEX
  5
44e
  8
Layer_4
  10
14.244039
  20
2.1129578
  42
0.093895195
  0
VERTEX
  5
44f
  8
Layer_4
  10
14.31781
  20
2.1317298
  42
0.30527363
  0
VERTEX
  5
450
  8
Layer_4
  10
14.371165
  20
2.2193032
  42
0.33650482
  0
VERTEX
  5
451
  8
Layer_4
  10
14.315368
  20
2.2999753
  42
0.043876924
  0
VERTEX
  5
452
  8
Layer_4
  10
14.287907
  20
2.3077994
  0
VERTEX
  5
453
  8
Layer_4
  10
14.301258
  20
2.3143739
  42
0.28281073
  0
VERTEX
  5
454
  8
Layer_4
  10
14.347914
  20
2.3970549
  42
0.34039326
  0
VERTEX
  5
455
  8
Layer_4
  10
14.289801
  20
2.4785344
  42
0.084992479
  0
VERTEX
  5
456
  8
Layer_4
  10
14.22941
  20
2.4878002
  0
VERTEX
  5
457
  8
Layer_4
  10
14.112414
  20
2.4870505
  0
SEQEND
  0
POLYLINE
  5
459
  8
Layer_4
  62
138
  66
1
  10
0
  20
0
  30
0
  0
VERTEX
  5
459
  8
Layer_4
  10
12.230359
  20
2.4405484
  0
VERTEX
  5
45a
  8
Layer_4
  10
12.234858
  20
2.4353004
  0
VERTEX
  5
45b
  8
Layer_4
  10
12.30611
  20
2.4405484
  0
VERTEX
  5
45c
  8
Layer_4
  10
12.343606
  20
2.4405484
  0
VERTEX
  5
45d
  8
Layer_4
  10
12.345105
  20
2.2260507
  0
VERTEX
  5
45e
  8
Layer_4
  10
12.342856
  20
2.1135538
  0
VERTEX
  5
45f
  8
Layer_4
  10
12.399105
  20
2.1135538
  0
VERTEX
  5
460
  8
Layer_4
  10
12.396856
  20
2.230549
  0
VERTEX
  5
461
  8
Layer_4
  10
12.399105
  20
2.4405484
  0
VERTEX
  5
462
  8
Layer_4
  10
12.43661
  20
2.4405484
  0
VERTEX
  5
463
  8
Layer_4
  10
12.506354
  20
2.4353004
  0
VERTEX
  5
464
  8
Layer_4
  10
12.510102
  20
2.4825522
  0
VERTEX
  5
465
  8
Layer_4
  10
12.507103
  20
2.4870505
  0
VERTEX
  5
466
  8
Layer_4
  10
12.234858
  20
2.4870505
  0
VERTEX
  5
467
  8
Layer_4
  10
12.230359
  20
2.4405484
  0
SEQEND
  0
POLYLINE
  5
469
  8
Layer_4
  62
138
  66
1
  10
0
  20
0
  30
0
  0
VERTEX
  5
469
  8
Layer_4
  10
10.951043
  20
2.4870505
  0
VERTEX
  5
46a
  8
Layer_4
  10
10.953292
  20
2.2260507
  0
VERTEX
  5
46b
  8
Layer_4
  10
10.951043
  20
2.1135538
  0
VERTEX
  5
46c
  8
Layer_4
  10
11.006542
  20
2.1135538
  0
VERTEX
  5
46d
  8
Layer_4
  10
11.005043
  20
2.230549
  0
VERTEX
  5
46e
  8
Layer_4
  10
11.005043
  20
2.2425542
  0
VERTEX
  5
46f
  8
Layer_4
  10
11.050795
  20
2.2425542
  42
0.12767904
  0
VERTEX
  5
470
  8
Layer_4
  10
11.139695
  20
2.2628833
  42
0.23059267
  0
VERTEX
  5
471
  8
Layer_4
  10
11.198913
  20
2.3469195
  42
0.13413147
  0
VERTEX
  5
472
  8
Layer_4
  10
11.193396
  20
2.4245159
  42
0.23663095
  0
VERTEX
  5
473
  8
Layer_4
  10
11.130986
  20
2.4805817
  42
0.075907023
  0
VERTEX
  5
474
  8
Layer_4
  10
11.078544
  20
2.4878002
  0
VERTEX
  5
475
  8
Layer_4
  10
10.951043
  20
2.4870505
  0
SEQEND
  0
POLYLINE
  5
477
  8
Layer_4
  62
138
  66
1
  10
0
  20
0
  30
0
  0
VERTEX
  5
477
  8
Layer_4
  10
11.30125
  20
2.2260507
  0
VERTEX
  5
478
  8
Layer_4
  10
11.299001
  20
2.1135538
  0
VERTEX
  5
479
  8
Layer_4
  10
11.497745
  20
2.1135538
  0
VERTEX
  5
47a
  8
Layer_4
  10
11.501494
  20
2.1555479
  0
VERTEX
  5
47b
  8
Layer_4
  10
11.498495
  20
2.1608056
  0
VERTEX
  5
47c
  8
Layer_4
  10
11.3545
  20
2.1608056
  0
VERTEX
  5
47d
  8
Layer_4
  10
11.353001
  20
2.230549
  0
VERTEX
  5
47e
  8
Layer_4
  10
11.35525
  20
2.4870505
  0
VERTEX
  5
47f
  8
Layer_4
  10
11.299001
  20
2.4870505
  0
VERTEX
  5
480
  8
Layer_4
  10
11.30125
  20
2.2260507
  0
SEQEND
  0
POLYLINE
  5
482
  8
Layer_4
  62
138
  66
1
  10
0
  20
0
  30
0
  0
VERTEX
  5
482
  8
Layer_4
  10
11.534405
  20
2.1135538
  0
VERTEX
  5
483
  8
Layer_4
  10
11.589904
  20
2.1135538
  0
VERTEX
  5
484
  8
Layer_4
  10
11.6004
  20
2.1570473
  0
VERTEX
  5
485
  8
Layer_4
  10
11.620652
  20
2.2095472
  42
-0.0089137751
  0
VERTEX
  5
486
  8
Layer_4
  10
11.789407
  20
2.2095472
  0
VERTEX
  5
487
  8
Layer_4
  10
11.8089
  20
2.1540484
  0
VERTEX
  5
488
  8
Layer_4
  10
11.817906
  20
2.1135538
  0
VERTEX
  5
489
  8
Layer_4
  10
11.874154
  20
2.1135538
  0
VERTEX
  5
48a
  8
Layer_4
  10
11.742905
  20
2.4870505
  0
VERTEX
  5
48b
  8
Layer_4
  10
11.6784
  20
2.4870505
  0
VERTEX
  5
48c
  8
Layer_4
  10
11.534405
  20
2.1135538
  0
SEQEND
  0
POLYLINE
  5
48e
  8
Layer_4
  62
138
  66
1
  10
0
  20
0
  30
0
  0
VERTEX
  5
48e
  8
Layer_4
  10
14.83607
  20
2.2260507
  0
VERTEX
  5
48f
  8
Layer_4
  10
14.833821
  20
2.1135538
  0
VERTEX
  5
490
  8
Layer_4
  10
15.061064
  20
2.1135538
  0
VERTEX
  5
491
  8
Layer_4
  10
15.066322
  20
2.1570473
  0
VERTEX
  5
492
  8
Layer_4
  10
15.061814
  20
2.1615553
  0
VERTEX
  5
493
  8
Layer_4
  10
14.962072
  20
2.1585468
  0
VERTEX
  5
494
  8
Layer_4
  10
14.88857
  20
2.1592965
  42
-0.012610925
  0
VERTEX
  5
495
  8
Layer_4
  10
14.88857
  20
2.2815494
  0
VERTEX
  5
496
  8
Layer_4
  10
14.958314
  20
2.2822992
  0
VERTEX
  5
497
  8
Layer_4
  10
15.027317
  20
2.28005
  0
VERTEX
  5
498
  8
Layer_4
  10
15.031815
  20
2.3243029
  0
VERTEX
  5
499
  8
Layer_4
  10
15.028067
  20
2.329551
  0
VERTEX
  5
49a
  8
Layer_4
  10
14.962822
  20
2.3273018
  0
VERTEX
  5
49b
  8
Layer_4
  10
14.88857
  20
2.3280515
  0
VERTEX
  5
49c
  8
Layer_4
  10
14.88932
  20
2.4412982
  0
VERTEX
  5
49d
  8
Layer_4
  10
14.96732
  20
2.4420479
  0
VERTEX
  5
49e
  8
Layer_4
  10
15.061814
  20
2.439049
  0
VERTEX
  5
49f
  8
Layer_4
  10
15.066322
  20
2.4825522
  0
VERTEX
  5
4a0
  8
Layer_4
  10
15.062564
  20
2.4870505
  0
VERTEX
  5
4a1
  8
Layer_4
  10
14.833821
  20
2.4870505
  0
VERTEX
  5
4a2
  8
Layer_4
  10
14.83607
  20
2.2260507
  0
SEQEND
  0
POLYLINE
  5
4a4
  8
Layer_4
  62
138
  66
1
  10
0
  20
0
  30
0
  0
VERTEX
  5
4a4
  8
Layer_4
  10
9.6341352
  20
2.4450468
  0
VERTEX
  5
4a5
  8
Layer_4
  10
9.6341352
  20
2.3978046
  0
VERTEX
  5
4a6
  8
Layer_4
  10
9.640133
  20
2.3948057
  0
VERTEX
  5
4a7
  8
Layer_4
  10
9.7368858
  20
2.4218054
  0
VERTEX
  5
4a8
  8
Layer_4
  10
9.7376355
  20
2.2612973
  0
VERTEX
  5
4a9
  8
Layer_4
  10
9.7338869
  20
2.1135538
  0
VERTEX
  5
4aa
  8
Layer_4
  10
9.7938839
  20
2.1135538
  0
VERTEX
  5
4ab
  8
Layer_4
  10
9.7908851
  20
2.2688041
  0
VERTEX
  5
4ac
  8
Layer_4
  10
9.7946337
  20
2.4840516
  0
VERTEX
  5
4ad
  8
Layer_4
  10
9.785637
  20
2.4900494
  0
VERTEX
  5
4ae
  8
Layer_4
  10
9.6341352
  20
2.4450468
  0
SEQEND
  0
POLYLINE
  5
4b0
  8
Layer_4
  62
138
  66
1
  10
0
  20
0
  30
0
  0
VERTEX
  5
4b0
  8
Layer_4
  10
12.60376
  20
2.2260507
  0
VERTEX
  5
4b1
  8
Layer_4
  10
12.601511
  20
2.1135538
  0
VERTEX
  5
4b2
  8
Layer_4
  10
12.65701
  20
2.1135538
  0
VERTEX
  5
4b3
  8
Layer_4
  10
12.65551
  20
2.230549
  0
VERTEX
  5
4b4
  8
Layer_4
  10
12.657759
  20
2.4870505
  0
VERTEX
  5
4b5
  8
Layer_4
  10
12.601511
  20
2.4870505
  0
VERTEX
  5
4b6
  8
Layer_4
  10
12.60376
  20
2.2260507
  0
SEQEND
  0
POLYLINE
  5
4b8
  8
Layer_4
  62
138
  66
1
  10
0
  20
0
  30
0
  0
VERTEX
  5
4b8
  8
Layer_4
  10
14.610096
  20
2.2816456
  42
-0.15454166
  0
VERTEX
  5
4b9
  8
Layer_4
  10
14.66003
  20
2.2592019
  42
-0.25007906
  0
VERTEX
  5
4ba
  8
Layer_4
  10
14.672438
  20
2.2052315
  42
-0.258401
  0
VERTEX
  5
4bb
  8
Layer_4
  10
14.63376
  20
2.1635065
  42
-0.10533688
  0
VERTEX
  5
4bc
  8
Layer_4
  10
14.551868
  20
2.1546155
  42
-0.01158303
  0
VERTEX
  5
4bd
  8
Layer_4
  10
14.527867
  20
2.1562976
  42
-0.017340735
  0
VERTEX
  5
4be
  8
Layer_4
  10
14.527117
  20
2.2822992
  0
VERTEX
  5
4bf
  8
Layer_4
  10
14.601369
  20
2.2830489
  0
VERTEX
  5
4c0
  8
Layer_4
  10
14.610096
  20
2.2816456
  0
SEQEND
  0
POLYLINE
  5
4c2
  8
Layer_4
  62
138
  66
1
  10
0
  20
0
  30
0
  0
VERTEX
  5
4c2
  8
Layer_4
  10
14.249393
  20
2.2816456
  42
-0.15453597
  0
VERTEX
  5
4c3
  8
Layer_4
  10
14.299326
  20
2.2592019
  42
-0.25009181
  0
VERTEX
  5
4c4
  8
Layer_4
  10
14.311735
  20
2.2052315
  42
-0.2583853
  0
VERTEX
  5
4c5
  8
Layer_4
  10
14.273057
  20
2.1635065
  42
-0.10533847
  0
VERTEX
  5
4c6
  8
Layer_4
  10
14.191164
  20
2.1546155
  42
-0.011590246
  0
VERTEX
  5
4c7
  8
Layer_4
  10
14.167163
  20
2.1562976
  42
-0.017340735
  0
VERTEX
  5
4c8
  8
Layer_4
  10
14.166414
  20
2.2822992
  0
VERTEX
  5
4c9
  8
Layer_4
  10
14.240665
  20
2.2830489
  0
VERTEX
  5
4ca
  8
Layer_4
  10
14.249393
  20
2.2816456
  0
SEQEND
  0
POLYLINE
  5
4cc
  8
Layer_4
  62
138
  66
1
  10
0
  20
0
  30
0
  0
VERTEX
  5
4cc
  8
Layer_4
  10
9.2694045
  20
2.4362423
  0
VERTEX
  5
4cd
  8
Layer_4
  10
9.2824766
  20
2.4345603
  42
-0.27902908
  0
VERTEX
  5
4ce
  8
Layer_4
  10
9.3607554
  20
2.3697092
  42
-0.16395832
  0
VERTEX
  5
4cf
  8
Layer_4
  10
9.3609284
  20
2.2252721
  42
-0.27718669
  0
VERTEX
  5
4d0
  8
Layer_4
  10
9.2831879
  20
2.1629682
  42
-0.13244246
  0
VERTEX
  5
4d1
  8
Layer_4
  10
9.2059087
  20
2.16961
  42
-0.2149007
  0
VERTEX
  5
4d2
  8
Layer_4
  10
9.1521113
  20
2.2268293
  42
-0.15986422
  0
VERTEX
  5
4d3
  8
Layer_4
  10
9.1520921
  20
2.3715931
  42
-0.28089811
  0
VERTEX
  5
4d4
  8
Layer_4
  10
9.2288041
  20
2.4346275
  42
-0.061058175
  0
VERTEX
  5
4d5
  8
Layer_4
  10
9.2694045
  20
2.4362423
  0
SEQEND
  0
POLYLINE
  5
4d7
  8
Layer_4
  62
138
  66
1
  10
0
  20
0
  30
0
  0
VERTEX
  5
4d7
  8
Layer_4
  10
8.7304785
  20
2.3430556
  0
VERTEX
  5
4d8
  8
Layer_4
  10
8.7252304
  20
2.3362985
  0
VERTEX
  5
4d9
  8
Layer_4
  10
8.7252304
  20
2.2875472
  0
VERTEX
  5
4da
  8
Layer_4
  10
9.0124801
  20
2.1735509
  0
VERTEX
  5
4db
  8
Layer_4
  10
9.0192277
  20
2.1772995
  0
VERTEX
  5
4dc
  8
Layer_4
  10
9.0282339
  20
2.2117964
  0
VERTEX
  5
4dd
  8
Layer_4
  10
8.7717325
  20
2.3107983
  0
VERTEX
  5
4de
  8
Layer_4
  10
8.7717325
  20
2.3152966
  0
VERTEX
  5
4df
  8
Layer_4
  10
9.0267345
  20
2.4210556
  0
VERTEX
  5
4e0
  8
Layer_4
  10
9.0297334
  20
2.4263037
  0
VERTEX
  5
4e1
  8
Layer_4
  10
9.0162288
  20
2.4608006
  0
VERTEX
  5
4e2
  8
Layer_4
  10
8.7304785
  20
2.3430556
  0
SEQEND
  0
POLYLINE
  5
4e4
  8
Layer_4
  62
138
  66
1
  10
0
  20
0
  30
0
  0
VERTEX
  5
4e4
  8
Layer_4
  10
11.711407
  20
2.4323015
  0
VERTEX
  5
4e5
  8
Layer_4
  10
11.773653
  20
2.2552995
  42
-0.011114281
  0
VERTEX
  5
4e6
  8
Layer_4
  10
11.638655
  20
2.2552995
  0
VERTEX
  5
4e7
  8
Layer_4
  10
11.706899
  20
2.4323015
  0
VERTEX
  5
4e8
  8
Layer_4
  10
11.711407
  20
2.4323015
  0
SEQEND
  0
POLYLINE
  5
4ea
  8
Layer_4
  62
138
  66
1
  10
0
  20
0
  30
0
  0
VERTEX
  5
4ea
  8
Layer_4
  10
11.073085
  20
2.4429033
  0
VERTEX
  5
4eb
  8
Layer_4
  10
11.082033
  20
2.4417787
  42
-0.17726046
  0
VERTEX
  5
4ec
  8
Layer_4
  10
11.127661
  20
2.420181
  42
-0.18549521
  0
VERTEX
  5
4ed
  8
Layer_4
  10
11.14304
  20
2.3723044
  42
-0.18402407
  0
VERTEX
  5
4ee
  8
Layer_4
  10
11.1242
  20
2.3137106
  42
-0.17558918
  0
VERTEX
  5
4ef
  8
Layer_4
  10
11.068798
  20
2.2860478
  0
VERTEX
  5
4f0
  8
Layer_4
  10
11.005792
  20
2.2875472
  0
VERTEX
  5
4f1
  8
Layer_4
  10
11.006542
  20
2.4427976
  0
VERTEX
  5
4f2
  8
Layer_4
  10
11.06354
  20
2.4435473
  0
VERTEX
  5
4f3
  8
Layer_4
  10
11.073085
  20
2.4429033
  0
SEQEND
  0
POLYLINE
  5
4f5
  8
Layer_4
  62
138
  66
1
  10
0
  20
0
  30
0
  0
VERTEX
  5
4f5
  8
Layer_4
  10
13.466566
  20
2.4421632
  42
-0.15387793
  0
VERTEX
  5
4f6
  8
Layer_4
  10
13.516087
  20
2.425083
  42
-0.20708835
  0
VERTEX
  5
4f7
  8
Layer_4
  10
13.535474
  20
2.3834541
  42
-0.22442203
  0
VERTEX
  5
4f8
  8
Layer_4
  10
13.514241
  20
2.317738
  42
-0.13186461
  0
VERTEX
  5
4f9
  8
Layer_4
  10
13.469027
  20
2.2935546
  0
VERTEX
  5
4fa
  8
Layer_4
  10
13.398524
  20
2.2958038
  0
VERTEX
  5
4fb
  8
Layer_4
  10
13.399274
  20
2.4420479
  0
VERTEX
  5
4fc
  8
Layer_4
  10
13.457031
  20
2.4427976
  0
VERTEX
  5
4fd
  8
Layer_4
  10
13.466566
  20
2.4421632
  0
SEQEND
  0
POLYLINE
  5
4ff
  8
Layer_4
  62
138
  66
1
  10
0
  20
0
  30
0
  0
VERTEX
  5
4ff
  8
Layer_4
  10
15.282857
  20
2.4421632
  42
-0.15387765
  0
VERTEX
  5
500
  8
Layer_4
  10
15.332378
  20
2.425083
  42
-0.23061908
  0
VERTEX
  5
501
  8
Layer_4
  10
15.352063
  20
2.3753033
  42
-0.33446214
  0
VERTEX
  5
502
  8
Layer_4
  10
15.300678
  20
2.2987258
  0
VERTEX
  5
503
  8
Layer_4
  10
15.285318
  20
2.2935546
  0
VERTEX
  5
504
  8
Layer_4
  10
15.214815
  20
2.2958038
  0
VERTEX
  5
505
  8
Layer_4
  10
15.215565
  20
2.4420479
  0
VERTEX
  5
506
  8
Layer_4
  10
15.273313
  20
2.4427976
  0
VERTEX
  5
507
  8
Layer_4
  10
15.282857
  20
2.4421632
  0
SEQEND
  0
POLYLINE
  5
509
  8
Layer_4
  62
138
  66
1
  10
0
  20
0
  30
0
  0
VERTEX
  5
509
  8
Layer_4
  10
14.212916
  20
2.4435473
  42
-0.12135377
  0
VERTEX
  5
50a
  8
Layer_4
  10
14.265521
  20
2.4340028
  42
-0.2978837
  0
VERTEX
  5
50b
  8
Layer_4
  10
14.288657
  20
2.3902978
  42
-0.18883173
  0
VERTEX
  5
50c
  8
Layer_4
  10
14.274412
  20
2.3468042
  42
-0.16162918
  0
VERTEX
  5
50d
  8
Layer_4
  10
14.233158
  20
2.3258023
  0
VERTEX
  5
50e
  8
Layer_4
  10
14.166414
  20
2.3280515
  0
VERTEX
  5
50f
  8
Layer_4
  10
14.167163
  20
2.4435473
  0
VERTEX
  5
510
  8
Layer_4
  10
14.212916
  20
2.4435473
  0
SEQEND
  0
POLYLINE
  5
512
  8
Layer_4
  62
138
  66
1
  10
0
  20
0
  30
0
  0
VERTEX
  5
512
  8
Layer_4
  10
14.573619
  20
2.4435473
  42
-0.12134996
  0
VERTEX
  5
513
  8
Layer_4
  10
14.626225
  20
2.4340028
  42
-0.2978855
  0
VERTEX
  5
514
  8
Layer_4
  10
14.64936
  20
2.3902978
  42
-0.1888422
  0
VERTEX
  5
515
  8
Layer_4
  10
14.635116
  20
2.3468042
  42
-0.16163159
  0
VERTEX
  5
516
  8
Layer_4
  10
14.593862
  20
2.3258023
  0
VERTEX
  5
517
  8
Layer_4
  10
14.527117
  20
2.3280515
  0
VERTEX
  5
518
  8
Layer_4
  10
14.527867
  20
2.4435473
  0
VERTEX
  5
519
  8
Layer_4
  10
14.573619
  20
2.4435473
  0
SEQEND
  0
POLYLINE
  5
51b
  8
Layer_4
  62
138
  66
1
  10
0
  20
0
  30
0
  0
VERTEX
  5
51b
  8
Layer_4
  10
10.666792
  20
2.4833019
  0
VERTEX
  5
51c
  8
Layer_4
  10
10.663794
  20
2.3453047
  0
VERTEX
  5
51d
  8
Layer_4
  10
10.668292
  20
2.3400471
  0
VERTEX
  5
51e
  8
Layer_4
  10
10.69904
  20
2.344555
  0
VERTEX
  5
51f
  8
Layer_4
  10
10.717043
  20
2.4818024
  0
VERTEX
  5
520
  8
Layer_4
  10
10.712545
  20
2.4870505
  0
VERTEX
  5
521
  8
Layer_4
  10
10.666792
  20
2.4833019
  0
SEQEND
  0
POLYLINE
  5
523
  8
Layer_4
  62
138
  70
1
  66
1
  10
0
  20
0
  30
0
  0
VERTEX
  5
523
  8
Layer_4
  10
10.581295
  20
2.4833019
  0
VERTEX
  5
524
  8
Layer_4
  10
10.577547
  20
2.3453047
  0
VERTEX
  5
525
  8
Layer_4
  10
10.582795
  20
2.3400471
  0
VERTEX
  5
526
  8
Layer_4
  10
10.613543
  20
2.344555
  0
VERTEX
  5
527
  8
Layer_4
  10
10.631546
  20
2.4818024
  0
VERTEX
  5
528
  8
Layer_4
  10
10.627047
  20
2.4870505
  0
SEQEND
  0
CIRCLE
  5
52a
  8
Layer_3
  62
3
  10
30.568071
  20
2.3720472
  30
0
  40
0.13
  0
POLYLINE
  5
52a
  8
Layer_3
  62
3
  66
1
  10
0
  20
0
  30
0
  0
VERTEX
  5
52a
  8
Layer_3
  10
30.568071
  20
2.1220458
  0
VERTEX
  5
52b
  8
Layer_3
  10
34.183071
  20
2.3720449
  0
VERTEX
  5
52c
  8
Layer_3
  10
34.433071
  20
2.6220463
  0
VERTEX
  5
52d
  8
Layer_3
  10
30.568071
  20
2.6220463
  42
0.2803226
  0
VERTEX
  5
52e
  8
Layer_3
  10
30.346043
  20
2.486952
  42
0.28032176
  0
VERTEX
  5
52f
  8
Layer_3
  10
30.363973
  20
2.2276727
  42
0.28032113
  0
VERTEX
  5
530
  8
Layer_3
  10
30.602485
  20
2.1244248
  0
SEQEND
  0
CIRCLE
  5
532
  8
Layer_3
  62
3
  10
34.183071
  20
1.9970367
  30
0
  40
0.13
  0
POLYLINE
  5
532
  8
Layer_3
  62
3
  66
1
  10
0
  20
0
  30
0
  0
VERTEX
  5
532
  8
Layer_3
  10
34.183072
  20
2.2470381
  0
VERTEX
  5
533
  8
Layer_3
  10
30.568072
  20
1.9970391
  0
VERTEX
  5
534
  8
Layer_3
  10
30.318072
  20
1.7470377
  0
VERTEX
  5
535
  8
Layer_3
  10
34.183072
  20
1.7470377
  42
0.2803226
  0
VERTEX
  5
536
  8
Layer_3
  10
34.4051
  20
1.882132
  42
0.28032176
  0
VERTEX
  5
537
  8
Layer_3
  10
34.387169
  20
2.1414113
  42
0.28032113
  0
VERTEX
  5
538
  8
Layer_3
  10
34.148658
  20
2.2446568
  0
SEQEND
  0
CIRCLE
  5
53a
  8
Layer_1
  62
5
  10
32.568073
  20
11.882046
  30
0
  40
0.13
  0
CIRCLE
  5
53a
  8
Layer_1
  62
5
  10
20.608072
  20
11.872046
  30
0
  40
0.13
  0
POLYLINE
  5
53a
  8
Layer_1
  62
5
  66
1
  10
0
  20
0
  30
0
  0
VERTEX
  5
53a
  8
Layer_1
  10
19.933071
  20
12.122047
  0
VERTEX
  5
53b
  8
Layer_1
  10
19.933071
  20
11.372046
  0
VERTEX
  5
53c
  8
Layer_1
  10
34.433071
  20
11.372046
  0
VERTEX
  5
53d
  8
Layer_1
  10
34.433071
  20
12.122047
  0
VERTEX
  5
53e
  8
Layer_1
  10
32.183071
  20
12.372047
  0
VERTEX
  5
53f
  8
Layer_1
  10
20.183071
  20
12.372047
  42
0.41421492
  0
VERTEX
  5
540
  8
Layer_1
  10
19.933071
  20
12.122047
  0
SEQEND
  0
POLYLINE
  5
542
  8
Layer_1
  62
5
  66
1
  10
0
  20
0
  30
0
  0
VERTEX
  5
542
  8
Layer_1
  10
21.308071
  20
12.002047
  0
VERTEX
  5
543
  8
Layer_1
  10
31.058071
  20
12.002047
  42
-0.4142136
  0
VERTEX
  5
544
  8
Layer_1
  10
31.183071
  20
11.877047
  0
VERTEX
  5
545
  8
Layer_1
  10
31.183071
  20
11.867046
  42
-0.4142136
  0
VERTEX
  5
546
  8
Layer_1
  10
31.058071
  20
11.742047
  0
VERTEX
  5
547
  8
Layer_1
  10
21.308071
  20
11.742047
  42
-0.41421695
  0
VERTEX
  5
548
  8
Layer_1
  10
21.183071
  20
11.867046
  0
VERTEX
  5
549
  8
Layer_1
  10
21.183071
  20
11.877047
  42
-0.41421424
  0
VERTEX
  5
54a
  8
Layer_1
  10
21.308071
  20
12.002047
  0
SEQEND
  0
CIRCLE
  5
54c
  8
Layer_1
  62
5
  10
32.568073
  20
13.132046
  30
0
  40
0.13
  0
CIRCLE
  5
54c
  8
Layer_1
  62
5
  10
20.608072
  20
13.122047
  30
0
  40
0.13
  0
POLYLINE
  5
54c
  8
Layer_1
  62
5
  66
1
  10
0
  20
0
  30
0
  0
VERTEX
  5
54c
  8
Layer_1
  10
19.933071
  20
13.372047
  0
VERTEX
  5
54d
  8
Layer_1
  10
19.933071
  20
12.622046
  0
VERTEX
  5
54e
  8
Layer_1
  10
34.433071
  20
12.622046
  0
VERTEX
  5
54f
  8
Layer_1
  10
34.433071
  20
13.372047
  0
VERTEX
  5
550
  8
Layer_1
  10
32.183071
  20
13.622047
  0
VERTEX
  5
551
  8
Layer_1
  10
20.183071
  20
13.622047
  42
0.41421492
  0
VERTEX
  5
552
  8
Layer_1
  10
19.933071
  20
13.372047
  0
SEQEND
  0
POLYLINE
  5
554
  8
Layer_1
  62
5
  66
1
  10
0
  20
0
  30
0
  0
VERTEX
  5
554
  8
Layer_1
  10
21.308071
  20
13.252047
  0
VERTEX
  5
555
  8
Layer_1
  10
31.058071
  20
13.252047
  42
-0.4142136
  0
VERTEX
  5
556
  8
Layer_1
  10
31.183071
  20
13.127048
  0
VERTEX
  5
557
  8
Layer_1
  10
31.183071
  20
13.117046
  42
-0.4142136
  0
VERTEX
  5
558
  8
Layer_1
  10
31.058071
  20
12.992047
  0
VERTEX
  5
559
  8
Layer_1
  10
21.308071
  20
12.992047
  42
-0.41421695
  0
VERTEX
  5
55a
  8
Layer_1
  10
21.183071
  20
13.117046
  0
VERTEX
  5
55b
  8
Layer_1
  10
21.183071
  20
13.127048
  42
-0.41421424
  0
VERTEX
  5
55c
  8
Layer_1
  10
21.308071
  20
13.252047
  0
SEQEND
  0
CIRCLE
  5
55e
  8
Layer_1
  62
5
  10
32.568073
  20
10.612048
  30
0
  40
0.13
  0
CIRCLE
  5
55e
  8
Layer_1
  62
5
  10
20.608072
  20
10.622046
  30
0
  40
0.13
  0
POLYLINE
  5
55e
  8
Layer_1
  62
5
  66
1
  10
0
  20
0
  30
0
  0
VERTEX
  5
55e
  8
Layer_1
  10
19.933071
  20
10.372047
  0
VERTEX
  5
55f
  8
Layer_1
  10
19.933071
  20
11.122047
  0
VERTEX
  5
560
  8
Layer_1
  10
34.433071
  20
11.122047
  0
VERTEX
  5
561
  8
Layer_1
  10
34.433071
  20
10.372047
  0
VERTEX
  5
562
  8
Layer_1
  10
32.183071
  20
10.122046
  0
VERTEX
  5
563
  8
Layer_1
  10
20.183071
  20
10.122046
  42
-0.41421492
  0
VERTEX
  5
564
  8
Layer_1
  10
19.933071
  20
10.372047
  0
SEQEND
  0
POLYLINE
  5
566
  8
Layer_1
  62
5
  66
1
  10
0
  20
0
  30
0
  0
VERTEX
  5
566
  8
Layer_1
  10
21.308071
  20
10.492047
  0
VERTEX
  5
567
  8
Layer_1
  10
31.058071
  20
10.492047
  42
0.4142136
  0
VERTEX
  5
568
  8
Layer_1
  10
31.183071
  20
10.617046
  0
VERTEX
  5
569
  8
Layer_1
  10
31.183071
  20
10.627047
  42
0.4142136
  0
VERTEX
  5
56a
  8
Layer_1
  10
31.058071
  20
10.752047
  0
VERTEX
  5
56b
  8
Layer_1
  10
21.308071
  20
10.752047
  42
0.41421695
  0
VERTEX
  5
56c
  8
Layer_1
  10
21.183071
  20
10.627047
  0
VERTEX
  5
56d
  8
Layer_1
  10
21.183071
  20
10.617046
  42
0.41421424
  0
VERTEX
  5
56e
  8
Layer_1
  10
21.308071
  20
10.492047
  0
SEQEND
  0
CIRCLE
  5
570
  8
Layer_1
  62
5
  10
32.568073
  20
9.3620481
  30
0
  40
0.13
  0
CIRCLE
  5
570
  8
Layer_1
  62
5
  10
20.608072
  20
9.3720465
  30
0
  40
0.13
  0
POLYLINE
  5
570
  8
Layer_1
  62
5
  66
1
  10
0
  20
0
  30
0
  0
VERTEX
  5
570
  8
Layer_1
  10
19.933071
  20
9.1220467
  0
VERTEX
  5
571
  8
Layer_1
  10
19.933071
  20
9.8720474
  0
VERTEX
  5
572
  8
Layer_1
  10
34.433071
  20
9.8720474
  0
VERTEX
  5
573
  8
Layer_1
  10
34.433071
  20
9.1220467
  0
VERTEX
  5
574
  8
Layer_1
  10
32.183071
  20
8.8720464
  0
VERTEX
  5
575
  8
Layer_1
  10
20.183071
  20
8.8720464
  42
-0.41421492
  0
VERTEX
  5
576
  8
Layer_1
  10
19.933071
  20
9.1220467
  0
SEQEND
  0
POLYLINE
  5
578
  8
Layer_1
  62
5
  66
1
  10
0
  20
0
  30
0
  0
VERTEX
  5
578
  8
Layer_1
  10
21.308071
  20
9.2420468
  0
VERTEX
  5
579
  8
Layer_1
  10
31.058071
  20
9.2420468
  42
0.4142136
  0
VERTEX
  5
57a
  8
Layer_1
  10
31.183071
  20
9.3670463
  0
VERTEX
  5
57b
  8
Layer_1
  10
31.183071
  20
9.3770475
  42
0.4142136
  0
VERTEX
  5
57c
  8
Layer_1
  10
31.058071
  20
9.502047
  0
VERTEX
  5
57d
  8
Layer_1
  10
21.308071
  20
9.502047
  42
0.41421695
  0
VERTEX
  5
57e
  8
Layer_1
  10
21.183071
  20
9.3770475
  0
VERTEX
  5
57f
  8
Layer_1
  10
21.183071
  20
9.3670463
  42
0.41421424
  0
VERTEX
  5
580
  8
Layer_1
  10
21.308071
  20
9.2420468
  0
SEQEND
  0
CIRCLE
  5
582
  8
Layer_2
  62
1
  10
20.608072
  20
6.1220474
  30
0
  40
0.13
  0
POLYLINE
  5
582
  8
Layer_2
  62
1
  66
1
  10
0
  20
0
  30
0
  0
VERTEX
  5
582
  8
Layer_2
  10
19.933072
  20
6.3720476
  0
VERTEX
  5
583
  8
Layer_2
  10
19.933072
  20
5.6220468
  0
VERTEX
  5
584
  8
Layer_2
  10
34.433072
  20
5.6220468
  0
VERTEX
  5
585
  8
Layer_2
  10
34.433072
  20
5.8720471
  0
VERTEX
  5
586
  8
Layer_2
  10
32.443072
  20
5.8720471
  0
VERTEX
  5
587
  8
Layer_2
  10
32.422631
  20
5.8723463
  42
-0.12371008
  0
VERTEX
  5
588
  8
Layer_2
  10
32.104882
  20
5.9637152
  42
-0.048243128
  0
VERTEX
  5
589
  8
Layer_2
  10
31.907139
  20
6.1052507
  42
-0.01168785
  0
VERTEX
  5
58a
  8
Layer_2
  10
31.719487
  20
6.2760698
  0
VERTEX
  5
58b
  8
Layer_2
  10
31.688345
  20
6.3049257
  42
0.030785296
  0
VERTEX
  5
58c
  8
Layer_2
  10
31.497123
  20
6.4653845
  42
0.074871934
  0
VERTEX
  5
58d
  8
Layer_2
  10
31.271846
  20
6.5866402
  42
0.08371316
  0
VERTEX
  5
58e
  8
Layer_2
  10
31.058072
  20
6.6220478
  0
VERTEX
  5
58f
  8
Layer_2
  10
20.183072
  20
6.6220478
  42
0.41421492
  0
VERTEX
  5
590
  8
Layer_2
  10
19.933072
  20
6.3720476
  0
SEQEND
  0
POLYLINE
  5
592
  8
Layer_2
  62
1
  66
1
  10
0
  20
0
  30
0
  0
VERTEX
  5
592
  8
Layer_2
  10
31.058072
  20
5.9920473
  0
VERTEX
  5
593
  8
Layer_2
  10
21.308073
  20
5.9920473
  42
-0.41421695
  0
VERTEX
  5
594
  8
Layer_2
  10
21.183072
  20
6.1170468
  0
VERTEX
  5
595
  8
Layer_2
  10
21.183072
  20
6.1270479
  42
-0.41421424
  0
VERTEX
  5
596
  8
Layer_2
  10
21.308073
  20
6.2520474
  0
VERTEX
  5
597
  8
Layer_2
  10
31.058072
  20
6.2520474
  42
-0.4142136
  0
VERTEX
  5
598
  8
Layer_2
  10
31.183072
  20
6.1270479
  0
VERTEX
  5
599
  8
Layer_2
  10
31.183072
  20
6.1170468
  42
-0.4142136
  0
VERTEX
  5
59a
  8
Layer_2
  10
31.058072
  20
5.9920473
  0
SEQEND
  0
CIRCLE
  5
59c
  8
Layer_2
  62
1
  10
20.608072
  20
4.8720474
  30
0
  40
0.13
  0
POLYLINE
  5
59c
  8
Layer_2
  62
1
  66
1
  10
0
  20
0
  30
0
  0
VERTEX
  5
59c
  8
Layer_2
  10
19.933072
  20
4.6220471
  0
VERTEX
  5
59d
  8
Layer_2
  10
19.933072
  20
5.3720478
  0
VERTEX
  5
59e
  8
Layer_2
  10
34.433072
  20
5.3720478
  0
VERTEX
  5
59f
  8
Layer_2
  10
34.433072
  20
5.1220476
  0
VERTEX
  5
5a0
  8
Layer_2
  10
32.443072
  20
5.1220476
  0
VERTEX
  5
5a1
  8
Layer_2
  10
32.422631
  20
5.1217484
  42
0.12370974
  0
VERTEX
  5
5a2
  8
Layer_2
  10
32.104882
  20
5.0303795
  42
0.048242054
  0
VERTEX
  5
5a3
  8
Layer_2
  10
31.907138
  20
4.888844
  42
0.011687268
  0
VERTEX
  5
5a4
  8
Layer_2
  10
31.719487
  20
4.7180249
  0
VERTEX
  5
5a5
  8
Layer_2
  10
31.688345
  20
4.6891689
  42
-0.030785918
  0
VERTEX
  5
5a6
  8
Layer_2
  10
31.497123
  20
4.5287101
  42
-0.074871934
  0
VERTEX
  5
5a7
  8
Layer_2
  10
31.271846
  20
4.4074544
  42
-0.08371316
  0
VERTEX
  5
5a8
  8
Layer_2
  10
31.058072
  20
4.3720468
  0
VERTEX
  5
5a9
  8
Layer_2
  10
20.183072
  20
4.3720468
  42
-0.41421492
  0
VERTEX
  5
5aa
  8
Layer_2
  10
19.933072
  20
4.6220471
  0
SEQEND
  0
POLYLINE
  5
5ac
  8
Layer_2
  62
1
  66
1
  10
0
  20
0
  30
0
  0
VERTEX
  5
5ac
  8
Layer_2
  10
31.058072
  20
5.0020474
  0
VERTEX
  5
5ad
  8
Layer_2
  10
21.308073
  20
5.0020474
  42
0.41421695
  0
VERTEX
  5
5ae
  8
Layer_2
  10
21.183072
  20
4.8770479
  0
VERTEX
  5
5af
  8
Layer_2
  10
21.183072
  20
4.8670468
  42
0.41421424
  0
VERTEX
  5
5b0
  8
Layer_2
  10
21.308073
  20
4.7420472
  0
VERTEX
  5
5b1
  8
Layer_2
  10
31.058072
  20
4.7420472
  42
0.4142136
  0
VERTEX
  5
5b2
  8
Layer_2
  10
31.183072
  20
4.8670468
  0
VERTEX
  5
5b3
  8
Layer_2
  10
31.183072
  20
4.8770479
  42
0.4142136
  0
VERTEX
  5
5b4
  8
Layer_2
  10
31.058072
  20
5.0020474
  0
SEQEND
  0
ENDSEC
  0
EOF
