<svg viewBox="0 0 1152 1024" xmlns="http://www.w3.org/2000/svg"><path d="M0 497.539v-14.486c56.46-47.911 126.202-114.761 178.232-171.586l26.568 17.827c-29.887 53.485-73.061 111.421-115.129 154.876 66.423 83.565 69.742 88.026 112.916 159.337l-24.355 17.827c-24.355-25.624-35.424-37.886-69.742-69.078-39.854-37.891-35.429-32.322-92.991-81.346L0 497.54v-.001zm225.933 259l47.297-23.643c88.676 134.465 229.086 227.557 341.411 227.557 107.893 0 184.753-76.84 184.753-186.183 0-107.864-62.078-162.536-240.913-211.296-212.828-57.63-294.119-135.944-294.119-288.136C264.362 122.642 382.6 0 527.442 0c39.907 0 36.948 0 130.065 28.075 13.299 4.433 31.039 7.391 38.425 7.391 10.345 0 25.126-4.433 38.43-10.345L784.609.004l91.635 255.628-47.297 31.029C743.225 144.809 633.854 63.537 527.443 63.537c-93.113 0-162.577 69.449-162.577 164.02 0 93.087 63.555 153.675 195.093 187.658 63.555 16.256 109.371 29.555 131.542 35.462 133.019 39.894 212.833 144.81 212.833 276.317C904.334 893.967 775.751 1024 613.17 1024c-50.252 0-75.377-5.912-137.451-33.987-26.603-11.824-42.861-16.252-53.206-16.252-14.781 0-25.126 4.433-42.861 14.777L323.492 1024l-97.558-267.461h-.001zm724.653-113.028c43.175-72.429 45.388-75.769 111.812-159.339-42.068-43.455-85.243-101.393-115.131-154.878l27.671-17.827c50.929 56.826 118.455 121.448 177.129 171.588v14.487l-56.461 46.796c-21.032 17.832-81.919 75.769-121.77 116.996l-23.249-17.822-.001-.001z"/></svg>