<svg xmlns="http://www.w3.org/2000/svg" viewBox="0 0 20 20">
  <path d="M19.5 0h-5c-.276 0-.5.224-.5.5s.224.5.5.5h3.833L7.147 12.146c-.196.195-.196.51 0 .707.097.098.225.147.353.147s.255-.05.353-.146L19 1.747V5.5c0 .276.224.5.5.5s.5-.224.5-.5v-5c0-.276-.224-.5-.5-.5z"/>
  <path d="M16.5 20h-15C.673 20 0 19.327 0 18.5v-15C0 2.673.673 2 1.5 2h10c.276 0 .5.224.5.5s-.224.5-.5.5h-10c-.276 0-.5.224-.5.5v15c0 .276.224.5.5.5h15c.276 0 .5-.224.5-.5v-10c0-.276.224-.5.5-.5s.5.224.5.5v10c0 .827-.673 1.5-1.5 1.5z"/>
</svg>
