<svg xmlns="http://www.w3.org/2000/svg" viewBox="0 0 456.5 456.5">
  <path d="M397.8 368.5c-7.6-1.8-14.8-5.8-22-8.7-8.1-3.2-17.1-4.7-24.8-8.1-12.3-5.4-23.4-14.1-34.7-21.3-4.5-2.9-13.2-4.7-13.2-10.1 0-6.1 9.2-15.5 11.7-21.5 6.7-15.8 10.4-34.3 12.4-51.3 4.1 3-1.9 22.6-3.1 28.3s-3.7 17-5.1 22.7c-.6 2.4-2.6 4.3-2.5 6 .2 3.5 5.1 8.9 8.5 11 2.2 1.4 13.6-18.3 12.8-21.3-2.7-9.5-4.2-30.5-3.8-43.9.1-3.8 7-3.9 7.7-16.9.6-10.7 1.2-25.1 10.7-29.7 11.4-5.6 11.4-10.8 19.6-14 3.6-1.4 10.6-.7 13.9-1 8.3-.7.5-8.5-5.2-14.2-3.6-3.7-9.3-10.4-7.2-13.4 2.4-3.6 8.9 1.2 7.9-5.7-.6-4.3-11.9-14.4-14.4-19.1-13.5-25.1-14.6-54.3-25.6-80.1-8.9-20.7-32.5-43.4-56.4-44.1-6.2-.2-12.4 2.1-18.1 3.2-6.5 1.2-13.5-2.6-16.4-3.7-15.9-6.7-33.3-9-50.4-6.7-28.2 4.1-52.9 21.4-69.5 44.2-15.1 20.7-25.7 48.1-35.5 71.8-8 19.4-15.8 48.4-10.9 69.1 1.6 6.5 6.3 12 7.5 18.2.9 4.7 0 9.9.6 14.7 1.7 15 11.2 26 12.6 40.8.5 5.1-.2 21.3 5.7 15.8 10.3-9.7 5.5-39.3 16.2-49-.4 6.6 2.2 11.8 2.6 17.6.4 6.5-4.8 27.5-6.8 33.2-.7 2.1-1.5 2.4-1.3 3.9.7 5.4 6.5 14 8.2 16.8 1.2 2 10.9-6.3 10.7-8.2-.6-6.1-10.2-42.8-3.7-46.2 2.8 12.3 3.2 24.9 5.2 37.2.8 5.7 2.3 11.3 4.3 16.7.8 1.9 7 11.4 6.6 12.7-1.2 4-13.5 5-18.3 6.4-8.8 2.5-17.4 7-26.2 9.3-5.2 1.3-51.3 13.5-48.6 19.6 1.2 2.8 32-8.5 36.8-9.6-2.3 18.9 7.5 34 7.4 53.1-.1 14-4.6 28.5.5 41.9.5 1.4 7.9 12.3 8.8 5.5.7-5.3-3.7-15.2-4.3-20.7-2.7-24.2-1-49.3-1.7-73.7-.3-10.9-.4-11.5 10-15.5 11.1-4.2 23.5-5.4 35.4-6.7-.7 7.2-2.2 14.4-4.4 21.3-.5 1.8-9.4 11-5 11.3 7.5.5 16.7-30.2 17.1-34.9 9.5 11.5 16.7 18.6 26.7 29.6 8.9 9.7 17 16.2 30.5 18.4 30.1 4.9 55.7-18.7 78.7-41.3 0 3.1 7.5 33 13.2 30.3 1.7-.8-5.8-22.9-5.8-26.8 8.6 3.5 15.2 5.8 22.9 10.8 7.9 5.1 19.2 8.2 25.5 15.5 8 9.2 1.5 21.4-.9 31.7-2.7 12.1-3.3 24.5-6.4 36.6-.9 3.3-9.7 23.1-7.4 24.3 4.3 2.4 13.1-19.2 13.9-22.2 3.2-12.2 1-25.6 3.8-37.8 2.2-9.9 14.6-20.5 8.1-30.1 10.4 2.4 14.2 4.7 24 8.7.9.4 8.8 4.2 10 3.6s4.4-3.4.9-4.3zm-66.7-111.6c-.5 17 3.3 35.2 2.2 37.1-1.2 2.1-8.7 4.2-11 5.7 2.6-9.6 8.1-39.5 8.8-42.8zm-10.8 47.9c3.8-2.7 10.5-5.6 14.7-7.7-2.7 5.1-5.9 10-9.4 14.6-.4-.5-3.9-5.2-5.3-6.9zM117.9 231c-1.6 9.8-4.3 37.7-7.2 28.2-2.5-7.9-12-22.7-12.8-41.5-.3-8 .5-13.9-3-21.2-4.8-10-7.8-18.6-6.4-29.4 4.5-36.3 20.6-65.3 36.7-98 19-38.6 60.1-65.1 103.8-57 9.8 1.8 22.3 1.5 30 8.3 1.9 1.7-.1 7.5 5 5.6.6-.2 5.9-4.9 7.4-5.8 16.3-10 35.5 4.6 47.5 14.9 36.5 31.1 23.1 93.5 53.8 115.9 9.8 7.1-25.2 1.8 4.3 27.8 5.8 5.1-4.9 3.3-10.2 7.1-4.7 3.4-9.3 13.6-16.5 9.2-3.8-2.3-2.7-6.4-7.9-7.6-6.1-1.4-6 8.7-8.9 5.4-4.8-5.5 1.1-8.5-.6-17.8-1.1-5.9-5.2-9.8-8.5-14.6-9.8-13.9-5.5-32.8-11.9-48-4.1-9.7-19-22.8-23.6-32.4-1.9-4-2.6 9.6-4 11.7-2.1 2.8-4.5 5.4-7.4 7.4-5.3 4.1-10.8 7.7-16.6 10.9-29.5 17.2-69.6 10.5-89.5 42-16.4 26-6 59.3-10.3 67.1-2.3 4.2-1.4-3.6-2.7-11.3-1.3-7.3-2.1-18.6-2.6-25.9-.4-7.1-1.8-12-5.5-3.1-4.8 11.6-3.4 23.4-11 34-6.8 9.1-19 3-21.4 18.1zm63.8-26.6c5.1-.9 9.6-7.3 6.5-12.2 5.2-.4 12.6 8.9 9.7 9.5-6.2 1.2-10.5 3.2-16.7 3.7-3.2.2-8.7-.1-11.4-1.6-5.1-2.9-4.1-3.9-4.1-10.5h6.2c-1.5 5.9 3.7 12.2 9.8 11.1zm-57 82.6c4.3 1.5 8.4 3.8 12.1 6.6-1.4 2-4.5 3.8-6.4 5.3-1.9-2.3-4.2-7.9-5.7-11.9zm7.4-35.7c.7 10.6 2.9 28.1 4.8 38.6-2.8-1.7-8.9-5.1-12.1-6.1.6-5.4 5.3-23.4 7.3-32.5zm149.3 83c-16.2 12.8-37.6 33.4-59.7 31.5-18.8-1.6-25.4-14-37.7-26.5-16.8-17.1-34.6-31.7-38.5-56.3-1.8-11.4-.2-22.7-2.6-34-.4-2.1-1.6-16.9-5.6-15.8-3.6.9-.2 9.3-2.5 10.6-.1-1.2-1.4-6.6-3.6-3.4-.8-3.1-1.7-10.2-.2-13s7.9-5.3 10.2-8c7-8.3 11.4-28.7 12.4-18.2.7 7 2.7 19.9 2 30.1-.3 5.4-2 28.5 5.1 12.8 5.4-11.9 5.3-24.4 5-37.2 6.9 2.4 44.9 2.6 36.3-9.5.8 1 5.1 2.4 4.2-.4-1.1-3.5-4.9-6.1-8-7.4-9.2-3.9-22.8-.2-32.8-.2.1-5.9 3.3-8 12.2-6.3 5.5 1 8.3 3.1 13.8 2.2 4.1-.7 4.9-3.4 7.8 1 1.4 2 1.6 3.7 4.5 3.8 5.7.2-2-11.4-6.4-11.7-2.9.2-5.8.9-8.4 2.2-2.4 1.2-5.1 1-7.4-.3-5.7-3.3-8.6-4.9-14.9-1.8 11.4-65.2 91.7-37 123-81.7 11.9 13.1 18.9 19.1 21.5 37.4 2 13.6 4.6 21.4 11.7 32.8 3.2 5.1 4.8 11 4.6 16.9 0 4.4-4.6 21.5-.1 24.8 7.1 5.1 9-16.2 14.2-15.2 6.3 1.1.7 15.3-.8 19.8-2.6 8.1-.2 22.3-5.4 28.8-1.9-4.9-4.9 1.5-5.3 2.7-4.9-1.7 4.2-30.1-3.5-18-6.1 9.6-4.6 29.6-7.2 40.9-6.8 29.5-28.2 58.9-37.9 66.6z"/>
  <path d="M312.4 196.2c6.8 0-8.3-12.3-9.3-12.9-6.8-4.1-14.7-5.8-22.6-4.9-7.5.7-13.3 4.2-20.4 3.4-5.2-.6-10.6-5.3-15.9-.1-1.6 1.6-3 6.7-1.7 8.4 2.6 3.4 5.8-3.7 7.6-4.4 2.7-1 8.1 2.4 11.8 2.2 2.2-.1 6.5-2.7 8.5-3.3 7.9-2.6 16.4-2.6 24.3-.1 5.5 1.8 13.6 11.7 17.7 11.7zM215.7 213.7c2.4-5.5-.5-14.8-2.4-13.1-1.5 1.3 1 6.1-.6 12.7-.5 2.1-1.8 9.9.5 12.5s0-6.6 2.5-12.1z"/>
  <path d="M301.9 198.5c-13.2 0-21.6-12.1-36-9.5-4.6.8-12 3.1-15.1 6.7-1 1.2-6.1 7 1.3 3.8-9 9.1 26 13.4 31.6 12.3 6.5-1.3 10.4-6.8 13.4-7.6 1.3-.3 11.7-5.7 4.8-5.7zm-9.7 1.6c5.7 3-12 8.2-14 8.1-7.1-.1-15.2-.5-21.4-4.1-3.4-2 3.4-10 9-11.1-9.8 14.1 25.3 19 17.8 2 2.4 1.3 5.5 3.5 8.6 5.1zM262.9 293.4c-1.9-1.5-4.9 1.4-7.7 1.3-5.5-.2-12-2.8-17.5-2.6-4.4.2-8.7 1.6-12.6 1.6s-8.7-1.6-12.6-1.9c-5.2-.3-9.8 3-15 2.7-4.1-.2-6-4-9.9-1.9-5.2 2.9 2.6 2 3.2 2.3 2.6 1.4 4.8 9.3 6.9 11.8 2 2.5 4.5 4.4 7.5 5.6 7.4 3.2 14.9 3.5 22.8 3.6 5.9.1 13-.6 18-4.3 4.2-3.1 6.1-10.9 10.6-13.6 6.5-3.9 11.6-.3 6.3-4.6zm-37 4.4c3.3-.4 8.7-2.4 12.2-2.8 4.4-.4 7.8 1.5 12.1 2.4-15.2 6.3-32.2 4.9-50.3-.6 2-.4 8.6-1.5 10.6-1.8 4.4-.6 8.6 3.6 15.4 2.8zm15.2 12.4c-5.8 2.8-16.6 3.6-26.3 2-8.3-1.3-11.2-4.2-15.6-11.4 7.1 3.5 13.9 3.3 25 3.3s19.7.6 24.7-1.8c-2.4 3-4.1 6.1-7.8 7.9zM189.6 394.6c-.4-2.6-4-18.6-9.8-15.5-3.8 2.1 4.1 8.7 5.1 11.6 1.5 4.4.6 15.4 5.9 17.6s-1-12.1-1.2-13.7zM265.2 384.4c-5.9 4.7-6.5 9.6-9.2 16-1.2 2.7-8.9 11.8-3 11.8 5 0 7.5-14.4 9.1-17.6.8-1.5 6-6.9 5.9-7.7-.1-1.1-.3-4.5-2.8-2.5zM207.9 263.4c-1.9.9-1.7 3.3-1 4.9-7.4-2.7-7.1-7.7-6.1-13.2 1.2-7.2 5-3 4.5-7.5-.7-5.1-5.2-.2-6.5 4.7-2 7.6-2.8 15.9 6.9 18.8 3 .9 6.2-1.1 8.6-.6 4 .8 5.7 5 10.6 5 4.2 0 6.1-3.3 9.6-4 2.6-.5 5.2.2 8.1-.4 9.4-1.8 10.9-7.2 8.9-15.8-.7-2.9-5.1-15-6.8-8.6-1 3.9 2.9 2.6 4.2 9.8 1.1 5.9 1.4 10.6-5.6 11.5 4.4-4.9-5.1-4.5-6.7-3.9-3.4 1.2-3.5 5.5-9.1 6.8-10.4 2.7-12.1-9.3-19.6-7.5z"/>
</svg>
