<svg
	xmlns="http://www.w3.org/2000/svg"
	viewBox="0 0 920 310"
	data-icon="miriam-sig"
	>
<g>
	<path d="M204.4,157c0.1-1.8,1.4-2.3,2.6-2.8c2.6-1,5.2-2.1,7.9-2.9c15.8-4.9,32-8.6,48.2-12.2c20.2-4.5,40.6-7.9,61.1-11.1
		c11.3-1.8,22.5-4.1,33.9-5.8c10.4-1.6,20.8-3,31.3-3.8c15.2-1.2,30.4-1.9,45.6-2.7c0.5,0,0.9,0,1.6,0.1c0.5,1.7,1,3.3,1.5,5
		c2.5,8.2,5,16.4,7.6,24.5c1,3.1,2.6,6,3.9,9c1.2,2.9,3.5,3.7,6.3,3.2c4.7-0.8,9.5-1.4,14.2-2.5c28.9-6.5,57.8-13.1,86.8-19.6
		c21.8-4.9,43.7-9.4,65.5-14.2c21.5-4.7,43.2-8.9,64.9-12.6c10.3-1.7,20.6-3.2,30.7-5.4c10.3-2.3,20.7-3.2,31.1-4.6
		c12.1-1.6,24.2-3.3,36.4-4.9c10.5-1.4,21-2.7,31.5-3.9c1-0.1,2.1,0.1,3.4,0.2c-0.4,2-1.8,2.5-2.9,3c-3.6,1.7-7.5,2.5-11.5,2.6
		c-7.8,0.2-15.5,1.6-23.2,3c-8.9,1.6-17.9,2.9-26.9,3.9c-7.8,0.9-15.4,2.3-23.1,3.7c-10.3,1.8-20.7,3.3-31.1,5.1
		c-10.4,1.9-20.8,4-31.2,5.9c-12.9,2.4-25.8,4.6-38.7,6.8c-10.3,1.8-20.2,4.7-30.3,7.4c-14.9,4-29.9,7.2-44.9,10.9
		c-22.2,5.4-44.3,10.9-66.5,16.2c-6.6,1.6-13.4,2.8-20.1,4.1c-1.4,0.3-2.9,0.2-4.3,0.3c-1,0.1-1.9,0.2-2.9,0.4
		c-3.6,0.7-4.7,2.5-3.6,6c0.7,2.3,1.7,4.5,3,6.5c4.7,7.7,6.1,15.9,4.6,24.7c-0.2,1.5-0.6,3-1.2,4.4c-1.3,3.1-3.6,4.4-6.9,3.7
		c-2.2-0.5-4.5-1.3-6.5-2.3c-3.2-1.6-6.3-3.4-9.3-5.3c-9.9-6.3-20.2-12-30.7-17.3c-3.6-1.8-7-4-10.5-6c-0.7-0.4-1.3-0.9-1.8-1.4
		c-2.3-2-2.5-3.3-0.2-5.5c3.2-3.2,6.9-5,11.8-5.1c5.8-0.1,11.7-1.3,17.5-2.2c3-0.5,6-1.3,9-2.1c2.8-0.8,3.2-1.2,2.4-4.1
		c-2.6-11.1-6.9-21.6-12.5-31.6c-1.2-2.1-3.1-2.8-5.3-2.9c-3.5-0.2-7-0.6-10.4-0.3c-8.2,0.6-16.3,1.3-24.4,2.3
		c-12.3,1.5-24.6,3.1-36.9,5c-17.5,2.6-35.1,5-52.5,8.2c-23.5,4.2-46.6,10.2-69.9,15.7c-6,1.4-12.1,2.5-18.1,3.6
		C208.4,157.8,206.3,158.2,204.4,157z M441.6,168.7c-5.4,0.7-10.9,1.3-16.3,2.1c-2.1,0.3-4.2,0.8-6.2,1.4c-1.8,0.5-4.1,1-4.3,3.3
		c-0.2,2.2,1.9,3.2,3.6,4.1c1.7,1,3.6,1.7,5.4,2.6c4.6,2.3,9.2,4.4,13.6,6.9c2.9,1.6,5.5,3.6,8.2,5.4c2.9,2,5.8,3.9,9.2,4.7
		c3,0.7,4.9-0.7,4.8-3.7c0-2.2-0.3-4.5-1.2-6.5c-2.1-5-4.6-9.9-7.1-14.8C449.4,170.2,445.9,168.6,441.6,168.7z"/>
	<path d="M165.7,276.8c0.6-19.3,2.8-38.4,6.7-57.3c2.8-13.5,6.2-26.8,9.2-40.2c1-4.7,1.8-9.5,2.6-14.2c0.2-1.3,0.4-2.7,1-3.9
		c3.6-8.4,5.5-17.2,7.7-26c6.6-26.3,13.1-52.7,21.4-78.5c1.6-5,3.7-9.9,5.3-14.9c1.3-4.1,2.5-8.3,3.5-12.5c0.4-1.9,0.3-4,0-6
		c-0.6-4.3,0.2-8.1,3.1-11.3c1.7-1.9,3.6-3.8,5.7-5.3c2.2-1.6,3.8-0.7,3.8,2s-0.2,5.4-0.9,8c-2.5,8.8-5.2,17.5-7.9,26.2
		c-10,32.3-18.9,64.9-26,97.9c-0.7,3.3-1.2,6.6-1.8,9.9c-0.2,1.4-0.5,2.8,0.4,4.2c0.3,0.5,0.2,1.3,0,1.9c-0.4,1.1-0.9,2.2-1.6,3
		c-3.6,4.2-5.5,9.2-6.8,14.5c-3.1,13.3-6.2,26.6-9.2,39.9c-2.5,11.3-3.8,22.8-4.5,34.3c-0.7,13.2-1.1,26.4-1.8,39.5
		c-0.2,3.8-0.7,7.7-1.2,11.5c-0.1,1-0.4,2.1-0.8,3.1c-0.7,1.6-2,1.9-3.2,0.7c-1-1-1.8-2.3-2.2-3.7c-0.8-3.1-1.5-6.2-1.8-9.3
		C165.9,285.8,165.9,281.3,165.7,276.8z"/>
	<path d="M86.1,91.2c-0.4,1.1-0.5,2.4-1.1,3.4c-2,3.2-4.1,6.3-6.3,9.3c-2.5,3.5-5.6,6.7-7.7,10.4c-7.2,12.7-17.2,23.2-26.6,34.1
		c-7.1,8.3-15.8,14.6-25,20.3c-1.1,0.7-2.2,1.2-3.3,1.7c-1.8,0.7-3,0.1-3.6-1.7c-0.4-1.1-0.6-2.3-0.5-3.4c0.6-4.1,1-8.2,2.1-12.2
		c3.8-13.9,9.5-27.1,15.5-40.1c5.1-11.1,10.6-22,15.6-33.2C51.1,66.6,56,53,59.1,38.8c0.9-4.1,1.4-8.4,1.8-12.6
		c0.2-2.3-0.1-4.6-0.4-6.9c-0.4-3.3-2.4-5.1-5.5-5.8s-6.1-0.6-9.2,0.1c-5,1-9.4,3-13.1,6.8c-2.7,2.8-5.9,5-8.9,7.3
		c-3.2,2.6-6.6,5-9.8,7.7c-2.4,2-4.5,4.2-6.7,6.3c-0.6,0.6-1.3,1.1-1.9,1.6c-1.2-1.1-1-2.1-0.5-3.1C5.5,39,6.1,37.8,7,36.8
		c1.6-1.9,3.3-3.8,5.2-5.4c10.1-8.9,21.3-16.1,33.7-21.6c2.5-1.1,5.2-1.9,7.9-2.8c3.8-1.2,7,0,9.7,2.7c2.9,2.9,4.4,6.5,5.2,10.5
		c1.2,5.8,0.3,11.5-0.9,17.2c-2.7,12.7-7.1,24.8-12.2,36.7C47.5,92.8,39,111.4,30.7,130c-2.9,6.5-5.7,13-8.6,19.6
		c-0.5,1.2-1,2.5-1.5,3.7s-1.1,2.4,0.2,3.4c1.2,1,2.7,1.2,4.1,0.5c1.6-0.9,3.2-1.9,4.5-3.2c3.7-3.6,7.6-7.2,11-11.1
		c9.6-11.3,19.1-22.7,28.5-34.2c3.5-4.2,6.8-8.6,10.2-12.9c1.1-1.3,2.3-2.6,3.6-3.8c0.8-0.7,1.9-1.1,2.9-1.6
		C85.6,90.8,85.8,91,86.1,91.2z"/>
	<path d="M96.8,144.7c1-0.6,2.2-1.1,3.1-1.9c2.5-2.3,5-4.5,7.3-7c29.2-32,59-63.6,89.3-94.6C202,35.6,208,30.4,213.8,25
		c1.3-1.2,2.9-2.1,4.3-3.1c0.2,0.2,0.4,0.4,0.6,0.6c-0.8,1.1-1.6,2.3-2.5,3.3c-4.6,5-9.3,10.1-14,15C190,53.5,177.5,66,165.6,79
		c-10.3,11.2-19.7,23.2-29.9,34.5c-11.3,12.6-22.9,25-34.5,37.4c-2.7,2.9-5.7,5.5-8.7,8c-3.2,2.6-5.5,1.6-6.1-2.5
		c-0.5-3.7-0.2-7.4,1-10.9c2.9-8.7,5.7-17.4,9-25.9c6.8-17.5,14.3-34.7,22.6-51.6c1.9-3.9,3.4-8,4.8-12.1c1-2.8,1.2-5.8,0.5-8.8
		c-0.5-2.1-0.1-4,0.7-5.9c1.2-2.7,3.4-3.9,5.7-3.3c2.3,0.6,4.2,3.2,4,5.7c-0.1,1.5-0.4,3.1-0.9,4.5c-2.2,6.2-4.3,12.4-6.9,18.4
		c-7.8,18.6-15.7,37.1-23.5,55.6c-2.4,5.8-4.4,11.7-6.5,17.6c-0.5,1.4-0.7,2.9-1,4.4C96.3,144.3,96.6,144.5,96.8,144.7z"/>
	<path d="M174.7,163.9c-1.2,2.2-2.7,2.9-4.2,3.5c-5.2,2-10.4,4.2-15.7,5.9c-8.8,2.8-17.7,5.2-26.5,8.1c-3.6,1.1-6.9,2.9-10.3,4.4
		c-6,2.6-12.2,3.5-18.6,2.9c-0.7-0.1-1.4-0.1-2-0.5c-0.7-0.4-1.7-1-1.8-1.6s0.6-1.6,1.3-2c1.8-1,3.7-2,5.7-2.7
		c9.2-3,18.5-6.1,27.8-8.9c9.7-2.9,19.4-5.6,29.2-8.1c3.7-1,7.6-1.2,11.4-1.6C172.1,163.3,173.2,163.7,174.7,163.9z"/>
	<path d="M856.8,84.7c0.2-1.9,1.5-2.4,2.8-2.7c4.6-1.2,9.3-2.4,14-3.5c7.6-1.8,15.2-3.3,22.7-5.2c2.8-0.7,5.4-2.1,8-3.1
		c2.3-0.9,4.6-1.9,7-2.5c1.9-0.5,3.2,0.1,3.8,1.3c0.7,1.4,0.2,3.7-1.3,4.6c-1.3,0.9-2.8,1.7-4.4,2.1c-5.6,1.4-11.2,2.8-16.8,3.9
		c-9.9,1.8-19.9,3.4-29.8,5C860.8,84.9,858.9,85.2,856.8,84.7z"/>
	<path d="M852.9,83.2c-0.3,2-1.4,2.6-2.6,3c-2.3,0.8-4.5,1.6-6.9,2c-3.9,0.7-7.8,1.2-11.7,1.6c-1.8,0.2-3.6-0.1-5.5-0.2
		c0.2-1.9,1.4-2.3,2.4-2.6c3-0.9,6.1-1.8,9.2-2.3c4.1-0.7,8.2-1.1,12.3-1.5C850.9,83.1,851.8,83.2,852.9,83.2z"/>
</g>
</svg>
