<svg
  xmlns="http://www.w3.org/2000/svg"
  viewBox="0 0 346.2 454.8"
  width="200px"
  height="260px"
  data-icon="miriam"
  >
  <style>
    @keyframes draw-logo {
      0% { stroke-dashoffset: 800; }
      100% { stroke-dashoffset: 0; }
    }
    @keyframes fill-logo {
      0% { fill-opacity: 0; }
      100% { fill-opacity: 1; }
    }
    @keyframes fade-logo-outline {
      0% {
        stroke: var(--mia-svg-stroke, currentColor);
        stroke-width: 1;
        stroke-width: var(--mia-svg-stroke-width, 1);
      }
      100% {
        stroke: transparent;
        stroke-width: 0;
      }
    }
    [data-mia] {
      fill: currentColor;
      fill: var(--mia-svg-fill, currentColor);
      stroke: currentColor;
      stroke: var(--mia-svg-stroke, currentColor);
    }
    [data-mia='eyes'] {
      animation: var(--mia-svg-animate, fill-logo 4s 3s 1 both);
      fill: var(--mia-svg-eyes, var(--mia-svg-fill, currentColor));
    }
    [data-mia='face'] {
      animation: var(--mia-svg-animate, draw-logo 4s 1 both, fill-logo 4s 3s 1 both, fade-logo-outline 3s 3s 1 both);
      stroke: transparent;
      stroke-width: 0;
      stroke-dasharray: 800;
    }
  </style>

	<g data-mia="face">
		<path d="M346.6 371.5c-7.8-1.8-15-5.9-22.4-8.9-8.2-3.3-17.4-4.8-25.3-8.3-12.6-5.5-23.8-14.4-35.3-21.7-4.6-2.9-13.5-4.8-13.4-10.3.1-6.2 9.4-15.8 11.9-21.9 6.8-16.1 10.6-34.9 12.6-52.2 4.2 3-2 23.1-3.1 28.9-1.2 5.9-3.8 17.3-5.2 23.1-.6 2.4-2.7 4.4-2.6 6.1.2 3.6 5.2 9 8.6 11.2 2.3 1.4 13.9-18.6 13-21.6-2.7-9.7-4.3-31.1-3.8-44.7.1-3.8 7.1-3.9 7.9-17.2.6-10.9 1.2-25.6 10.9-30.2 11.6-5.7 11.6-11 19.9-14.3 3.6-1.4 10.8-.7 14.2-1 8.4-.7.5-8.6-5.3-14.4-3.7-3.7-9.5-10.6-7.4-13.7 2.5-3.6 9.1 1.2 8.1-5.8-.6-4.4-12.1-14.7-14.6-19.5-13.7-25.6-14.8-55.3-26.1-81.6C280 32.2 256 9 231.6 8.3c-6.3-.2-12.6 2.2-18.5 3.2-6.7 1.2-13.8-2.6-16.7-3.8C180.2 1 162.5-1.6 145.1.9c-28.8 4.2-53.9 21.7-70.7 45C59 67.1 48.1 95 38.2 119.2c-8.2 19.7-16.1 49.3-11.1 70.3 1.6 6.6 6.4 12.2 7.7 18.6.9 4.8 0 10.1.6 15 1.7 15.2 11.4 26.4 12.8 41.5.5 5.2-.2 21.7 5.8 16.1 10.5-9.9 5.6-40 16.5-49.9-.4 6.8 2.3 12 2.6 17.9.4 6.6-4.9 28-6.9 33.8-.7 2.1-1.5 2.5-1.4 3.9.7 5.5 6.6 14.3 8.4 17.1 1.3 2 11.1-6.4 10.9-8.4-.6-6.2-10.4-43.6-3.7-47.1 2.8 12.5 3.2 25.3 5.3 37.9 1 5.8 2.2 11.5 4.4 17 .8 1.9 7.1 11.6 6.7 12.9-1.3 4.1-13.7 5.1-18.7 6.5-9 2.6-17.7 7.1-26.7 9.5-5.3 1.4-52.3 13.8-49.5 19.9 1.3 2.8 32.5-8.7 37.5-9.8-2.3 19.2 7.6 34.6 7.5 54.1-.1 14.3-4.6 29.1.5 42.7.5 1.4 8 12.5 8.9 5.7.7-5.4-3.7-15.5-4.3-21.1-2.7-24.7-1-50.2-1.8-75-.4-11.1-.4-11.7 10.2-15.7 11.3-4.3 23.9-5.5 36-6.8-.8 8.4-2.2 13.6-4.5 21.7-.5 1.8-9.5 11.2-5.1 11.5 7.6.5 17-30.8 17.4-35.6 9.6 11.7 17 19 27.2 30.1 9 9.9 17.4 16.5 31 18.7 30.7 5 56.7-19 80.1-42.1 0 3.2 7.6 33.6 13.4 30.8 1.8-.8-5.9-23.3-5.9-27.3 8.7 3.6 15.5 5.9 23.3 11 8 5.2 19.5 8.4 25.9 15.8 8.2 9.4 1.5 21.7-.9 32.3-2.8 12.3-3.4 25-6.5 37.2-.9 3.3-9.9 23.5-7.6 24.8 4.4 2.4 13.4-19.6 14.1-22.6 3.2-12.4 1.1-26.1 3.9-38.5 2.3-10.1 14.9-20.9 8.3-30.6 10.6 2.5 14.4 4.8 24.4 8.9.9.4 8.9 4.3 10.2 3.7 1.7-.8 5-3.3 1.5-4.1-3.2-.8 1 .2 0 0zm-68.1-113.8c-.5 17.4 3.3 35.9 2.2 37.8-1.3 2.1-8.8 4.3-11.3 5.8 2.8-9.7 8.4-40.2 9.1-43.6zm-11 48.8c3.9-2.7 10.7-5.7 14.9-7.9-2.4 4.4-6.4 11-9.6 14.8-.3-.4-3.8-5.2-5.3-6.9zM61.4 231.4c-1.6 10-4.3 38.3-7.4 28.7-2.5-8.1-12.2-23.1-13-42.3-.4-8.2.5-14.2-3.1-21.6-4.9-10.2-7.9-19-6.5-30 4.7-37 21.1-66.6 37.4-99.8C88.2 27 130 .1 174.5 8.2c10 1.8 22.7 1.6 30.5 8.5 2 1.7-.1 7.6 5.1 5.7.6-.2 6-5 7.5-5.9 16.6-10.1 36.2 4.7 48.4 15.2 37.2 31.7 23.5 95.3 54.8 118.1 10 7.3-25.7 1.9 4.4 28.3 5.9 5.2-4.9 3.3-10.4 7.2-4.8 3.4-9.5 13.8-16.8 9.4-3.9-2.3-2.7-6.5-8.1-7.7-6.2-1.4-6.1 8.8-9.1 5.5-4.9-5.6 1.1-8.6-.6-18.1-1.1-6-5.3-10-8.7-14.8-10-14.1-5.6-33.4-12.1-48.9-4.1-9.9-19.4-23.2-24-33-1.9-4.1-2.7 9.8-4.1 11.9-1.9 3-4.8 5.4-7.5 7.6-5.2 4.2-11.1 7.7-16.9 11.1-30.1 17.5-70.9 10.7-91.1 42.8-16.7 26.4-6.1 60.4-10.5 68.3-2.3 4.3-1.4-3.7-2.8-11.5-1.3-7.4-2.2-18.9-2.6-26.4-.5-7.2-1.9-12.3-5.6-3.1-4.9 11.8-3.5 23.8-11.2 34.6-6.8 9.2-19.2 2.9-21.7 18.4zm65-27.1c5.2-.9 9.8-7.4 6.6-12.4 5.3-.4 12.9 9.1 9.9 9.7-6.3 1.3-10.6 3.3-17 3.8-3.3.3-8.9-.1-11.6-1.6-5.2-2.9-4.2-4-4.2-10.7h6.3c-1.5 5.9 3.7 12.3 10 11.2 5.9-1.1-8 1.4 0 0zm-58 84c4.3 1.5 8.7 3.9 12.3 6.7-1.5 2-4.6 3.9-6.5 5.4-2-2.2-4.3-7.9-5.8-12.1zm7.5-36.3c.7 10.8 2.9 28.7 4.9 39.3-2.9-1.7-9.1-5.2-12.3-6.2.6-5.5 5.4-23.8 7.4-33.1zm152 84.5c-16.5 13-38.2 34-60.8 32-19.2-1.7-25.9-14.2-38.4-26.9-17.1-17.5-35.2-32.3-39.2-57.3-1.8-11.6-.2-23.1-2.6-34.6-.4-2.1-1.6-17.2-5.7-16.1-3.7.9-.2 9.5-2.6 10.8-.1-1.3-1.4-6.7-3.6-3.5-.8-3.2-1.8-10.4-.2-13.3 1.5-2.9 8.1-5.4 10.4-8.2 7.2-8.5 11.6-29.2 12.7-18.5.7 7.1 2.7 20.3 2.1 30.6-.3 5.5-2.1 29 5.2 13 5.5-12.1 5.4-24.8 5.1-37.8 7 2.4 45.8 2.6 36.9-9.7.9 1 5.2 2.4 4.3-.4-1.1-3.5-5-6.2-8.1-7.5-9.3-3.9-23.3-.2-33.3-.2.1-6 3.3-8.1 12.5-6.5 5.6 1 8.4 3.2 14 2.2 4.1-.7 5-3.4 8 1.1 1.4 2.1 1.6 3.8 4.6 3.9 5.8.2-2.1-11.6-6.6-11.9-2.7 0-6.1 1.1-8.5 2.3-2 1-4.7 1.3-7.5-.3-5.8-3.3-8.8-5-15.2-1.8 11.6-66.4 93.3-37.7 125.3-83.1 12.1 13.4 19.2 19.4 21.9 38 2 13.8 4.7 21.8 11.9 33.4 3.4 5.5 4.7 10.8 4.7 17.2 0 4.5-4.7 21.9-.1 25.2 7.2 5.2 9.1-16.5 14.5-15.5 6.4 1.2.7 15.6-.8 20.1-2.7 8.3-.2 22.7-5.5 29.3-2-5-5 1.5-5.4 2.8-4.9-1.8 4.3-30.6-3.6-18.3-6.2 9.8-4.7 30.2-7.4 41.6-7.3 30.1-29.1 60.1-39 67.9z"/>
		<path d="M259.4 195.9c7 0-8.4-12.5-9.5-13.1-7-4.3-14.9-5.8-23-5-7.6.8-13.6 4.3-20.7 3.4-5.3-.7-10.8-5.4-16.2-.1-1.6 1.6-3.1 6.8-1.7 8.6 2.7 3.5 5.9-3.8 7.8-4.5 2.7-1 8.3 2.5 12.1 2.3 2.3-.1 6.7-2.7 8.6-3.4 7.9-2.5 16.7-2.7 24.8-.1 5.5 1.8 13.7 11.9 17.8 11.9zM163 214.8c2.8-5.4.5-15-1.6-13.5-1.6 1.3.6 6.3-1.5 12.8-.7 2.2-2.5 9.9-.3 12.7 2.1 2.9.5-6.5 3.4-12z"/>
		<path d="M248.8 198.3c-13.4 0-22-12.3-36.7-9.6-4.7.8-12.3 3.1-15.4 6.8-1 1.2-6.3 7.1 1.4 3.9-9.1 9.3 26.4 13.7 32.2 12.5 6.6-1.3 10.6-6.9 13.6-7.8 1.3-.3 11.9-5.8 4.9-5.8zm-9.9 1.6c5.8 3.1-12.2 8.3-14.2 8.3-7.3-.1-15.5-.5-21.8-4.1-3.5-2 3.4-10.2 9.1-11.3-10 14.4 25.8 19.3 18.1 2 2.5 1.2 5.7 3.4 8.8 5.1zm-29.8 94.9c-1.9-1.6-5 1.4-7.9 1.3-5.6-.2-12.2-2.9-17.8-2.7-4.5.2-8.9 1.6-12.9 1.7-3.8 0-8.8-1.7-12.9-1.9-5.3-.3-10 3-15.3 2.8-4.1-.2-6.1-4.1-10.1-1.9-5.3 2.9 2.7 2 3.3 2.3 2.6 1.4 4.8 9.5 7.1 12 2.4 2.8 4.2 4.2 7.6 5.7 7.5 3.2 15.2 3.6 23.2 3.7 6 .1 13.3-.6 18.3-4.3 4.3-3.2 6.2-11.1 10.8-13.9 6.8-4 12-.4 6.6-4.8zm-37.7 4.5c3.4-.4 8.9-2.5 12.5-2.8 4.5-.4 8 1.6 12.4 2.4-15.5 6.4-32.8 5-51.2-.6 2-.4 8.8-1.5 10.8-1.8 4.3-.7 8.6 3.7 15.5 2.8zm15.5 12.7c-5.9 2.8-17 3.6-26.8 2.1-8.5-1.4-11.4-4.3-15.9-11.6 7.2 3.6 14.2 3.4 25.5 3.4 11.2 0 20 .6 25.1-1.9-2.5 3-4.2 6.2-7.9 8-2.6 1.2 2.6-1.3 0 0zm-52.5 86c-.4-2.7-4.1-19-10-15.8-3.9 2.1 4.2 8.8 5.2 11.9 1.5 4.5.6 15.7 6 17.9 5.5 2.3-1-12.3-1.2-14-.8-5.7.6 4 0 0zm77-10.4c-6 4.7-6.6 9.8-9.4 16.3-1.2 2.7-9 12-3.1 12 5.1 0 7.6-14.7 9.3-17.9.8-1.5 6.1-7.1 6-7.8-.1-1.2-.2-4.6-2.8-2.6-6 4.8.8-.7 0 0zM153 264.3c-1.9.9-1.7 3.3-1 5-7.6-2.7-7.2-7.9-6.2-13.5 1.3-7.4 5.1-3.1 4.5-7.6-.7-5.2-5.3-.2-6.6 4.8-2 7.8-2.9 16.2 7 19.2 3.1.9 6.3-1.1 8.8-.6 4.1.8 5.8 5.1 10.8 5.1 4.2 0 6.2-3.3 9.7-4 2.6-.5 5.3.2 8.3-.4 9.5-1.8 11.1-7.4 9.1-16.1-.7-3-5.2-15.3-6.9-8.7-1 3.9 3 2.6 4.3 10 1.1 6 1.4 10.8-5.7 11.7 4.5-5-5.2-4.5-6.9-3.9-3.4 1.3-3.6 5.5-9.3 6.9-10.5 2.5-12.1-9.7-19.9-7.9-1.2.3 3.1-.7 0 0z"/>
	</g>
  <g data-mia="eyes">
    <path d="M121 195.9c-4.5 3.6 2.8 8.3 8.3 4 4.5-3.5 2-9.2-4.7-7.2-1.5.5.7.1-1.7 3.3-2.6 3.6-1.1-.7-1.9-.1z"/>
    <path d="M216 195.6c-6.1 2.5.4 9.9 7.8 7.1 6.1-2.4 5.2-9.4-2.8-9.4-1.8 0 .7.3-3 3-4 3-1-1.1-2-.7z"/>
  </g>
</svg>
