<svg xmlns="http://www.w3.org/2000/svg" viewBox="0 0 900 340">
<path d="M612.7,195.3c-15.7,0.1-29.4,3.9-40.8,9.5c-4.2-8.3-8.4-15.7-9.1-21.2c-0.8-6.3-1.8-10.2-0.8-17.8c1-7.6,5.4-18.4,5.4-19.2
	s-1-4.7-10-4.8c-9.1-0.1-16.9,1.7-17.8,4.1c-0.9,2.4-2.6,7.8-3.8,13.4c-1.6,8.2-18.1,37.6-27.6,53c-3-6-5.7-11.3-6.3-15.5
	c-0.8-6.3-1.8-10.2-0.8-17.8c1-7.6,5.4-18.4,5.4-19.2c-0.1-0.8-1-4.7-10-4.8c-9.1-0.1-16.9,1.7-17.8,4.1c-0.9,2.4-1.9,8-3.8,13.4
	c-1.9,5.4-23.9,54.5-29.6,67.2c-3,6.5-5.5,11.7-7.3,15.2l0,0c0,0-0.1,0.2-0.3,0.7c-1.6,3-2.5,4.7-2.5,4.7s0,0,0,0.1
	c-1.2,2.2-2.6,4.3-3.2,4.3c-0.5,0-1.4-5.9,0.2-14c3.3-17,11.1-43.5,11-44.5c0-0.5,1.5-5.1-5.1-7.5c-6.4-2.4-8.7,1.6-9.3,1.6
	c-0.6,0-1,1.4-1,1.4s7.2-29.8-13.7-29.8c-13,0-31,14.2-39.8,27.1c-5.6,3-17.5,9.5-30.3,16.5c-4.9,2.7-9.9,5.4-14.6,8
	c-0.3-0.3-0.7-0.7-1-1.1c-25.2-26.9-71.8-45.9-69.8-82.1c0.7-13.2,5.3-47.7,89.5-89.7c69.3-34.2,124.5-24.7,134-3.7
	c13.7,30-29.6,85.6-101.2,93.7c-27.3,3-41.7-7.5-45.3-11.4c-3.8-4.1-4.4-4.4-5.8-3.5c-2.3,1.2-0.8,4.9,0,7.1
	c2.1,5.6,10.9,15.5,25.8,20.3c13.2,4.3,45.2,6.7,84-8.3c43.4-16.8,77.3-63.5,67.3-102.6c-10-39.7-75.8-52.8-138.1-30.6
	c-37,13.2-77.2,33.9-106.1,60.9c-34.3,32.1-39.8,60-37.5,71.7c8,41.5,65.2,68.5,88.1,88.5c-1.2,0.7-2.2,1.2-3.1,1.7
	c-11.4,5.7-55.1,28.5-65.9,52.6c-12.3,27.3,2,46.9,11.4,49.6c29.4,8.1,59.6-6.5,75.8-30.7c16.2-24.2,14.2-55.7,6.8-70.1
	c-0.1-0.2-0.2-0.3-0.3-0.5c3-1.7,6-3.5,9-5.3c5.8-3.5,11.6-6.7,16.5-9.3c-2.8,7.7-4.9,16.8-5.8,30c-1.2,15.5,5.1,35.6,13.4,43.5
	c3.7,3.5,8.1,3.5,10.9,3.5c9.7,0,14.1-8.1,18.9-17.6C406.6,268.6,412,255,412,255s-6.7,36.7,11.4,36.7c6.6,0,13.3-8.6,16.2-12.9
	c0,0.1,0,0.1,0,0.1s0.2-0.2,0.5-0.8c0.7-1.1,1.1-1.7,1.1-1.7s0-0.1,0-0.2c2.6-4.6,8.6-15.1,17.4-32.4c11.4-22.4,22.3-50.4,22.3-50.4
	s1,6.8,4.4,18.2c2,6.7,6.1,14,9.4,21.1c-2.6,3.7-4.3,5.8-4.3,5.8s0,0,0.1,0.1c-2.1,2.8-4.4,5.8-7,8.8c-9,10.7-19.7,23-21.2,26.5
	c-1.7,4.2-1.3,7.2,2,9.7c2.4,1.8,6.7,2.1,11,1.8c8.1-0.6,13.7-2.6,16.5-3.8c4.4-1.6,9.5-4,14.2-7.5c8.8-6.5,14.2-15.8,13.7-28.1
	c-0.2-6.8-2.5-13.5-5.2-19.8c0.8-1.2,1.6-2.3,2.4-3.5c13.9-20.3,24.7-42.6,24.7-42.6s1,6.8,4.4,18.2c1.6,5.8,5,12,8,18.1
	c-13.1,10.6-21.2,23-24,31c-5.2,15-1.2,21.7,6.5,23.3c3.5,0.7,8.4-0.9,12-2.5c4.6-1.5,10-4,15.2-7.8c8.8-6.5,17.3-15.6,16.8-27.8
	c-0.2-5.6-1.7-11.1-3.8-16.5c11.1-4.6,25.4-7.2,43.7-5c39.2,4.6,46.9,29.1,45.4,39.4c-1.5,10.3-9.7,15.9-12.4,17.6s-3.6,2.3-3.4,3.5
	c0.3,1.8,1.6,1.7,4,1.4c3.2-0.6,20.6-8.3,21.3-27.2C676.5,221.5,653.5,195.1,612.7,195.3z M310.5,297.2c-13,14.2-31.1,19.5-38.9,15
	c-8.4-4.9-5.1-25.8,10.9-40.7c9.7-9.1,22.2-17.6,30.5-22.8c1.9-1.2,4.7-2.8,8.1-4.9c0.6-0.3,0.9-0.5,0.9-0.5l0,0
	c0.7-0.4,1.3-0.8,2-1.2C329.7,263.5,324.1,282.3,310.5,297.2z M405.1,232.8c-4.5,11-14,39.3-19.8,37.7c-4.9-1.3-8-22.7-1-43.9
	c3.5-10.6,11-23.3,15.4-28.2c7.1-7.9,14.9-10.5,16.8-7.3C419,195.3,407.9,225.9,405.1,232.8z M483.2,270.2c-1.9,1-3.7,1.6-4.5,1.2
	c-0.6-0.3,0.8-1.6,0.8-1.6s9.8-10.5,13.7-15.3c2.2-2.8,4.9-6.1,7.7-9.8c0,0.3,0,0.7,0,1.1C500.9,258.3,488.7,266.8,483.2,270.2z
	 M543.5,256.5c-1.4-1-1.2-4.3,3.5-14.6c1.8-4,6.1-10.8,13.4-17.3c0.8,2.6,1.4,5.2,1.3,7.6C561.7,248.1,550.3,254,543.5,256.5z"/>
</svg>
