<svg
  xmlns="https://www.w3.org/2000/svg"
  aria-hidden="true"
  focusable="false"
  width="137"
  height="66"
  viewBox="0 0 136.87 65.58"
  data-svg="w3c"
>
<path d="M32.45.48,44,39.74,55.54.48h31.3V4.39L75.05,24.69a16.42,16.42,0,0,1,9.39,7.24,23.31,23.31,0,0,1,3.19,12.34Q87.63,53,83,59a14.62,14.62,0,0,1-12.06,6,14.41,14.41,0,0,1-9.71-3.54,20.8,20.8,0,0,1-6.13-9.59l6.52-2.71a14.85,14.85,0,0,0,3.79,5.77A8,8,0,0,0,70.91,57c2.23,0,4.11-1.24,5.65-3.74a16.78,16.78,0,0,0,2.31-9q0-5.81-2.46-9-2.88-3.75-9-3.75H64.22V27.71L75.37,8.44H61.92l-.77,1.31L44.79,65H44L32.05,25,20.11,65h-.8L.21.48H8.57L20.11,39.73l7.8-26.43L24.09.48Z"/>
<path d="M130.28.48a5.82,5.82,0,0,0-4.23,1.73,6.21,6.21,0,0,0-1.85,4.37A6,6,0,0,0,126,10.84a6,6,0,0,0,4.3,1.83,6.2,6.2,0,0,0,4.33-1.81,5.85,5.85,0,0,0,1.78-4.28,6.09,6.09,0,0,0-1.76-4.28A6,6,0,0,0,130.28.48Zm5.3,6.15A5.08,5.08,0,0,1,134,10.3a5.36,5.36,0,0,1-3.8,1.56,5.23,5.23,0,0,1-3.69-1.57A5.3,5.3,0,0,1,125,6.58a5.42,5.42,0,0,1,1.6-3.79,5.12,5.12,0,0,1,3.69-1.51,5.28,5.28,0,0,1,5.29,5.35ZM130.45,3h-2.61v6.9h1.31V7h1.28l1.41,2.94h1.45l-1.54-3.14a1.81,1.81,0,0,0,1.58-1.87c0-1.25-1-1.89-2.88-1.89Zm-.24.84c1.22,0,1.78.34,1.78,1.19s-.56,1.1-1.75,1.1h-1.1V3.85Z"/>
<path d="M120,.12l1.35,8.23-4.79,9.18a17.69,17.69,0,0,0-4.9-6.05c-2.57-1.81-4.25-2.21-6.87-1.66-3.37.69-7.2,4.72-8.86,9.69A33,33,0,0,0,93.87,31a26,26,0,0,0,.56,6.74,29.94,29.94,0,0,1-2.89-13.27A33.37,33.37,0,0,1,95.05,8.67c2.29-4.43,5.7-7.09,8.72-7.4s5.6,1.18,7.51,2.81a24,24,0,0,1,4,5.46L120,.12Z"/>
<path d="M120.62,46.7A40.94,40.94,0,0,1,117.18,52a21.08,21.08,0,0,1-6.6,5.32,12.37,12.37,0,0,1-7.33,1.25,14.5,14.5,0,0,1-6.49-2.64,25.27,25.27,0,0,1-4.69-4.66c-1.36-1.91-3.48-5.73-3.48-5.73s1.18,3.83,1.93,5.46a35.48,35.48,0,0,0,3.58,6.28c1.73,2.33,5.09,6.32,10.2,7.23a13,13,0,0,0,9.48-1.95,25.25,25.25,0,0,0,3.86-3.33,28.69,28.69,0,0,0,3-3.93c.47-.72,1.22-2.19,1.22-2.19l-1.22-6.35Z"/>
</svg>
