<svg xmlns="http://www.w3.org/2000/svg" viewBox="0 0 2250 270">
  <path d="M109.8 164.9l-59.1 43.3c-7.1 4.7-12.6 7.9-19.7 7.9-14.2 0-26-12.6-26-26.8 0-11.8 9.5-20.5 18.1-24.4L92.5 135l-69.3-30.7C13.7 100.3 5 91.7 5 79.9c0-14.2 12.6-26 26.8-26 7.1 0 11.8 2.4 18.9 7.9l59.1 43.3-7.9-70.1c-2.4-16.6 8.7-30 24.4-30s26.8 12.6 24.4 29.2l-7.9 70.9 59.1-43.3c7.1-5.5 12.6-7.9 19.7-7.9 14.3.1 25.9 11.7 26 26 0 12.6-8.7 20.5-18.1 24.4L160.2 135l69.3 29.9c9.5 3.9 18.1 12.6 18.1 25.2 0 14.2-12.6 26-26.8 26-6.3 0-11.8-3.2-18.9-7.9l-59.1-43.3 7.9 70.1c2.4 16.5-8.7 29.9-24.4 29.9s-26.8-12.6-24.4-29.2l7.9-70.8z" class="st0"/>
  <path d="M500.8 190.3c-4.5 0-8.9 1.6-12.4 4.7-16.9 14.2-33.5 22.2-58 22.2-44.4 0-76.5-36.8-76.5-82.3v-.4c0-45.3 32.4-81.8 76.5-81.8 20.4-.1 40.1 7.3 55.5 20.7 9.1 6.7 21.8 4.7 28.5-4.4 2.5-3.4 3.8-7.4 4-11.5 0-6.4-2.9-12.4-7.9-16.2C490.3 25.6 466.8 15 430.8 15c-70 0-119.4 54-119.4 119.9v.7c0 66.6 50.4 119.4 117.9 119.4 37.4 0 62.3-11.9 84.1-31.1 4.2-3.7 6.6-9 6.6-14.6-.1-10.5-8.6-19-19.2-19zm148.7-73.7C605.4 106 595 98.3 595 80.7v-1c0-15 13.7-27.1 37.2-27.1 18 0 34.9 5.9 52.7 17.3 3.1 1.9 6.7 3 10.4 2.9 10.3.2 18.8-8.1 18.9-18.4v-.2c.2-6.5-3.2-12.6-8.8-16C684 23.8 658.7 16.4 632.8 17c-45.4 0-78 27.1-78 66.3v1.1c0 42.1 27.4 56.5 76.1 68.3 42.5 9.8 51.7 18.6 51.7 34.9v1c0 17-15.7 28.8-40.7 28.8-23.5 0-46.2-8.4-64.1-23.5-8.8-6.2-20.9-4.2-27.2 4.6-2.2 3.1-3.4 6.7-3.6 10.4 0 6.1 2.9 11.8 7.9 15.3 24.8 18.7 55 28.9 86 28.9 48.1 0 81.7-25.5 81.7-68.4v-1c.1-38-24.7-55.3-73.1-67.1zm203.3 0c-44.1-10.4-54.5-18.3-54.5-35.9v-.4c0-15.3 14-27.6 37.9-27.6 18.3 0 35.6 6 53.8 17.6 3.2 2 6.9 3 10.6 3 10.5.2 19.2-8.2 19.3-18.7v-.3c.2-6.7-3.3-12.9-9-16.3-21.9-14.6-47.8-22.2-74.1-21.6-46.3 0-79.6 27.6-79.6 67.6v.1c0 42.4 27.6 56.9 76.6 68.7 42.7 9.8 51.9 18.8 51.9 35.2v.7c0 17-15.7 28.7-40.6 28.7-23.4 0-46.1-8.3-64-23.5-8.7-6.2-20.9-4.2-27.1 4.6-2.2 3.1-3.4 6.7-3.6 10.4 0 6.1 3 11.8 8 15.3 24.7 18.7 54.9 28.8 85.8 28.7 48 0 81.6-25.5 81.6-68.2v-1.1c.1-37.9-24.7-55.2-73-67zm186.4 12.9h-61.9c-9.1 0-18.1 7.3-19.6 16.3-2.1 12.4 7.4 23.1 19.4 23.1h61.9c9.1 0 18.1-7.3 19.6-16.3 2-12.4-7.5-23.1-19.4-23.1zm186.5-109.2H1072c-10.4.5-18.5 9.3-18 19.8.5 9.7 8.3 17.5 18 18h56.3v171c0 10 8.1 19.5 18 20.7 12.4 1.5 23-8.1 23-20.1V57.2h56.4c10.3-1 17.9-10 17-20.2-.8-8.9-8-15.9-17-16.7zm158.3 0h-82.3c-11.2-.2-20.5 8.6-20.7 19.7v191.5c.5 11.1 10.1 19.8 21.4 19.3 10.6-.5 19.1-8.8 19.6-19.3v-61.8h50.7l55.7 71.2c4.3 6.7 11.7 10.6 19.7 10.5 10.5.2 19.1-8.2 19.3-18.7-.2-5.8-2.5-11.3-6.6-15.4l-43.9-55.4c30.8-9.5 52-31.8 52-68.6v-.7c.5-18.4-6.3-36.2-19-49.5-14.7-14.4-37.3-22.8-66.1-22.8h.2zm43.6 75.7c0 23.3-18.4 38.4-47.2 38.4h-59.2V57.2h58.7c29.8 0 47.6 13.5 47.6 38l.1.8zm110.7-76.9c-11-.2-20.1 8.4-20.3 19.4V231c.5 11.1 9.9 19.7 21 19.2 10.4-.5 18.7-8.8 19.2-19.2V38.9c.1-10.9-8.7-19.9-19.7-19.9h-.5l.3.1zM1793.9 190c-4.5 0-8.9 1.6-12.3 4.6-16.8 14.2-33.2 22-57.6 22-44.1 0-76-36.5-76-81.8v-.5c0-45 32.2-81.3 76-81.3 20.2 0 39.8 7.4 55 20.7 9 6.6 21.7 4.7 28.3-4.3 2.4-3.3 3.8-7.3 3.9-11.5 0-6.3-2.9-12.3-7.9-16.1-20.4-15.7-43.8-26.2-79.3-26.2-69.8 0-118.6 53.7-118.6 119.1v.7c0 66.1 50 118.6 117.1 118.6 37.2 0 61.8-11.9 83.6-30.9 4.2-3.7 6.6-9 6.6-14.6-.3-10.4-8.8-18.7-19.2-18.7l.4.2zm166.3-68.7l71.2-68.6c4.5-3.7 7.1-9.2 7.2-15 .2-10.1-7.8-18.5-18-18.8h-1.1c-6.4-.1-12.5 2.6-16.6 7.5l-108.2 109.1V39c0-11.1-9-20.1-20.1-20.1-11.1 0-20 9-20.1 20.1v192c0 11.1 9 20.1 20.1 20.1 11.1 0 20-9 20.1-20.1v-47.3l37.2-35.9 73.4 93.7c3.7 5.8 10.1 9.4 17 9.5 10.8.4 19.9-8.1 20.3-18.9v-.7c0-5.3-2-10.4-5.6-14.4l-76.8-95.7zm211.8-4.6c-44.4-10.8-54.9-18.4-54.9-36.1v-.4c0-15.3 14-27.6 37.9-27.6 18.3 0 35.6 6 53.8 17.6 3.2 2 6.9 3 10.6 3 10.5.2 19.2-8.2 19.3-18.7v-.3c.2-6.7-3.3-12.9-9-16.3-21.9-14.7-47.9-22.2-74.2-21.6-46.1 0-79.5 27.6-79.5 67.6v.1c0 42.4 27.6 56.9 76.6 68.7 42.7 9.8 51.9 18.8 51.9 35.2v.6c0 17-15.7 28.8-40.7 28.8-23.5 0-46.3-8.4-64.2-23.6-8.8-6.2-21-4.2-27.2 4.6-2.2 3.1-3.4 6.7-3.6 10.5 0 6.1 3 11.8 8 15.3 24.8 18.7 55 28.9 86 28.9 48.2 0 81.9-25.6 81.9-68.5v-.9c.2-38-24.8-55.3-73.1-67.1l.4.2z"/>
</svg>
