<svg xmlns="http://www.w3.org/2000/svg" viewBox="0 0 181.6 86.7">
  <style>
    .st0{fill:#266478;}
  </style>
  <path id="wordmark" d="M90.7 4.5c1.3.2 1.5.4 1.5.7v11.7c1.8.5 3.5 1.2 5.3 2.1v-3.2H99c3.8 0 6.6 1.7 6.6 5.4 0 1.1-.3 2-.8 2.8.9.8 1.8 1.6 2.7 2.5 2.6-1.1 3.8-3 3.8-5.4 0-3.5-2.9-5.8-7.7-6.3v-.2c3.7-.6 6.8-2.8 6.8-6.2s-2.8-5.6-9.9-5.6H89.3l.1 1.6 1.3.1zm6.8-.1h1.7c3.7 0 5.5 2 5.5 5 0 2.6-1.8 4.6-5 4.7h-2.2V4.4zM116 26l-1.8.2-.1 1.6h3.3c1.7-2.3 3.4-4.4 5.3-5.1V5.2c0-.4.3-.6 1.4-.8l1.9-.2.1-1.6h-12l.1 1.6 1.7.2c1.3.2 1.5.4 1.5.7v20c0 .5-.4.7-1.4.9zM15.3 2.2C7.9 2.2 1.7 7.8 1.7 15.5s5.4 12.9 13.4 12.9c7.4 0 13.6-5.6 13.6-13.3S23.3 2.2 15.3 2.2zm0 24.3c-4.3 0-7.8-4.1-7.8-11.5 0-7.2 3.4-11 7.6-11 4.3 0 7.8 4.1 7.8 11.5 0 7.3-3.4 11-7.6 11zM164.8 2.6l-10.5.2.1 1.6 1.3.2c1.3.2 1.5.4 1.5.7v20c0 .4-.4.6-1.4.8l-1.4.2-.1 1.6h10.5c9.7 0 15.1-6.2 15.1-13.1-.1-7.2-5.9-12.4-15.1-12.2zm.6 23.5l-2.9-.6V4.4h1.3c6.9 0 10.3 4.5 10.3 11.2 0 5.8-3.2 10.4-8.7 10.5zM130.3 4.5c1.3.2 1.5.4 1.5.7v17.7c1.8.5 3.6 1.1 5.3 1.7v-7.7h2.4l4.2 7.7 1.6 3.2h7.7l-.1-1.6-1.1-.2c-.8-.2-1.3-.6-2.2-1.8l-5.2-8.2c3.6-1.3 5.7-3.7 5.7-6.9 0-3.7-3.1-6.2-9.6-6.2h-11.7l.1 1.6h1.4zm6.8 0h1.9c3.4-.1 5.5 1.8 5.5 5.4 0 3.4-2 5.1-4.9 5.4l-2.4-.2V4.5h-.1zM33.4 26l-1.4.1-.1 1.6h5.4c1.2-.8 2.4-1.5 3.6-2.1l-.8-.2v-21h1.3c6.9 0 10.3 4.5 10.3 11.2 0 2.3-.5 4.3-1.4 6 .8-.2 1.7-.3 2.5-.3.9 0 1.7.1 2.5.4 1.4-2.1 2.1-4.5 2.1-7.1 0-7-5.8-12.2-15-12.1l-10.5.2.1 1.6 1.3.2c1.3.2 1.5.4 1.5.7v20c0 .4-.4.6-1.4.8zM62 4.5c1.3.2 1.5.4 1.5.7v20c0 .4-.4.6-1.4.8l-1.3.1c.5.5.9 1.1 1.3 1.6h7.6c.4-.6.7-1.2 1.1-1.8l-2-.4V4.4h1.3c6.9 0 10.3 4.5 10.3 11.2 0 .6 0 1.1-.1 1.7.6-.3 1.3-.5 1.9-.7 1.2-.3 2.5-.5 3.9-.5 0-.5.1-.9.1-1.4 0-7-5.8-12.2-15-12.1l-10.6.1.1 1.6 1.3.2z" class="st0"/>
  <path id="logomark" d="M143.1 28.7c-3.8-1.7-14.6-6.6-19.6-4.9-3.4 1.1-7.3 9.4-9.9 11.8-.3.2-.6.5-1 .8-7.1-13.4-20.8-21-29.9-18.5-6.2 1.7-11.9 8.9-14.5 18.1-4.5-2.7-6.8-7.2-10.8-11.3-3.1-3.2-7.3-1.9-10.9-.2-7.2 3.3-16.6 8.2-16.3 15.9 4.2-3 8.3-2.1 9.6 3.4.3 1 2.6-3.6 5.4-4.6 3.2-1.2 6.7 1.7 7.4 4.9.2.6 2.9-3.5 5.7-2.1 2 .9 3.2 5.1 3.9 4.7 2-1.3 3.4-2.8 4.8-4-.5 4.7-.2 9.7 1.2 14.7.1.3.2.6.2.8 1-8.9 5.9-16.2 11.4-17.7 7.7-2.2 20.1 5.8 23.8 18.9 2.7 9.7.8 19.3-4.2 24.6.6-.1 1.2-.2 1.8-.4 13.1-3.7 19.6-21.4 14.5-39.5-.1-.4-.2-.7-.3-1 3.2 1.7 4.7 4.5 4.8 4.1 1.2-5.6 7.9-5.7 12.3-1.7.4.4.6-4.3 2.3-4.9 2.7-1 5.7.5 8.5 2.2.5.3.4-2.2.3-2.5-.2-1.2-.1-2.5 1.3-2.9 2.1-.6 4.5.5 6.4.9-.5-4.5-4.6-8-8.2-9.6z" class="st0"/>
</svg>
