<svg viewBox="0 0 1152 1024" xmlns="http://www.w3.org/2000/svg">
  <path d="M5.32907052e-15,497.539 L5.32907052e-15,483.053 C56.46,435.142 126.202,368.292 178.232,311.467 L204.8,329.294 C174.913,382.779 131.739,440.715 89.671,484.17 C156.094,567.735 159.413,572.196 202.587,643.507 L178.232,661.334 C153.877,635.71 142.808,623.448 108.49,592.256 C68.636,554.365 73.061,559.934 15.499,510.91 L0,497.54 L5.32907052e-15,497.539 Z M225.933,756.539 L273.23,732.896 C361.906,867.361 502.316,960.453 614.641,960.453 C722.534,960.453 799.394,883.613 799.394,774.27 C799.394,666.406 737.316,611.734 558.481,562.974 C345.653,505.344 264.362,427.03 264.362,274.838 C264.362,122.642 382.6,0 527.442,0 C567.349,0 564.39,0 657.507,28.075 C670.806,32.508 688.546,35.466 695.932,35.466 C706.277,35.466 721.058,31.033 734.362,25.121 L784.609,0.004 L876.244,255.632 L828.947,286.661 C743.225,144.809 633.854,63.537 527.443,63.537 C434.33,63.537 364.866,132.986 364.866,227.557 C364.866,320.644 428.421,381.232 559.959,415.215 C623.514,431.471 669.33,444.77 691.501,450.677 C824.52,490.571 904.334,595.487 904.334,726.994 C904.334,893.967 775.751,1024 613.17,1024 C562.918,1024 537.793,1018.088 475.719,990.013 C449.116,978.189 432.858,973.761 422.513,973.761 C407.732,973.761 397.387,978.194 379.652,988.538 L323.492,1024 L225.934,756.539 L225.933,756.539 Z M950.586,643.511 C993.761,571.082 995.974,567.742 1062.398,484.172 C1020.33,440.717 977.155,382.779 947.267,329.294 L974.938,311.467 C1025.867,368.293 1093.393,432.915 1152.067,483.055 L1152.067,497.542 L1095.606,544.338 C1074.574,562.17 1013.687,620.107 973.836,661.334 L950.587,643.512 L950.586,643.511 Z"></path>
</svg>
